SplineFontDB: 3.2
FontName: IRArshia
FullName: IRArshia
FamilyName: IRArshia
Weight: Book
Copyright: Copyright (c) 2022, Information Technology Organization of Iran (ito.gov.ir)
Version: 1.001
ItalicAngle: 0
UnderlinePosition: -100
UnderlineWidth: 60
Ascent: 1638
Descent: 410
InvalidEm: 0
sfntRevision: 0x00010042
LayerCount: 2
Layer: 0 1 "Back" 1
Layer: 1 1 "Fore" 0
XUID: [1021 420 722297922 4309381]
StyleMap: 0x0040
FSType: 0
OS2Version: 3
OS2_WeightWidthSlopeOnly: 0
OS2_UseTypoMetrics: 0
CreationTime: 1356313992
ModificationTime: 1662560238
PfmFamily: 17
TTFWeight: 400
TTFWidth: 5
LineGap: 100
VLineGap: 0
Panose: 2 0 5 3 0 0 0 2 0 2
OS2TypoAscent: 1598
OS2TypoAOffset: 0
OS2TypoDescent: -868
OS2TypoDOffset: 0
OS2TypoLinegap: 1500
OS2WinAscent: 1598
OS2WinAOffset: 0
OS2WinDescent: 868
OS2WinDOffset: 0
HheadAscent: 1598
HheadAOffset: 0
HheadDescent: -868
HheadDOffset: 0
OS2SubXSize: 1434
OS2SubYSize: 1331
OS2SubXOff: 0
OS2SubYOff: 293
OS2SupXSize: 1434
OS2SupYSize: 1331
OS2SupXOff: 0
OS2SupYOff: 930
OS2StrikeYSize: 50
OS2StrikeYPos: 250
OS2CapHeight: 1612
OS2XHeight: 594
OS2FamilyClass: 2048
OS2Vendor: 'PARS'
OS2CodePages: 20000041.00000000
OS2UnicodeRanges: 00002003.00000000.00000000.00000000
Lookup: 1 1 0 "'isol' Isolated Forms in Arabic lookup 0" { "'isol' Isolated Forms in Arabic lookup 0 subtable"  } ['isol' ('arab' <'dflt' > ) ]
Lookup: 1 1 0 "'init' Initial Forms in Arabic lookup 1" { "'init' Initial Forms in Arabic lookup 1 subtable"  } ['init' ('arab' <'dflt' > ) ]
Lookup: 1 1 0 "'fina' Terminal Forms in Arabic lookup 2" { "'fina' Terminal Forms in Arabic lookup 2 subtable"  } ['fina' ('arab' <'dflt' > ) ]
Lookup: 1 1 0 "'medi' Medial Forms in Arabic lookup 3" { "'medi' Medial Forms in Arabic lookup 3 subtable"  } ['medi' ('arab' <'dflt' > ) ]
Lookup: 4 1 0 "'ccmp' Glyph Composition/Decomposition in Arabic lookup 4" { "'ccmp' Glyph Composition/Decomposition in Arabic lookup 4 subtable"  } ['ccmp' ('arab' <'dflt' > ) ]

StartChar: quotedbl
Encoding: 34 34 4
Width: 966
Flags: W
LayerCount: 2
Fore
SplineSet
221 703 m 1,0,1
 214 732 214 732 209.5 754.5 c 128,-1,2
 205 777 205 777 202 787 c 0,3,4
 175 896 175 896 159.5 974 c 128,-1,5
 144 1052 144 1052 144 1079 c 0,6,7
 144 1136 144 1136 175 1169.5 c 128,-1,8
 206 1203 206 1203 256 1203 c 0,9,10
 280 1203 280 1203 300.5 1194 c 128,-1,11
 321 1185 321 1185 336.5 1169.5 c 128,-1,12
 352 1154 352 1154 360.5 1132.5 c 128,-1,13
 369 1111 369 1111 369 1086 c 0,14,15
 369 1072 369 1072 365.5 1046 c 128,-1,16
 362 1020 362 1020 353 976 c 128,-1,17
 344 932 344 932 329 865.5 c 128,-1,18
 314 799 314 799 292 703 c 1,19,-1
 221 703 l 1,0,1
674 703 m 1,20,21
 667 730 667 730 661.5 753.5 c 128,-1,22
 656 777 656 777 654 787 c 0,23,24
 627 897 627 897 612 974.5 c 128,-1,25
 597 1052 597 1052 597 1079 c 0,26,27
 597 1136 597 1136 628 1169.5 c 128,-1,28
 659 1203 659 1203 709 1203 c 0,29,30
 733 1203 733 1203 753.5 1194 c 128,-1,31
 774 1185 774 1185 789.5 1169.5 c 128,-1,32
 805 1154 805 1154 813.5 1132.5 c 128,-1,33
 822 1111 822 1111 822 1086 c 0,34,35
 822 1072 822 1072 817.5 1043 c 128,-1,36
 813 1014 813 1014 803.5 967.5 c 128,-1,37
 794 921 794 921 779.5 855.5 c 128,-1,38
 765 790 765 790 745 703 c 1,39,-1
 674 703 l 1,20,21
EndSplineSet
EndChar

StartChar: quotesingle
Encoding: 39 39 5
Width: 484
Flags: W
LayerCount: 2
Fore
SplineSet
207 703 m 1,0,1
 200 730 200 730 195 753.5 c 128,-1,2
 190 777 190 777 188 787 c 0,3,4
 160 896 160 896 145.5 974 c 128,-1,5
 131 1052 131 1052 131 1079 c 0,6,7
 131 1136 131 1136 161.5 1169.5 c 128,-1,8
 192 1203 192 1203 242 1203 c 0,9,10
 266 1203 266 1203 286.5 1194 c 128,-1,11
 307 1185 307 1185 322.5 1169.5 c 128,-1,12
 338 1154 338 1154 346.5 1132.5 c 128,-1,13
 355 1111 355 1111 355 1086 c 0,14,15
 355 1072 355 1072 351 1045.5 c 128,-1,16
 347 1019 347 1019 338 974.5 c 128,-1,17
 329 930 329 930 314.5 863.5 c 128,-1,18
 300 797 300 797 279 703 c 1,19,-1
 207 703 l 1,0,1
EndSplineSet
EndChar

StartChar: asterisk
Encoding: 42 42 6
Width: 1126
Flags: W
LayerCount: 2
Fore
SplineSet
568 347 m 1,0,-1
 574 687 l 1,1,-1
 355 467 l 1,2,-1
 250 467 l 1,3,-1
 527 746 l 1,4,-1
 203 746 l 1,5,-1
 223 839 l 1,6,-1
 547 839 l 1,7,-1
 277 1104 l 1,8,-1
 370 1104 l 1,9,-1
 579 899 l 1,10,-1
 585 1199 l 1,11,-1
 704 1239 l 1,12,-1
 699 912 l 1,13,-1
 905 1104 l 1,14,-1
 1013 1104 l 1,15,-1
 730 839 l 1,16,-1
 1065 839 l 1,17,-1
 1043 746 l 1,18,-1
 729 746 l 1,19,-1
 1002 467 l 1,20,-1
 910 467 l 1,21,-1
 696 687 l 1,22,-1
 688 386 l 1,23,-1
 568 347 l 1,0,-1
EndSplineSet
EndChar

StartChar: plus
Encoding: 43 43 7
Width: 1036
GlyphClass: 2
Flags: W
LayerCount: 2
Fore
SplineSet
951 395 m 1,0,-1
 613 395 l 1,1,-1
 613 60 l 1,2,-1
 490 60 l 1,3,-1
 490 395 l 1,4,-1
 154 395 l 1,5,-1
 154 523 l 1,6,-1
 490 523 l 1,7,-1
 490 861 l 1,8,-1
 613 861 l 1,9,-1
 613 523 l 1,10,-1
 951 523 l 1,11,-1
 951 395 l 1,0,-1
EndSplineSet
EndChar

StartChar: hyphen
Encoding: 45 45 8
Width: 1132
Flags: W
LayerCount: 2
Fore
SplineSet
198 544 m 1,0,-1
 953 544 l 1,1,-1
 953 416 l 1,2,-1
 198 416 l 1,3,-1
 198 544 l 1,0,-1
EndSplineSet
EndChar

StartChar: period
Encoding: 46 46 9
Width: 411
GlyphClass: 2
Flags: W
LayerCount: 2
Fore
SplineSet
378 108 m 0,0,1
 378 85 378 85 369.5 65.5 c 128,-1,2
 361 46 361 46 347 31.5 c 128,-1,3
 333 17 333 17 313 8.5 c 128,-1,4
 293 0 293 0 271 0 c 256,5,6
 249 0 249 0 229.5 8.5 c 128,-1,7
 210 17 210 17 195 31.5 c 128,-1,8
 180 46 180 46 171.5 65.5 c 128,-1,9
 163 85 163 85 163 108 c 0,10,11
 163 130 163 130 171.5 149.5 c 128,-1,12
 180 169 180 169 195 183.5 c 128,-1,13
 210 198 210 198 229.5 206.5 c 128,-1,14
 249 215 249 215 271 215 c 256,15,16
 293 215 293 215 313 206.5 c 128,-1,17
 333 198 333 198 347 183.5 c 128,-1,18
 361 169 361 169 369.5 149.5 c 128,-1,19
 378 130 378 130 378 108 c 0,0,1
EndSplineSet
EndChar

StartChar: slash
Encoding: 47 47 10
Width: 868
Flags: W
LayerCount: 2
Fore
SplineSet
681 1188 m 1,0,-1
 240 -171 l 1,1,-1
 126 -171 l 1,2,-1
 567 1188 l 1,3,-1
 681 1188 l 1,0,-1
EndSplineSet
EndChar

StartChar: less
Encoding: 60 60 11
Width: 1117
Flags: W
LayerCount: 2
Fore
SplineSet
955 58 m 1,0,-1
 150 444 l 1,1,-1
 150 534 l 1,2,-1
 955 918 l 1,3,-1
 955 784 l 1,4,-1
 331 489 l 1,5,-1
 955 192 l 1,6,-1
 955 58 l 1,0,-1
EndSplineSet
EndChar

StartChar: equal
Encoding: 61 61 12
Width: 1003
Flags: W
LayerCount: 2
Fore
SplineSet
871 586 m 1,0,-1
 144 586 l 1,1,-1
 144 706 l 1,2,-1
 871 706 l 1,3,-1
 871 586 l 1,0,-1
871 301 m 1,4,-1
 144 301 l 1,5,-1
 144 421 l 1,6,-1
 871 421 l 1,7,-1
 871 301 l 1,4,-1
EndSplineSet
EndChar

StartChar: greater
Encoding: 62 62 13
Width: 1117
Flags: W
LayerCount: 2
Fore
SplineSet
966 444 m 1,0,-1
 160 58 l 1,1,-1
 160 192 l 1,2,-1
 786 489 l 1,3,-1
 160 784 l 1,4,-1
 160 918 l 1,5,-1
 966 534 l 1,6,-1
 966 444 l 1,0,-1
EndSplineSet
EndChar

StartChar: bracketleft
Encoding: 91 91 14
Width: 455
GlyphClass: 2
Flags: W
LayerCount: 2
Fore
SplineSet
111 -326 m 1,0,-1
 111 1173 l 1,1,-1
 429 1173 l 1,2,-1
 429 1054 l 1,3,-1
 255 1054 l 1,4,-1
 255 -206 l 1,5,-1
 429 -206 l 1,6,-1
 429 -326 l 1,7,-1
 111 -326 l 1,0,-1
EndSplineSet
EndChar

StartChar: bracketright
Encoding: 93 93 15
Width: 455
GlyphClass: 2
Flags: W
LayerCount: 2
Fore
SplineSet
349 -326 m 1,0,-1
 31 -326 l 1,1,-1
 31 -206 l 1,2,-1
 205 -206 l 1,3,-1
 205 1054 l 1,4,-1
 31 1054 l 1,5,-1
 31 1173 l 1,6,-1
 349 1173 l 1,7,-1
 349 -326 l 1,0,-1
EndSplineSet
EndChar

StartChar: grave
Encoding: 96 96 16
Width: 580
Flags: W
LayerCount: 2
Fore
SplineSet
352 882 m 1,0,-1
 83 1051 l 2,1,2
 60 1068 60 1068 46.5 1086.5 c 128,-1,3
 33 1105 33 1105 33 1126 c 0,4,5
 33 1151 33 1151 49 1166 c 128,-1,6
 65 1181 65 1181 93 1181 c 0,7,8
 111 1181 111 1181 126.5 1172 c 128,-1,9
 142 1163 142 1163 166 1140 c 2,10,-1
 422 882 l 1,11,-1
 352 882 l 1,0,-1
EndSplineSet
EndChar

StartChar: braceleft
Encoding: 123 123 17
Width: 547
GlyphClass: 2
Flags: W
LayerCount: 2
Fore
SplineSet
46 490 m 1,0,1
 107 491 107 491 146 522.5 c 128,-1,2
 185 554 185 554 197.5 609.5 c 128,-1,3
 210 665 210 665 211 798.5 c 128,-1,4
 212 932 212 932 216 974 c 0,5,6
 223 1042 223 1042 242.5 1082.5 c 128,-1,7
 262 1123 262 1123 291 1147.5 c 128,-1,8
 320 1172 320 1172 365 1185 c 0,9,10
 395 1193 395 1193 464 1193 c 2,11,-1
 509 1193 l 1,12,-1
 509 1067 l 1,13,-1
 484 1067 l 2,14,15
 401 1067 401 1067 373.5 1037 c 128,-1,16
 346 1007 346 1007 346 903 c 0,17,18
 346 694 346 694 338 638 c 0,19,20
 323 553 323 553 288.5 506.5 c 128,-1,21
 254 460 254 460 179 424 c 1,22,23
 267 387 267 387 306.5 311.5 c 128,-1,24
 346 236 346 236 346 64 c 0,25,26
 346 -92 346 -92 350 -122 c 0,27,28
 356 -176 356 -176 382 -197.5 c 128,-1,29
 408 -219 408 -219 484 -219 c 2,30,-1
 509 -219 l 1,31,-1
 509 -345 l 1,32,-1
 464 -345 l 2,33,34
 386 -345 386 -345 350 -332 c 0,35,36
 299 -314 299 -314 265.5 -272.5 c 128,-1,37
 232 -231 232 -231 222 -168 c 128,-1,38
 212 -105 212 -105 211 39 c 128,-1,39
 210 183 210 183 197.5 238.5 c 128,-1,40
 185 294 185 294 146 326 c 128,-1,41
 107 358 107 358 46 359 c 1,42,-1
 46 490 l 1,0,1
EndSplineSet
EndChar

StartChar: bar
Encoding: 124 124 18
Width: 426
Flags: W
LayerCount: 2
Fore
SplineSet
150 -345 m 1,0,-1
 150 1193 l 1,1,-1
 276 1193 l 1,2,-1
 276 -345 l 1,3,-1
 150 -345 l 1,0,-1
EndSplineSet
EndChar

StartChar: asciitilde
Encoding: 126 126 19
Width: 957
Flags: W
LayerCount: 2
Fore
SplineSet
70 446 m 1,0,-1
 70 610 l 1,1,2
 154 706 154 706 292 706 c 0,3,4
 340 706 340 706 393 692 c 128,-1,5
 446 678 446 678 543 636 c 0,6,7
 598 613 598 613 626 605.5 c 128,-1,8
 654 598 654 598 682 598 c 0,9,10
 734 598 734 598 789.5 629.5 c 128,-1,11
 845 661 845 661 888 708 c 1,12,-1
 888 538 l 1,13,14
 837 490 837 490 784.5 468.5 c 128,-1,15
 732 447 732 447 666 447 c 0,16,17
 618 447 618 447 574.5 458.5 c 128,-1,18
 531 470 531 470 436.5 512 c 128,-1,19
 342 554 342 554 278 554 c 0,20,21
 227 554 227 554 182 532 c 128,-1,22
 137 510 137 510 70 446 c 1,0,-1
EndSplineSet
EndChar

StartChar: agrave
Encoding: 224 224 20
Width: 1075
Flags: W
LayerCount: 2
Fore
SplineSet
741 331 m 1,0,1
 720 266 720 266 690.5 213 c 128,-1,2
 661 160 661 160 626 114 c 0,3,4
 519 -19 519 -19 400 -19 c 0,5,6
 208 -19 208 -19 159 214 c 0,7,8
 133 334 133 334 157 451 c 128,-1,9
 181 568 181 568 252 683 c 0,10,11
 325 801 325 801 433 860 c 128,-1,12
 541 919 541 919 684 919 c 0,13,14
 712 919 712 919 746 918.5 c 128,-1,15
 780 918 780 918 815.5 916 c 128,-1,16
 851 914 851 914 886 912 c 128,-1,17
 921 910 921 910 952 908 c 1,18,-1
 946 646 l 1,19,-1
 946 647 l 1,20,-1
 950 254 l 2,21,22
 952 209 952 209 954.5 179.5 c 128,-1,23
 957 150 957 150 958 139 c 0,24,25
 961 114 961 114 985 114 c 0,26,27
 1053 114 1053 114 1214 346 c 1,28,-1
 1218 179 l 1,29,30
 1073 -19 1073 -19 925 -19 c 0,31,32
 785 -19 785 -19 753 126 c 0,33,34
 749 146 749 146 747 182 c 128,-1,35
 745 218 745 218 745 264 c 2,36,-1
 741 331 l 1,0,1
737 758 m 1,37,38
 688 775 688 775 647 783.5 c 128,-1,39
 606 792 606 792 561 792 c 0,40,41
 497 792 497 792 453.5 749.5 c 128,-1,42
 410 707 410 707 387 625 c 0,43,44
 362 522 362 522 357 425 c 128,-1,45
 352 328 352 328 368 248 c 0,46,47
 388 146 388 146 437 146 c 0,48,49
 493 146 493 146 589 280 c 0,50,51
 637 352 637 352 674 430 c 128,-1,52
 711 508 711 508 739 599 c 1,53,-1
 737 758 l 1,37,38
641 537 m 1,54,-1
 372 706 l 2,55,56
 349 723 349 723 335.5 741.5 c 128,-1,57
 322 760 322 760 322 781 c 0,58,59
 322 806 322 806 338 821 c 128,-1,60
 354 836 354 836 382 836 c 0,61,62
 400 836 400 836 415.5 827 c 128,-1,63
 431 818 431 818 455 795 c 2,64,-1
 711 537 l 1,65,-1
 641 537 l 1,54,-1
EndSplineSet
EndChar

StartChar: ocircumflex.001
Encoding: 65539 -1 26
Width: 1112
Flags: W
LayerCount: 2
Fore
SplineSet
416 -19 m 0,0,1
 301 -19 301 -19 205 70 c 0,2,3
 110 160 110 160 85 288 c 0,4,5
 32 528 32 528 170 726 c 0,6,7
 307 928 307 928 522 928 c 0,8,9
 643 928 643 928 742 842 c 1,10,11
 837 753 837 753 864 626 c 0,12,13
 890 499 890 499 869 388.5 c 128,-1,14
 848 278 848 278 781 179 c 0,15,16
 711 79 711 79 619.5 30 c 128,-1,17
 528 -19 528 -19 416 -19 c 0,0,1
483 98 m 0,18,19
 536 98 536 98 573.5 133 c 128,-1,20
 611 168 611 168 637 236 c 0,21,22
 665 310 665 310 668.5 393.5 c 128,-1,23
 672 477 672 477 652 574 c 0,24,25
 602 813 602 813 466 813 c 0,26,27
 365 813 365 813 313 670 c 0,28,29
 284 595 284 595 281 510.5 c 128,-1,30
 278 426 278 426 298 332 c 0,31,32
 324 213 324 213 370 155.5 c 128,-1,33
 416 98 416 98 483 98 c 0,18,19
EndSplineSet
EndChar

StartChar: dagger
Encoding: 8224 8224 30
Width: 932
Flags: W
LayerCount: 2
Fore
SplineSet
347 -231 m 1,0,-1
 567 622 l 1,1,-1
 248 592 l 1,2,-1
 297 700 l 1,3,-1
 576 668 l 1,4,-1
 607 1066 l 1,5,-1
 755 1093 l 1,6,-1
 621 668 l 1,7,-1
 941 700 l 1,8,-1
 895 592 l 1,9,-1
 612 622 l 1,10,-1
 496 -213 l 1,11,-1
 347 -231 l 1,0,-1
EndSplineSet
EndChar

StartChar: degree
Encoding: 176 176 31
Width: 409
Flags: W
LayerCount: 2
Fore
SplineSet
395 844 m 0,0,1
 344 844 344 844 307.5 880 c 128,-1,2
 271 916 271 916 271 968 c 0,3,4
 271 1021 271 1021 307.5 1057 c 128,-1,5
 344 1093 344 1093 395 1093 c 0,6,7
 447 1093 447 1093 483 1057 c 128,-1,8
 519 1021 519 1021 519 968 c 0,9,10
 519 916 519 916 483 880 c 128,-1,11
 447 844 447 844 395 844 c 0,0,1
395 888 m 256,12,13
 427 888 427 888 450.5 912 c 128,-1,14
 474 936 474 936 474 968 c 256,15,16
 474 1000 474 1000 450.5 1024 c 128,-1,17
 427 1048 427 1048 395 1048 c 256,18,19
 363 1048 363 1048 339 1024 c 128,-1,20
 315 1000 315 1000 315 968 c 256,21,22
 315 936 315 936 339 912 c 128,-1,23
 363 888 363 888 395 888 c 256,12,13
EndSplineSet
EndChar

StartChar: bullet
Encoding: 8226 8226 32
Width: 931
Flags: W
LayerCount: 2
Fore
SplineSet
817 662 m 256,0,1
 817 517 817 517 713.5 414 c 128,-1,2
 610 311 610 311 465 311 c 256,3,4
 320 311 320 311 217 414 c 128,-1,5
 114 517 114 517 114 662 c 256,6,7
 114 807 114 807 217 910 c 128,-1,8
 320 1013 320 1013 465 1013 c 256,9,10
 610 1013 610 1013 713.5 910 c 128,-1,11
 817 807 817 807 817 662 c 256,0,1
EndSplineSet
EndChar

StartChar: registered
Encoding: 174 174 33
Width: 897
Flags: W
LayerCount: 2
Fore
SplineSet
580 445 m 0,0,1
 448 445 448 445 354.5 538.5 c 128,-1,2
 261 632 261 632 261 764 c 256,3,4
 261 896 261 896 354.5 990 c 128,-1,5
 448 1084 448 1084 580 1084 c 0,6,7
 714 1084 714 1084 807 990 c 128,-1,8
 900 896 900 896 900 764 c 256,9,10
 900 632 900 632 806.5 538.5 c 128,-1,11
 713 445 713 445 580 445 c 0,0,1
580 484 m 0,12,13
 695 484 695 484 777.5 567 c 128,-1,14
 860 650 860 650 860 764 c 256,15,16
 860 878 860 878 777.5 961 c 128,-1,17
 695 1044 695 1044 580 1044 c 0,18,19
 466 1044 466 1044 383.5 961 c 128,-1,20
 301 878 301 878 301 764 c 256,21,22
 301 650 301 650 383.5 567 c 128,-1,23
 466 484 466 484 580 484 c 0,12,13
529 737 m 1,24,-1
 501 596 l 1,25,-1
 394 596 l 1,26,-1
 403 639 l 1,27,-1
 456 639 l 1,28,-1
 511 915 l 1,29,-1
 458 915 l 1,30,-1
 466 959 l 1,31,-1
 598 959 l 2,32,33
 751 959 751 959 751 875 c 0,34,35
 751 800 751 800 650 750 c 1,36,-1
 685 639 l 1,37,-1
 747 639 l 1,38,-1
 738 596 l 1,39,-1
 641 596 l 1,40,-1
 591 737 l 1,41,-1
 529 737 l 1,24,-1
538 782 m 1,42,-1
 574 782 l 2,43,44
 697 782 697 782 697 866 c 0,45,46
 697 915 697 915 607 915 c 2,47,-1
 564 915 l 1,48,-1
 538 782 l 1,42,-1
EndSplineSet
EndChar

StartChar: copyright
Encoding: 169 169 34
Width: 1244
Flags: W
LayerCount: 2
Fore
SplineSet
725 -27 m 0,0,1
 495 -27 495 -27 330.5 137 c 128,-1,2
 166 301 166 301 166 533 c 256,3,4
 166 765 166 765 330.5 929 c 128,-1,5
 495 1093 495 1093 725 1093 c 0,6,7
 958 1093 958 1093 1122 929 c 128,-1,8
 1286 765 1286 765 1286 533 c 256,9,10
 1286 301 1286 301 1122 137 c 128,-1,11
 958 -27 958 -27 725 -27 c 0,0,1
725 18 m 0,12,13
 939 18 939 18 1090 169 c 128,-1,14
 1241 320 1241 320 1241 533 c 256,15,16
 1241 746 1241 746 1090 897 c 128,-1,17
 939 1048 939 1048 725 1048 c 0,18,19
 513 1048 513 1048 362 897 c 128,-1,20
 211 746 211 746 211 533 c 256,21,22
 211 320 211 320 362 169 c 128,-1,23
 513 18 513 18 725 18 c 0,12,13
890 246 m 1,24,25
 785 213 785 213 704 213 c 0,26,27
 580 213 580 213 508 279.5 c 128,-1,28
 436 346 436 346 436 462 c 0,29,30
 436 625 436 625 541 734.5 c 128,-1,31
 646 844 646 844 805 844 c 0,32,33
 896 844 896 844 1003 814 c 1,34,-1
 967 675 l 1,35,-1
 915 684 l 1,36,-1
 923 766 l 1,37,38
 854 798 854 798 792 798 c 0,39,40
 688 798 688 798 616 700 c 128,-1,41
 544 602 544 602 544 462 c 0,42,43
 544 271 544 271 722 271 c 0,44,45
 823 271 823 271 902 307 c 1,46,-1
 890 246 l 1,24,25
EndSplineSet
EndChar

StartChar: trademark
Encoding: 8482 8482 35
Width: 1333
Flags: W
LayerCount: 2
Fore
SplineSet
440 1021 m 1,0,-1
 307 1021 l 1,1,-1
 288 923 l 1,2,-1
 225 923 l 1,3,-1
 254 1066 l 1,4,-1
 751 1066 l 1,5,-1
 723 923 l 1,6,-1
 661 923 l 1,7,-1
 679 1021 l 1,8,-1
 546 1021 l 1,9,-1
 456 569 l 1,10,-1
 554 569 l 1,11,-1
 545 524 l 1,12,-1
 243 524 l 1,13,-1
 253 569 l 1,14,-1
 350 569 l 1,15,-1
 440 1021 l 1,0,-1
1011 569 m 1,16,-1
 942 956 l 1,17,-1
 857 524 l 1,18,-1
 688 524 l 1,19,-1
 697 569 l 1,20,-1
 794 569 l 1,21,-1
 884 1021 l 1,22,-1
 787 1021 l 1,23,-1
 796 1066 l 1,24,-1
 1036 1066 l 1,25,-1
 1092 747 l 1,26,-1
 1265 1066 l 1,27,-1
 1481 1066 l 1,28,-1
 1473 1021 l 1,29,-1
 1375 1021 l 1,30,-1
 1285 569 l 1,31,-1
 1383 569 l 1,32,-1
 1373 524 l 1,33,-1
 1178 524 l 1,34,-1
 1270 985 l 1,35,-1
 1041 569 l 1,36,-1
 1011 569 l 1,16,-1
EndSplineSet
EndChar

StartChar: logicalnot
Encoding: 172 172 39
Width: 932
Flags: W
LayerCount: 2
Fore
SplineSet
177 510 m 1,0,-1
 193 590 l 1,1,-1
 975 590 l 1,2,-1
 906 248 l 1,3,-1
 814 248 l 1,4,-1
 866 510 l 1,5,-1
 177 510 l 1,0,-1
EndSplineSet
EndChar

StartChar: florin
Encoding: 402 402 40
Width: 679
Flags: W
LayerCount: 2
Fore
SplineSet
158 -231 m 1,0,-1
 210 -18 l 1,1,-1
 286 364 l 1,2,-1
 108 364 l 1,3,-1
 117 409 l 1,4,-1
 294 409 l 1,5,-1
 298 427 l 2,6,7
 330 586 330 586 463 692.5 c 128,-1,8
 596 799 596 799 761 799 c 0,9,10
 818 799 818 799 860 784 c 1,11,-1
 764 678 l 1,12,13
 712 729 712 729 643 729 c 0,14,15
 500 729 500 729 457 512 c 2,16,-1
 436 409 l 1,17,-1
 623 409 l 1,18,-1
 614 364 l 1,19,-1
 427 364 l 1,20,-1
 313 -213 l 1,21,-1
 158 -231 l 1,0,-1
EndSplineSet
EndChar

StartChar: ellipsis
Encoding: 8230 8230 41
Width: 1827
Flags: W
LayerCount: 2
Fore
SplineSet
758 113 m 0,0,1
 758 144 758 144 809.5 245.5 c 128,-1,2
 861 347 861 347 876 355 c 0,3,4
 907 369 907 369 964.5 307.5 c 128,-1,5
 1022 246 1022 246 1026 211 c 1,6,7
 1026 166 1026 166 977.5 79.5 c 128,-1,8
 929 -7 929 -7 908 -7 c 0,9,10
 899 -7 899 -7 851 26.5 c 128,-1,11
 803 60 803 60 778 79 c 0,12,13
 758 96 758 96 758 113 c 0,0,1
1308 113 m 0,14,15
 1308 144 1308 144 1359 245.5 c 128,-1,16
 1410 347 1410 347 1426 355 c 0,17,18
 1457 369 1457 369 1514.5 307.5 c 128,-1,19
 1572 246 1572 246 1575 211 c 0,20,21
 1575 166 1575 166 1527 79.5 c 128,-1,22
 1479 -7 1479 -7 1458 -7 c 0,23,24
 1449 -7 1449 -7 1401 26.5 c 128,-1,25
 1353 60 1353 60 1328 79 c 0,26,27
 1308 96 1308 96 1308 113 c 0,14,15
211 113 m 0,28,29
 211 144 211 144 262 245.5 c 128,-1,30
 313 347 313 347 329 355 c 0,31,32
 360 369 360 369 417.5 307.5 c 128,-1,33
 475 246 475 246 478 211 c 0,34,35
 478 166 478 166 430 79.5 c 128,-1,36
 382 -7 382 -7 361 -7 c 0,37,38
 352 -7 352 -7 304 26.5 c 128,-1,39
 256 60 256 60 231 79 c 0,40,41
 211 96 211 96 211 113 c 0,28,29
EndSplineSet
EndChar

StartChar: endash
Encoding: 8211 8211 42
Width: 434
Flags: W
LayerCount: 2
Fore
SplineSet
434 154 m 1,0,-1
 0 154 l 1,1,-1
 0 234 l 1,2,-1
 434 234 l 1,3,-1
 434 154 l 1,0,-1
EndSplineSet
EndChar

StartChar: emdash
Encoding: 8212 8212 43
Width: 1862
Flags: W
LayerCount: 2
Fore
SplineSet
1866 572 m 1,0,-1
 -4 572 l 1,1,-1
 -4 732 l 1,2,-1
 1866 732 l 1,3,-1
 1866 572 l 1,0,-1
EndSplineSet
EndChar

StartChar: quotedblleft
Encoding: 8220 8220 44
Width: 613
Flags: W
LayerCount: 2
Fore
SplineSet
340 993 m 0,0,1
 341 1058 341 1058 385 1121.5 c 128,-1,2
 429 1185 429 1185 483 1211 c 1,3,-1
 514 1153 l 1,4,5
 498 1144 498 1144 476 1120 c 128,-1,6
 454 1096 454 1096 444 1058 c 1,7,8
 510 1030 510 1030 507 975 c 0,9,10
 507 959 507 959 500.5 944.5 c 128,-1,11
 494 930 494 930 483.5 919 c 128,-1,12
 473 908 473 908 458 901.5 c 128,-1,13
 443 895 443 895 427 895 c 0,14,15
 406 895 406 895 390 903.5 c 128,-1,16
 374 912 374 912 363 925.5 c 128,-1,17
 352 939 352 939 346 957 c 128,-1,18
 340 975 340 975 340 993 c 0,0,1
121 993 m 0,19,20
 122 1058 122 1058 166 1121.5 c 128,-1,21
 210 1185 210 1185 265 1211 c 1,22,-1
 296 1153 l 1,23,24
 280 1144 280 1144 258 1120 c 128,-1,25
 236 1096 236 1096 226 1058 c 1,26,27
 292 1030 292 1030 289 975 c 0,28,29
 289 959 289 959 282.5 944.5 c 128,-1,30
 276 930 276 930 265 919 c 128,-1,31
 254 908 254 908 239 901.5 c 128,-1,32
 224 895 224 895 208 895 c 0,33,34
 188 895 188 895 171.5 903.5 c 128,-1,35
 155 912 155 912 144 925.5 c 128,-1,36
 133 939 133 939 127 957 c 128,-1,37
 121 975 121 975 121 993 c 0,19,20
EndSplineSet
EndChar

StartChar: quotedblright
Encoding: 8221 8221 45
Width: 597
Flags: W
LayerCount: 2
Fore
SplineSet
295 1113 m 0,0,1
 294 1048 294 1048 250 984.5 c 128,-1,2
 206 921 206 921 152 895 c 1,3,-1
 121 953 l 1,4,5
 137 962 137 962 159 986 c 128,-1,6
 181 1010 181 1010 191 1048 c 1,7,8
 125 1076 125 1076 128 1131 c 0,9,10
 128 1147 128 1147 134.5 1161.5 c 128,-1,11
 141 1176 141 1176 151.5 1187 c 128,-1,12
 162 1198 162 1198 176.5 1204.5 c 128,-1,13
 191 1211 191 1211 208 1211 c 0,14,15
 229 1211 229 1211 245 1202.5 c 128,-1,16
 261 1194 261 1194 272 1180.5 c 128,-1,17
 283 1167 283 1167 289 1149 c 128,-1,18
 295 1131 295 1131 295 1113 c 0,0,1
514 1113 m 0,19,20
 513 1048 513 1048 469 984.5 c 128,-1,21
 425 921 425 921 370 895 c 1,22,-1
 339 953 l 1,23,24
 355 962 355 962 377 986 c 128,-1,25
 399 1010 399 1010 409 1048 c 1,26,27
 343 1076 343 1076 346 1131 c 0,28,29
 346 1147 346 1147 352.5 1161.5 c 128,-1,30
 359 1176 359 1176 370 1187 c 128,-1,31
 381 1198 381 1198 395.5 1204.5 c 128,-1,32
 410 1211 410 1211 427 1211 c 0,33,34
 447 1211 447 1211 463 1202.5 c 128,-1,35
 479 1194 479 1194 490.5 1180.5 c 128,-1,36
 502 1167 502 1167 508 1149 c 128,-1,37
 514 1131 514 1131 514 1113 c 0,19,20
EndSplineSet
EndChar

StartChar: divide
Encoding: 247 247 46
Width: 1093
Flags: W
LayerCount: 2
Fore
SplineSet
624 674 m 1,0,-1
 466 674 l 1,1,-1
 466 855 l 1,2,-1
 624 855 l 1,3,-1
 624 674 l 1,0,-1
933 383 m 1,4,-1
 157 383 l 1,5,-1
 157 489 l 1,6,-1
 933 489 l 1,7,-1
 933 383 l 1,4,-1
624 17 m 1,8,-1
 466 17 l 1,9,-1
 466 198 l 1,10,-1
 624 198 l 1,11,-1
 624 17 l 1,8,-1
EndSplineSet
EndChar

StartChar: lozenge
Encoding: 9674 9674 47
Width: 1118
Flags: W
LayerCount: 2
Fore
SplineSet
1003 699 m 1,0,-1
 560 197 l 1,1,-1
 117 699 l 1,2,-1
 560 1202 l 1,3,-1
 1003 699 l 1,0,-1
848 699 m 1,4,-1
 560 1036 l 1,5,-1
 271 699 l 1,6,-1
 560 364 l 1,7,-1
 848 699 l 1,4,-1
EndSplineSet
EndChar

StartChar: fraction
Encoding: 8260 8260 48
Width: 742
Flags: W
LayerCount: 2
Fore
SplineSet
740 1101 m 1,0,-1
 101 -82 l 1,1,-1
 -9 -82 l 1,2,-1
 629 1101 l 1,3,-1
 740 1101 l 1,0,-1
EndSplineSet
EndChar

StartChar: guilsinglleft
Encoding: 8249 8249 49
Width: 1117
Flags: W
LayerCount: 2
Fore
SplineSet
955 58 m 1,0,-1
 150 444 l 1,1,-1
 150 534 l 1,2,-1
 955 918 l 1,3,-1
 955 784 l 1,4,-1
 331 489 l 1,5,-1
 955 192 l 1,6,-1
 955 58 l 1,0,-1
EndSplineSet
EndChar

StartChar: daggerdbl
Encoding: 8225 8225 52
Width: 932
Flags: W
LayerCount: 2
Fore
SplineSet
349 -231 m 1,0,-1
 481 185 l 1,1,-1
 161 154 l 1,2,-1
 211 261 l 1,3,-1
 490 229 l 1,4,-1
 567 616 l 1,5,-1
 247 586 l 1,6,-1
 297 693 l 1,7,-1
 575 661 l 1,8,-1
 608 1066 l 1,9,-1
 758 1093 l 1,10,-1
 620 661 l 1,11,-1
 940 693 l 1,12,-1
 889 586 l 1,13,-1
 611 616 l 1,14,-1
 535 229 l 1,15,-1
 855 261 l 1,16,-1
 804 154 l 1,17,-1
 525 185 l 1,18,-1
 499 -213 l 1,19,-1
 349 -231 l 1,0,-1
EndSplineSet
EndChar

StartChar: middot.001
Encoding: 8729 8729 53
Width: 620
Flags: W
LayerCount: 2
Fore
SplineSet
429 516 m 1,0,-1
 190 516 l 1,1,-1
 190 789 l 1,2,-1
 429 789 l 1,3,-1
 429 516 l 1,0,-1
EndSplineSet
EndChar

StartChar: quotesinglbase
Encoding: 8218 8218 54
Width: 418
Flags: W
LayerCount: 2
Fore
SplineSet
103 128 m 1,0,-1
 247 231 l 1,1,-1
 353 90 l 1,2,3
 345 -56 345 -56 262.5 -134.5 c 128,-1,4
 180 -213 180 -213 36 -213 c 1,5,-1
 76 -168 l 1,6,7
 189 -158 189 -158 211 -18 c 1,8,-1
 103 128 l 1,0,-1
EndSplineSet
EndChar

StartChar: quotedblbase
Encoding: 8222 8222 55
Width: 684
Flags: W
LayerCount: 2
Fore
SplineSet
91 92 m 1,0,-1
 204 178 l 1,1,-1
 292 64 l 1,2,3
 270 -213 270 -213 31 -213 c 1,4,-1
 60 -168 l 1,5,6
 166 -148 166 -148 179 -16 c 1,7,-1
 91 92 l 1,0,-1
401 92 m 1,8,-1
 516 178 l 1,9,-1
 602 64 l 1,10,11
 581 -213 581 -213 341 -213 c 1,12,-1
 372 -168 l 1,13,14
 476 -148 476 -148 490 -16 c 1,15,-1
 401 92 l 1,8,-1
EndSplineSet
EndChar

StartChar: perthousand
Encoding: 8240 8240 56
Width: 1571
Flags: W
LayerCount: 2
Fore
SplineSet
385 533 m 0,0,1
 304 533 304 533 254.5 584.5 c 128,-1,2
 205 636 205 636 205 722 c 0,3,4
 205 865 205 865 286.5 965.5 c 128,-1,5
 368 1066 368 1066 483 1066 c 0,6,7
 567 1066 567 1066 617.5 1014.5 c 128,-1,8
 668 963 668 963 668 877 c 0,9,10
 668 733 668 733 585.5 633 c 128,-1,11
 503 533 503 533 385 533 c 0,0,1
311 715 m 0,12,13
 311 578 311 578 398 578 c 0,14,15
 463 578 463 578 517 671.5 c 128,-1,16
 571 765 571 765 571 881 c 0,17,18
 571 1022 571 1022 483 1022 c 0,19,20
 416 1022 416 1022 363.5 928 c 128,-1,21
 311 834 311 834 311 715 c 0,12,13
850 0 m 0,22,23
 769 0 769 0 719.5 51.5 c 128,-1,24
 670 103 670 103 670 189 c 0,25,26
 670 331 670 331 751 432 c 128,-1,27
 832 533 832 533 947 533 c 0,28,29
 1031 533 1031 533 1081.5 481.5 c 128,-1,30
 1132 430 1132 430 1132 344 c 0,31,32
 1132 200 1132 200 1049.5 100 c 128,-1,33
 967 0 967 0 850 0 c 0,22,23
776 182 m 0,34,35
 776 44 776 44 862 44 c 0,36,37
 929 44 929 44 982 138 c 128,-1,38
 1035 232 1035 232 1035 348 c 0,39,40
 1035 490 1035 490 948 490 c 0,41,42
 880 490 880 490 828 395.5 c 128,-1,43
 776 301 776 301 776 182 c 0,34,35
131 -27 m 1,44,-1
 1111 1093 l 1,45,-1
 1206 1093 l 1,46,-1
 225 -27 l 1,47,-1
 131 -27 l 1,44,-1
1376 0 m 0,48,49
 1294 0 1294 0 1244.5 51.5 c 128,-1,50
 1195 103 1195 103 1195 189 c 0,51,52
 1195 331 1195 331 1276.5 432 c 128,-1,53
 1358 533 1358 533 1473 533 c 0,54,55
 1557 533 1557 533 1607.5 481.5 c 128,-1,56
 1658 430 1658 430 1658 344 c 0,57,58
 1658 200 1658 200 1575.5 100 c 128,-1,59
 1493 0 1493 0 1376 0 c 0,48,49
1301 183 m 0,60,61
 1301 44 1301 44 1389 44 c 0,62,63
 1453 44 1453 44 1507 138 c 128,-1,64
 1561 232 1561 232 1561 347 c 0,65,66
 1561 490 1561 490 1473 490 c 0,67,68
 1406 490 1406 490 1353.5 395.5 c 128,-1,69
 1301 301 1301 301 1301 183 c 0,60,61
EndSplineSet
EndChar

StartChar: multiply
Encoding: 215 215 60
Width: 631
Flags: W
LayerCount: 2
Fore
SplineSet
541 18 m 1,0,-1
 367 193 l 1,1,-1
 197 23 l 1,2,-1
 100 119 l 1,3,-1
 270 289 l 1,4,-1
 98 461 l 1,5,-1
 195 557 l 1,6,-1
 367 385 l 1,7,-1
 535 551 l 1,8,-1
 631 455 l 1,9,-1
 463 289 l 1,10,-1
 637 115 l 1,11,-1
 541 18 l 1,0,-1
EndSplineSet
EndChar

StartChar: macron
Encoding: 175 175 61
Width: 1118
Flags: W
LayerCount: 2
Fore
SplineSet
1134 1259 m 1,0,-1
 -16 1259 l 1,1,-1
 -16 1389 l 1,2,-1
 1134 1389 l 1,3,-1
 1134 1259 l 1,0,-1
EndSplineSet
EndChar

StartChar: periodcentered
Encoding: 183 183 62
Width: 724
Flags: W
LayerCount: 2
Fore
SplineSet
482 832 m 1,0,-1
 243 832 l 1,1,-1
 243 1117 l 1,2,-1
 482 1117 l 1,3,-1
 482 832 l 1,0,-1
EndSplineSet
EndChar

StartChar: H22073
Encoding: 9633 9633 63
Width: 1237
Flags: W
LayerCount: 2
Fore
SplineSet
146 944 m 1,0,-1
 1090 944 l 1,1,-1
 1090 0 l 1,2,-1
 146 0 l 1,3,-1
 146 944 l 1,0,-1
222 868 m 1,4,-1
 222 76 l 1,5,-1
 1014 76 l 1,6,-1
 1014 868 l 1,7,-1
 222 868 l 1,4,-1
EndSplineSet
EndChar

StartChar: H18543
Encoding: 9642 9642 64
Width: 1089
Flags: W
LayerCount: 2
Fore
SplineSet
886 894 m 1,0,-1
 886 200 l 1,1,-1
 192 200 l 1,2,-1
 192 894 l 1,3,-1
 886 894 l 1,0,-1
EndSplineSet
EndChar

StartChar: H18551
Encoding: 9643 9643 65
Width: 1089
Flags: W
LayerCount: 2
Fore
SplineSet
888 930 m 1,0,-1
 888 235 l 1,1,-1
 193 235 l 1,2,-1
 193 930 l 1,3,-1
 888 930 l 1,0,-1
774 816 m 1,4,-1
 307 816 l 1,5,-1
 307 349 l 1,6,-1
 774 349 l 1,7,-1
 774 816 l 1,4,-1
EndSplineSet
EndChar

StartChar: H18533
Encoding: 9679 9679 66
Width: 1339
Flags: W
LayerCount: 2
Fore
SplineSet
204 775 m 0,0,1
 204 976 204 976 345 1117 c 128,-1,2
 486 1258 486 1258 685 1258 c 0,3,4
 885 1258 885 1258 1026 1117 c 128,-1,5
 1167 976 1167 976 1167 775 c 0,6,7
 1167 577 1167 577 1026 436 c 128,-1,8
 885 295 885 295 685 295 c 0,9,10
 486 295 486 295 345 436 c 128,-1,11
 204 577 204 577 204 775 c 0,0,1
EndSplineSet
EndChar

StartChar: openbullet
Encoding: 9702 9702 67
Width: 1089
Flags: W
LayerCount: 2
Fore
SplineSet
544 1392 m 0,0,1
 700 1392 700 1392 810.5 1281.5 c 128,-1,2
 921 1171 921 1171 921 1015 c 256,3,4
 921 859 921 859 810.5 749 c 128,-1,5
 700 639 700 639 544 639 c 256,6,7
 388 639 388 639 278 749 c 128,-1,8
 168 859 168 859 168 1015 c 256,9,10
 168 1171 168 1171 277.5 1281.5 c 128,-1,11
 387 1392 387 1392 544 1392 c 0,0,1
544 1278 m 0,12,13
 435 1278 435 1278 358.5 1200.5 c 128,-1,14
 282 1123 282 1123 282 1015 c 0,15,16
 282 906 282 906 359 829.5 c 128,-1,17
 436 753 436 753 544 753 c 256,18,19
 652 753 652 753 729.5 829.5 c 128,-1,20
 807 906 807 906 807 1015 c 0,21,22
 807 1123 807 1123 730.5 1200.5 c 128,-1,23
 654 1278 654 1278 544 1278 c 0,12,13
EndSplineSet
EndChar

StartChar: uniFFFC
Encoding: 65532 65532 68
Width: 2048
Flags: W
LayerCount: 2
Fore
SplineSet
2048 1150 m 1,0,-1
 1948 1150 l 1,1,-1
 1948 1373 l 1,2,-1
 1725 1373 l 1,3,-1
 1725 1473 l 1,4,-1
 2048 1473 l 1,5,-1
 2048 1150 l 1,0,-1
1473 1373 m 1,6,-1
 1150 1373 l 1,7,-1
 1150 1473 l 1,8,-1
 1473 1473 l 1,9,-1
 1473 1373 l 1,6,-1
2048 575 m 1,10,-1
 1948 575 l 1,11,-1
 1948 898 l 1,12,-1
 2048 898 l 1,13,-1
 2048 575 l 1,10,-1
1782 611 m 2,14,15
 1782 370 1782 370 1571 370 c 0,16,17
 1485 370 1485 370 1433 415 c 1,18,-1
 1506 494 l 1,19,20
 1531 468 1531 468 1571 468 c 0,21,22
 1666 468 1666 468 1666 606 c 2,23,-1
 1666 1090 l 1,24,-1
 1782 1090 l 1,25,-1
 1782 611 l 2,14,15
898 1373 m 1,26,-1
 575 1373 l 1,27,-1
 575 1473 l 1,28,-1
 898 1473 l 1,29,-1
 898 1373 l 1,26,-1
2048 0 m 1,30,-1
 1725 0 l 1,31,-1
 1725 100 l 1,32,-1
 1948 100 l 1,33,-1
 1948 323 l 1,34,-1
 2048 323 l 1,35,-1
 2048 0 l 1,30,-1
1423 591 m 0,36,37
 1423 382 1423 382 1149 382 c 2,38,-1
 909 382 l 1,39,-1
 909 1090 l 1,40,-1
 1144 1090 l 2,41,42
 1393 1090 1393 1090 1393 904 c 0,43,44
 1393 813 1393 813 1304 759 c 1,45,46
 1423 713 1423 713 1423 591 c 0,36,37
323 1373 m 1,47,-1
 100 1373 l 1,48,-1
 100 1150 l 1,49,-1
 0 1150 l 1,50,-1
 0 1473 l 1,51,-1
 323 1473 l 1,52,-1
 323 1373 l 1,47,-1
1473 0 m 1,53,-1
 1150 0 l 1,54,-1
 1150 100 l 1,55,-1
 1473 100 l 1,56,-1
 1473 0 l 1,53,-1
854 735 m 0,57,58
 854 562 854 562 772 466 c 128,-1,59
 690 370 690 370 537 370 c 256,60,61
 384 370 384 370 303.5 466 c 128,-1,62
 223 562 223 562 223 735 c 0,63,64
 223 910 223 910 303.5 1006 c 128,-1,65
 384 1102 384 1102 537 1102 c 256,66,67
 690 1102 690 1102 772 1006 c 128,-1,68
 854 910 854 910 854 735 c 0,57,58
100 575 m 1,69,-1
 0 575 l 1,70,-1
 0 898 l 1,71,-1
 100 898 l 1,72,-1
 100 575 l 1,69,-1
898 0 m 1,73,-1
 575 0 l 1,74,-1
 575 100 l 1,75,-1
 898 100 l 1,76,-1
 898 0 l 1,73,-1
323 0 m 1,77,-1
 0 0 l 1,78,-1
 0 323 l 1,79,-1
 100 323 l 1,80,-1
 100 100 l 1,81,-1
 323 100 l 1,82,-1
 323 0 l 1,77,-1
1277 893 m 0,83,84
 1277 992 1277 992 1114 992 c 2,85,-1
 1025 992 l 1,86,-1
 1025 798 l 1,87,-1
 1126 798 l 2,88,89
 1277 798 1277 798 1277 893 c 0,83,84
1307 591 m 0,90,91
 1307 700 1307 700 1136 700 c 2,92,-1
 1025 700 l 1,93,-1
 1025 480 l 1,94,-1
 1149 480 l 2,95,96
 1307 480 1307 480 1307 591 c 0,90,91
738 735 m 0,97,98
 738 1004 738 1004 537 1004 c 0,99,100
 339 1004 339 1004 339 735 c 0,101,102
 339 468 339 468 537 468 c 0,103,104
 738 468 738 468 738 735 c 0,97,98
EndSplineSet
EndChar

StartChar: zerowidthnonjoiner
Encoding: 8204 8204 88
Width: 0
GlyphClass: 2
Flags: W
LayerCount: 2
Fore
SplineSet
36 1289 m 1,0,-1
 36 -275 l 1,1,-1
 -36 -275 l 1,2,-1
 -36 1289 l 1,3,-1
 36 1289 l 1,0,-1
EndSplineSet
EndChar

StartChar: zerowidthjoiner
Encoding: 8205 8205 89
Width: 0
GlyphClass: 2
Flags: W
LayerCount: 2
Fore
SplineSet
36 -275 m 1,0,-1
 -36 -275 l 1,1,-1
 -36 1114 l 1,2,-1
 -170 978 l 1,3,-1
 -219 1027 l 1,4,-1
 -48 1196 l 1,5,-1
 -219 1364 l 1,6,-1
 -170 1413 l 1,7,-1
 0 1242 l 1,8,-1
 170 1413 l 1,9,-1
 219 1364 l 1,10,-1
 48 1196 l 1,11,-1
 219 1027 l 1,12,-1
 170 978 l 1,13,-1
 36 1114 l 1,14,-1
 36 -275 l 1,0,-1
EndSplineSet
EndChar

StartChar: lefttorightmark
Encoding: 8206 8206 90
Width: 0
GlyphClass: 2
Flags: W
LayerCount: 2
Fore
SplineSet
430 1198 m 1,0,-1
 213 984 l 1,1,-1
 164 1033 l 1,2,-1
 301 1163 l 1,3,-1
 35 1163 l 1,4,-1
 35 -275 l 1,5,-1
 -36 -275 l 1,6,-1
 -36 1234 l 1,7,-1
 301 1234 l 1,8,-1
 164 1364 l 1,9,-1
 213 1413 l 1,10,-1
 430 1198 l 1,0,-1
EndSplineSet
EndChar

StartChar: righttoleftmark
Encoding: 8207 8207 91
Width: 0
GlyphClass: 2
Flags: W
LayerCount: 2
Fore
SplineSet
35 -275 m 1,0,-1
 -36 -275 l 1,1,-1
 -36 1163 l 1,2,-1
 -302 1163 l 1,3,-1
 -165 1033 l 1,4,-1
 -214 984 l 1,5,-1
 -431 1198 l 1,6,-1
 -214 1413 l 1,7,-1
 -165 1364 l 1,8,-1
 -302 1234 l 1,9,-1
 35 1234 l 1,10,-1
 35 -275 l 1,0,-1
EndSplineSet
EndChar

StartChar: afii57388.001
Encoding: 1644 1644 92
Width: 353
GlyphClass: 2
Flags: W
LayerCount: 2
Fore
SplineSet
210 654 m 0,0,1
 200 627 200 627 185 603 c 0,2,3
 180 597 180 597 173.5 593.5 c 128,-1,4
 167 590 167 590 162 590 c 128,-1,5
 157 590 157 590 154.5 593 c 128,-1,6
 152 596 152 596 155 603 c 0,7,8
 187 660 187 660 202.5 713.5 c 128,-1,9
 218 767 218 767 218 800 c 1,10,11
 194 806 194 806 179 816 c 128,-1,12
 164 826 164 826 155 837.5 c 128,-1,13
 146 849 146 849 143 859 c 128,-1,14
 140 869 140 869 140 874 c 0,15,16
 140 890 140 890 145.5 907 c 128,-1,17
 151 924 151 924 160.5 937.5 c 128,-1,18
 170 951 170 951 183.5 959.5 c 128,-1,19
 197 968 197 968 213 968 c 0,20,21
 272 968 272 968 272 874 c 0,22,23
 272 859 272 859 268 835 c 128,-1,24
 264 811 264 811 256 781.5 c 128,-1,25
 248 752 248 752 236.5 719.5 c 128,-1,26
 225 687 225 687 210 654 c 0,0,1
EndSplineSet
EndChar

StartChar: afii57409
Encoding: 1569 1569 93
Width: 303
GlyphClass: 2
Flags: W
AnchorPoint: "Anchor-1" 225 -195 basechar 0
AnchorPoint: "Anchor-0" 225 540 basechar 0
LayerCount: 2
Fore
SplineSet
96 0 m 1,0,-1
 96 80 l 1,1,-1
 152 80 l 1,2,3
 138 102 138 102 131.5 125 c 128,-1,4
 125 148 125 148 125 174 c 0,5,6
 125 213 125 213 138 245.5 c 128,-1,7
 151 278 151 278 175 301.5 c 128,-1,8
 199 325 199 325 231.5 337.5 c 128,-1,9
 264 350 264 350 303 350 c 1,10,-1
 303 285 l 1,11,12
 282 285 282 285 263 276.5 c 128,-1,13
 244 268 244 268 230.5 254 c 128,-1,14
 217 240 217 240 209 221 c 128,-1,15
 201 202 201 202 201 180 c 0,16,17
 201 96 201 96 303 78 c 1,18,-1
 303 0 l 1,19,-1
 96 0 l 1,0,-1
EndSplineSet
EndChar

StartChar: afii57440
Encoding: 1600 1600 94
Width: 295
GlyphClass: 2
Flags: W
LayerCount: 2
Fore
SplineSet
-10 0 m 1,0,-1
 -10 147 l 1,1,-1
 305 147 l 1,2,-1
 305 0 l 1,3,-1
 -10 0 l 1,0,-1
EndSplineSet
EndChar

StartChar: afii57453
Encoding: 1613 1613 95
Width: 0
GlyphClass: 4
Flags: W
AnchorPoint: "Anchor-3" 0 0 mark 0
AnchorPoint: "Anchor-1" 0 0 mark 0
LayerCount: 2
Fore
SplineSet
-137 0 m 1,0,-1
 -137 56 l 1,1,-1
 134 56 l 1,2,-1
 134 0 l 1,3,-1
 -137 0 l 1,0,-1
-137 -100 m 1,4,-1
 -137 -45 l 1,5,-1
 134 -45 l 1,6,-1
 134 -100 l 1,7,-1
 -137 -100 l 1,4,-1
EndSplineSet
EndChar

StartChar: afii57381
Encoding: 1642 1642 96
Width: 666
GlyphClass: 2
Flags: W
LayerCount: 2
Fore
SplineSet
334 1008 m 0,0,1
 334 977 334 977 312 955.5 c 128,-1,2
 290 934 290 934 258 934 c 0,3,4
 227 934 227 934 205.5 955.5 c 128,-1,5
 184 977 184 977 184 1008 c 0,6,7
 184 1079 184 1079 258 1079 c 0,8,9
 334 1079 334 1079 334 1008 c 0,0,1
205 -31 m 1,10,-1
 105 8 l 1,11,-1
 500 1096 l 1,12,-1
 602 1061 l 1,13,-1
 205 -31 l 1,10,-1
477 68 m 256,14,15
 477 37 477 37 456 15.5 c 128,-1,16
 435 -6 435 -6 404 -6 c 256,17,18
 373 -6 373 -6 351.5 15.5 c 128,-1,19
 330 37 330 37 330 68 c 256,20,21
 330 99 330 99 351.5 120 c 128,-1,22
 373 141 373 141 404 141 c 256,23,24
 435 141 435 141 456 120 c 128,-1,25
 477 99 477 99 477 68 c 256,14,15
EndSplineSet
EndChar

StartChar: afii57461
Encoding: 1643 1643 97
Width: 536
GlyphClass: 2
Flags: W
LayerCount: 2
Fore
SplineSet
518 521 m 1,0,-1
 115 -382 l 1,1,-1
 19 -352 l 1,2,-1
 425 551 l 1,3,-1
 518 521 l 1,0,-1
EndSplineSet
EndChar

StartChar: afii63167
Encoding: 1645 1645 98
Width: 1118
GlyphClass: 2
Flags: W
LayerCount: 2
Fore
SplineSet
694 729 m 1,0,-1
 1057 733 l 1,1,-1
 1057 610 l 1,2,-1
 702 612 l 1,3,-1
 971 352 l 1,4,-1
 883 264 l 1,5,-1
 616 539 l 1,6,-1
 623 168 l 1,7,-1
 498 168 l 1,8,-1
 502 539 l 1,9,-1
 236 264 l 1,10,-1
 147 352 l 1,11,-1
 422 614 l 1,12,-1
 63 610 l 1,13,-1
 63 733 l 1,14,-1
 420 729 l 1,15,-1
 170 975 l 1,16,-1
 258 1065 l 1,17,-1
 502 817 l 1,18,-1
 498 1176 l 1,19,-1
 623 1176 l 1,20,-1
 616 813 l 1,21,-1
 860 1065 l 1,22,-1
 948 975 l 1,23,-1
 694 729 l 1,0,-1
EndSplineSet
EndChar

StartChar: afii57459
Encoding: 65543 -1 99
Width: 938
GlyphClass: 2
Flags: W
LayerCount: 2
Fore
SplineSet
938 444 m 0,0,1
 938 269 938 269 825 141 c 0,2,3
 699 0 699 0 496 0 c 2,4,-1
 -10 0 l 1,5,-1
 -10 147 l 1,6,-1
 168 147 l 1,7,8
 55 269 55 269 55 442 c 0,9,10
 55 627 55 627 182 754 c 0,11,12
 311 883 311 883 496 883 c 0,13,14
 679 883 679 883 809 756 c 0,15,16
 938 630 938 630 938 444 c 0,0,1
791 442 m 0,17,18
 789 504 789 504 767.5 556 c 128,-1,19
 746 608 746 608 702 651 c 0,20,21
 620 737 620 737 496 737 c 256,22,23
 372 737 372 737 287 651 c 0,24,25
 204 567 204 567 201 442 c 0,26,27
 201 318 201 318 285 231 c 0,28,29
 368 145 368 145 496 145 c 0,30,31
 617 145 617 145 705 231 c 0,32,33
 748 276 748 276 769.5 328 c 128,-1,34
 791 380 791 380 791 442 c 0,17,18
EndSplineSet
EndChar

StartChar: afii57543
Encoding: 65544 -1 100
Width: 365
Flags: W
LayerCount: 2
Fore
SplineSet
309 0 m 2,0,1
 233 0 233 0 182 45 c 1,2,3
 138 0 138 0 63 0 c 2,4,-1
 -10 0 l 1,5,-1
 -10 147 l 1,6,-1
 63 147 l 2,7,8
 111 147 111 147 111 195 c 2,9,-1
 111 883 l 1,10,-1
 262 883 l 1,11,-1
 262 195 l 2,12,13
 262 147 262 147 309 147 c 2,14,-1
 383 147 l 1,15,-1
 383 0 l 1,16,-1
 309 0 l 2,0,1
EndSplineSet
EndChar

StartChar: afii57534
Encoding: 1749 1749 101
Width: 492
GlyphClass: 2
Flags: W
LayerCount: 2
Fore
SplineSet
492 199 m 2,0,1
 492 121 492 121 430 59 c 0,2,3
 371 0 371 0 293 0 c 0,4,5
 252 0 252 0 216 15.5 c 128,-1,6
 180 31 180 31 153 57.5 c 128,-1,7
 126 84 126 84 110 120 c 128,-1,8
 94 156 94 156 94 197 c 2,9,-1
 94 684 l 2,10,11
 94 726 94 726 109 762.5 c 128,-1,12
 124 799 124 799 151 826 c 128,-1,13
 178 853 178 853 214.5 868 c 128,-1,14
 251 883 251 883 293 883 c 0,15,16
 333 883 333 883 369 868 c 128,-1,17
 405 853 405 853 432.5 826.5 c 128,-1,18
 460 800 460 800 476 765 c 128,-1,19
 492 730 492 730 492 690 c 2,20,-1
 492 199 l 2,0,1
342 670 m 2,21,22
 342 725 342 725 293 725 c 0,23,24
 246 725 246 725 246 670 c 2,25,-1
 246 207 l 2,26,27
 246 147 246 147 293 147 c 0,28,29
 342 147 342 147 342 205 c 2,30,-1
 342 670 l 2,21,22
EndSplineSet
EndChar

StartChar: afii64240
Encoding: 65546 -1 103
Width: 184
Flags: W
LayerCount: 2
Fore
SplineSet
168 78 m 0,0,1
 168 48 168 48 146 24.5 c 128,-1,2
 124 1 124 1 92 1 c 0,3,4
 61 1 61 1 39.5 24.5 c 128,-1,5
 18 48 18 48 18 78 c 0,6,7
 18 109 18 109 39.5 132.5 c 128,-1,8
 61 156 61 156 92 156 c 0,9,10
 124 156 124 156 146 133.5 c 128,-1,11
 168 111 168 111 168 78 c 0,0,1
EndSplineSet
EndChar

StartChar: afii64241
Encoding: 65547 -1 104
Width: 372
Flags: W
LayerCount: 2
Fore
SplineSet
340 71 m 256,0,1
 340 42 340 42 318.5 20.5 c 128,-1,2
 297 -1 297 -1 268 -1 c 256,3,4
 239 -1 239 -1 218.5 20.5 c 128,-1,5
 198 42 198 42 198 71 c 256,6,7
 198 100 198 100 218.5 120 c 128,-1,8
 239 140 239 140 268 140 c 256,9,10
 297 140 297 140 318.5 120 c 128,-1,11
 340 100 340 100 340 71 c 256,0,1
168 71 m 256,12,13
 168 42 168 42 146.5 20.5 c 128,-1,14
 125 -1 125 -1 96 -1 c 256,15,16
 67 -1 67 -1 46.5 20.5 c 128,-1,17
 26 42 26 42 26 71 c 256,18,19
 26 100 26 100 46.5 120 c 128,-1,20
 67 140 67 140 96 140 c 256,21,22
 125 140 125 140 146.5 120 c 128,-1,23
 168 100 168 100 168 71 c 256,12,13
EndSplineSet
EndChar

StartChar: afii63954
Encoding: 65548 -1 105
Width: 408
Flags: W
LayerCount: 2
Fore
SplineSet
263 213 m 0,0,1
 263 184 263 184 242.5 163.5 c 128,-1,2
 222 143 222 143 193 143 c 0,3,4
 178 143 178 143 165 149 c 128,-1,5
 152 155 152 155 142.5 165 c 128,-1,6
 133 175 133 175 127 187.5 c 128,-1,7
 121 200 121 200 121 213 c 0,8,9
 121 244 121 244 141.5 264.5 c 128,-1,10
 162 285 162 285 193 285 c 0,11,12
 222 285 222 285 242.5 264.5 c 128,-1,13
 263 244 263 244 263 213 c 0,0,1
353 74 m 0,14,15
 353 43 353 43 331.5 22.5 c 128,-1,16
 310 2 310 2 281 2 c 256,17,18
 252 2 252 2 231.5 23.5 c 128,-1,19
 211 45 211 45 211 74 c 256,20,21
 211 103 211 103 231.5 123 c 128,-1,22
 252 143 252 143 281 143 c 256,23,24
 310 143 310 143 331.5 123 c 128,-1,25
 353 103 353 103 353 74 c 0,14,15
181 74 m 0,26,27
 181 43 181 43 159.5 22.5 c 128,-1,28
 138 2 138 2 109 2 c 256,29,30
 80 2 80 2 59.5 23.5 c 128,-1,31
 39 45 39 45 39 74 c 256,32,33
 39 103 39 103 59.5 123 c 128,-1,34
 80 143 80 143 109 143 c 256,35,36
 138 143 138 143 159.5 123 c 128,-1,37
 181 103 181 103 181 74 c 0,26,27
EndSplineSet
EndChar

StartChar: afii57382
Encoding: 65549 -1 106
Width: 413
Flags: W
LayerCount: 2
Fore
SplineSet
346 -71 m 256,0,1
 346 -100 346 -100 325.5 -121.5 c 128,-1,2
 305 -143 305 -143 274 -143 c 0,3,4
 245 -143 245 -143 225 -121.5 c 128,-1,5
 205 -100 205 -100 205 -71 c 256,6,7
 205 -42 205 -42 226.5 -22 c 128,-1,8
 248 -2 248 -2 274 -2 c 0,9,10
 305 -2 305 -2 325.5 -22 c 128,-1,11
 346 -42 346 -42 346 -71 c 256,0,1
174 -71 m 256,12,13
 174 -100 174 -100 153.5 -121.5 c 128,-1,14
 133 -143 133 -143 102 -143 c 0,15,16
 73 -143 73 -143 53 -121.5 c 128,-1,17
 33 -100 33 -100 33 -71 c 256,18,19
 33 -42 33 -42 54.5 -22 c 128,-1,20
 76 -2 76 -2 102 -2 c 0,21,22
 133 -2 133 -2 153.5 -22 c 128,-1,23
 174 -42 174 -42 174 -71 c 256,12,13
258 -208 m 256,24,25
 258 -237 258 -237 237.5 -257.5 c 128,-1,26
 217 -278 217 -278 186 -278 c 0,27,28
 157 -278 157 -278 137 -257.5 c 128,-1,29
 117 -237 117 -237 117 -208 c 0,30,31
 117 -194 117 -194 123 -181.5 c 128,-1,32
 129 -169 129 -169 138.5 -159.5 c 128,-1,33
 148 -150 148 -150 160.5 -144.5 c 128,-1,34
 173 -139 173 -139 186 -139 c 0,35,36
 217 -139 217 -139 237.5 -159 c 128,-1,37
 258 -179 258 -179 258 -208 c 256,24,25
EndSplineSet
EndChar

StartChar: afii64242
Encoding: 65550 -1 107
Width: 199
Flags: W
LayerCount: 2
Fore
SplineSet
199 195 m 2,0,1
 199 155 199 155 183 119.5 c 128,-1,2
 167 84 167 84 140 57.5 c 128,-1,3
 113 31 113 31 77 15.5 c 128,-1,4
 41 0 41 0 0 0 c 2,5,-1
 -10 0 l 1,6,-1
 -10 147 l 1,7,-1
 0 147 l 2,8,9
 47 147 47 147 47 195 c 2,10,-1
 47 883 l 1,11,-1
 199 883 l 1,12,-1
 199 195 l 2,0,1
EndSplineSet
EndChar

StartChar: afii57373
Encoding: 65551 -1 112
Width: 454
Flags: W
LayerCount: 2
Fore
SplineSet
130 1130 m 1,0,-1
 130 1210 l 1,1,-1
 194 1210 l 1,2,3
 166 1252 166 1252 167.5 1292.5 c 128,-1,4
 169 1333 169 1333 191.5 1364 c 128,-1,5
 214 1395 214 1395 254.5 1412 c 128,-1,6
 295 1429 295 1429 345 1422 c 1,7,-1
 345 1352 l 1,8,9
 312 1358 312 1358 290 1349 c 128,-1,10
 268 1340 268 1340 256.5 1323 c 128,-1,11
 245 1306 245 1306 244.5 1285 c 128,-1,12
 244 1264 244 1264 255 1246 c 128,-1,13
 266 1228 266 1228 288.5 1217 c 128,-1,14
 311 1206 311 1206 345 1208 c 1,15,-1
 345 1130 l 1,16,-1
 130 1130 l 1,0,-1
EndSplineSet
EndChar

StartChar: afii57374
Encoding: 65552 -1 113
Width: 995
GlyphClass: 2
Flags: W
LayerCount: 2
Fore
SplineSet
612 0 m 2,0,1
 527 0 527 0 496 27 c 1,2,3
 460 0 460 0 377 0 c 2,4,-1
 -10 0 l 1,5,-1
 -10 147 l 1,6,-1
 168 147 l 1,7,8
 55 269 55 269 55 442 c 0,9,10
 55 627 55 627 182 754 c 0,11,12
 311 883 311 883 496 883 c 0,13,14
 679 883 679 883 809 756 c 0,15,16
 938 630 938 630 938 444 c 0,17,18
 938 270 938 270 815 147 c 1,19,-1
 1006 147 l 1,20,-1
 1006 0 l 1,21,-1
 612 0 l 2,0,1
791 442 m 0,22,23
 791 565 791 565 705 651 c 256,24,25
 619 737 619 737 496 737 c 0,26,27
 372 737 372 737 287 651 c 0,28,29
 204 567 204 567 201 442 c 0,30,31
 201 318 201 318 285 231 c 0,32,33
 368 145 368 145 496 145 c 0,34,35
 559 145 559 145 611 166.5 c 128,-1,36
 663 188 663 188 707 231 c 0,37,38
 750 275 750 275 771.5 327 c 128,-1,39
 793 379 793 379 791 442 c 0,22,23
EndSplineSet
EndChar

StartChar: afii57375
Encoding: 1619 1619 114
Width: 350
GlyphClass: 2
Flags: W
LayerCount: 2
Fore
SplineSet
362 1290 m 2,0,1
 362 1271 362 1271 354 1253.5 c 128,-1,2
 346 1236 346 1236 332.5 1223 c 128,-1,3
 319 1210 319 1210 301 1202 c 128,-1,4
 283 1194 283 1194 264 1194 c 0,5,6
 227 1194 227 1194 182 1239 c 0,7,8
 138 1284 138 1284 129 1284 c 0,9,10
 82 1284 82 1284 82 1237 c 2,11,-1
 82 1194 l 1,12,-1
 31 1194 l 1,13,-1
 31 1237 l 2,14,15
 31 1258 31 1258 39 1275.5 c 128,-1,16
 47 1293 47 1293 60.5 1306.5 c 128,-1,17
 74 1320 74 1320 92 1327.5 c 128,-1,18
 110 1335 110 1335 129 1335 c 0,19,20
 161 1335 161 1335 203 1290 c 0,21,22
 248 1245 248 1245 264 1245 c 0,23,24
 313 1245 313 1245 313 1290 c 2,25,-1
 313 1333 l 1,26,-1
 362 1333 l 1,27,-1
 362 1290 l 2,0,1
EndSplineSet
EndChar

StartChar: afii57391
Encoding: 59450 59450 115
Width: 1024
GlyphClass: 2
Flags: W
LayerCount: 2
Fore
SplineSet
1024 0 m 1,0,-1
 -70 0 l 1,1,-1
 -70 188 l 1,2,-1
 1024 188 l 1,3,-1
 1024 0 l 1,0,-1
EndSplineSet
EndChar

StartChar: afii57471
Encoding: 65553 -1 116
Width: 1255
Flags: W
LayerCount: 2
Fore
SplineSet
1196 0 m 2,0,1
 1161 0 1161 0 1129 11 c 128,-1,2
 1097 22 1097 22 1071 45 c 1,3,4
 1026 0 1026 0 952 0 c 2,5,-1
 293 0 l 2,6,7
 253 0 253 0 217 15.5 c 128,-1,8
 181 31 181 31 153.5 57.5 c 128,-1,9
 126 84 126 84 110 119.5 c 128,-1,10
 94 155 94 155 94 195 c 2,11,-1
 94 883 l 1,12,-1
 246 883 l 1,13,-1
 246 195 l 2,14,15
 246 147 246 147 293 147 c 2,16,-1
 952 147 l 2,17,18
 999 147 999 147 999 195 c 2,19,-1
 999 883 l 1,20,-1
 1151 883 l 1,21,-1
 1151 195 l 2,22,23
 1151 147 1151 147 1196 147 c 2,24,-1
 1268 147 l 1,25,-1
 1268 0 l 1,26,-1
 1196 0 l 2,0,1
EndSplineSet
EndChar

StartChar: afii52258
Encoding: 65554 -1 117
Width: 1495
GlyphClass: 2
Flags: W
LayerCount: 2
Fore
SplineSet
1130 0 m 2,0,1
 1045 0 1045 0 1014 27 c 1,2,3
 978 0 978 0 895 0 c 2,4,-1
 295 0 l 2,5,6
 196 0 196 0 143 68 c 0,7,8
 94 131 94 131 94 227 c 2,9,-1
 94 883 l 1,10,-1
 246 883 l 1,11,-1
 246 217 l 2,12,13
 246 147 246 147 303 147 c 2,14,-1
 666 147 l 1,15,16
 555 270 555 270 555 442 c 0,17,18
 555 627 555 627 682 754 c 0,19,20
 811 883 811 883 993 883 c 0,21,22
 1177 883 1177 883 1307 756 c 0,23,24
 1438 631 1438 631 1438 444 c 0,25,26
 1438 269 1438 269 1313 147 c 1,27,-1
 1503 147 l 1,28,-1
 1503 0 l 1,29,-1
 1130 0 l 2,0,1
1288 442 m 0,30,31
 1288 566 1288 566 1202 651 c 0,32,33
 1117 737 1117 737 993 737 c 0,34,35
 870 737 870 737 784 651 c 0,36,37
 701 565 701 565 698 442 c 0,38,39
 698 379 698 379 719 327 c 128,-1,40
 740 275 740 275 782 231 c 0,41,42
 866 145 866 145 993 145 c 0,43,44
 1118 145 1118 145 1204 231 c 0,45,46
 1291 318 1291 318 1288 442 c 0,30,31
EndSplineSet
EndChar

StartChar: afii62889
Encoding: 65555 -1 123
Width: 1012
Flags: W
LayerCount: 2
Fore
SplineSet
895 0 m 1,0,1
 763 -199 763 -199 530 -199 c 0,2,3
 348 -199 348 -199 221 -72 c 256,4,5
 94 55 94 55 94 236 c 2,6,-1
 94 883 l 1,7,-1
 242 883 l 1,8,-1
 242 236 l 2,9,10
 242 176 242 176 263 124.5 c 128,-1,11
 284 73 284 73 326 31 c 256,12,13
 368 -11 368 -11 419 -31 c 128,-1,14
 470 -51 470 -51 530 -51 c 0,15,16
 629 -51 629 -51 709 10 c 1,17,18
 631 27 631 27 570 66 c 128,-1,19
 509 105 509 105 463 168 c 0,20,21
 415 228 415 228 392 297 c 128,-1,22
 369 366 369 366 369 444 c 0,23,24
 369 631 369 631 500 756 c 0,25,26
 566 819 566 819 644.5 851 c 128,-1,27
 723 883 723 883 817 883 c 2,28,-1
 967 883 l 1,29,-1
 967 147 l 1,30,-1
 1022 147 l 1,31,-1
 1022 0 l 1,32,-1
 895 0 l 1,0,1
817 737 m 1,33,34
 693 737 693 737 604 651 c 0,35,36
 519 569 519 569 516 442 c 0,37,38
 516 323 516 323 598 238 c 0,39,40
 679 153 679 153 801 145 c 1,41,42
 809 170 809 170 813 197.5 c 128,-1,43
 817 225 817 225 817 256 c 2,44,-1
 817 737 l 1,33,34
EndSplineSet
EndChar

StartChar: afii62887
Encoding: 65556 -1 124
Width: 1151
Flags: W
LayerCount: 2
Fore
SplineSet
1151 195 m 2,0,1
 1151 155 1151 155 1135 119.5 c 128,-1,2
 1119 84 1119 84 1091.5 57.5 c 128,-1,3
 1064 31 1064 31 1028 15.5 c 128,-1,4
 992 0 992 0 952 0 c 2,5,-1
 293 0 l 2,6,7
 253 0 253 0 217 15.5 c 128,-1,8
 181 31 181 31 153.5 57.5 c 128,-1,9
 126 84 126 84 110 119.5 c 128,-1,10
 94 155 94 155 94 195 c 2,11,-1
 94 883 l 1,12,-1
 246 883 l 1,13,-1
 246 195 l 2,14,15
 246 147 246 147 293 147 c 2,16,-1
 952 147 l 2,17,18
 999 147 999 147 999 195 c 2,19,-1
 999 883 l 1,20,-1
 1151 883 l 1,21,-1
 1151 195 l 2,0,1
EndSplineSet
EndChar

StartChar: afii62888
Encoding: 1697 1697 125
Width: 1436
GlyphClass: 2
Flags: W
LayerCount: 2
Fore
SplineSet
1438 444 m 0,0,1
 1438 271 1438 271 1323 141 c 0,2,3
 1197 0 1197 0 993 0 c 2,4,-1
 295 0 l 2,5,6
 196 0 196 0 143 68 c 0,7,8
 94 131 94 131 94 227 c 2,9,-1
 94 883 l 1,10,-1
 246 883 l 1,11,-1
 246 217 l 2,12,13
 246 147 246 147 303 147 c 2,14,-1
 666 147 l 1,15,16
 555 270 555 270 555 442 c 0,17,18
 555 627 555 627 682 754 c 0,19,20
 811 883 811 883 993 883 c 0,21,22
 1177 883 1177 883 1307 756 c 0,23,24
 1438 631 1438 631 1438 444 c 0,0,1
1288 442 m 0,25,26
 1288 566 1288 566 1202 651 c 0,27,28
 1117 737 1117 737 993 737 c 0,29,30
 870 737 870 737 784 651 c 0,31,32
 701 565 701 565 698 442 c 0,33,34
 698 379 698 379 719 327 c 128,-1,35
 740 275 740 275 782 231 c 0,36,37
 866 145 866 145 993 145 c 0,38,39
 1118 145 1118 145 1204 231 c 0,40,41
 1291 318 1291 318 1288 442 c 0,25,26
EndSplineSet
Substitution2: "'medi' Medial Forms in Arabic lookup 3 subtable" afii57374
Substitution2: "'fina' Terminal Forms in Arabic lookup 2 subtable" afii52258
Substitution2: "'init' Initial Forms in Arabic lookup 1 subtable" afii57459
EndChar

StartChar: afii57567
Encoding: 1705 1705 132
Width: 1151
GlyphClass: 2
Flags: W
AnchorPoint: "Anchor-1" 525 -285 basechar 0
AnchorPoint: "Anchor-0" 450 1155 basechar 0
LayerCount: 2
Fore
SplineSet
614 944 m 1,0,-1
 614 1092 l 1,1,-1
 1151 1092 l 1,2,-1
 1151 944 l 1,3,-1
 614 944 l 1,0,-1
1149 440 m 0,4,5
 1149 252 1149 252 1024 127 c 0,6,7
 897 0 897 0 715 0 c 2,8,-1
 293 0 l 2,9,10
 253 0 253 0 217 15.5 c 128,-1,11
 181 31 181 31 153.5 57.5 c 128,-1,12
 126 84 126 84 110 119.5 c 128,-1,13
 94 155 94 155 94 195 c 2,14,-1
 94 883 l 1,15,-1
 246 883 l 1,16,-1
 246 195 l 2,17,18
 246 147 246 147 293 147 c 2,19,-1
 715 147 l 2,20,21
 834 147 834 147 918 233 c 0,22,23
 1001 321 1001 321 1001 440 c 0,24,25
 1001 561 1001 561 918 647 c 256,26,27
 835 733 835 733 715 733 c 2,28,-1
 614 733 l 1,29,-1
 614 883 l 1,30,-1
 715 883 l 2,31,32
 897 883 897 883 1022 752 c 0,33,34
 1149 622 1149 622 1149 440 c 0,4,5
EndSplineSet
Substitution2: "'medi' Medial Forms in Arabic lookup 3 subtable" afii52306
Substitution2: "'fina' Terminal Forms in Arabic lookup 2 subtable" afii62964
Substitution2: "'init' Initial Forms in Arabic lookup 1 subtable" afii52305
EndChar

StartChar: afii62964
Encoding: 64399 64399 133
Width: 1182
GlyphClass: 2
Flags: W
AnchorPoint: "Anchor-1" 465 -390 basechar 0
AnchorPoint: "Anchor-0" 450 1290 basechar 0
LayerCount: 2
Fore
SplineSet
614 944 m 1,0,-1
 614 1092 l 1,1,-1
 1151 1092 l 1,2,-1
 1151 944 l 1,3,-1
 614 944 l 1,0,-1
1096 0 m 2,4,5
 1039 0 1039 0 990 9.5 c 128,-1,6
 941 19 941 19 903 39 c 1,7,8
 863 19 863 19 816 9.5 c 128,-1,9
 769 0 769 0 715 0 c 2,10,-1
 293 0 l 2,11,12
 253 0 253 0 217 15.5 c 128,-1,13
 181 31 181 31 153.5 57.5 c 128,-1,14
 126 84 126 84 110 119.5 c 128,-1,15
 94 155 94 155 94 195 c 2,16,-1
 94 883 l 1,17,-1
 246 883 l 1,18,-1
 246 195 l 2,19,20
 246 147 246 147 293 147 c 2,21,-1
 715 147 l 2,22,23
 834 147 834 147 918 233 c 0,24,25
 1001 321 1001 321 1001 440 c 0,26,27
 1001 561 1001 561 918 647 c 256,28,29
 835 733 835 733 715 733 c 2,30,-1
 614 733 l 1,31,-1
 614 883 l 1,32,-1
 715 883 l 2,33,34
 897 883 897 883 1022 752 c 0,35,36
 1149 622 1149 622 1149 440 c 0,37,38
 1149 279 1149 279 1042 154 c 1,39,40
 1058 151 1058 151 1071.5 149 c 128,-1,41
 1085 147 1085 147 1096 147 c 2,42,-1
 1194 147 l 1,43,-1
 1194 0 l 1,44,-1
 1096 0 l 2,4,5
EndSplineSet
EndChar

StartChar: afii52305
Encoding: 64400 64400 134
Width: 575
GlyphClass: 2
Flags: W
AnchorPoint: "Anchor-1" 180 -315 basechar 0
AnchorPoint: "Anchor-0" 270 1230 basechar 0
LayerCount: 2
Fore
SplineSet
41 944 m 1,0,-1
 41 1092 l 1,1,-1
 575 1092 l 1,2,-1
 575 944 l 1,3,-1
 41 944 l 1,0,-1
575 440 m 0,4,5
 575 260 575 260 449 129 c 0,6,7
 323 0 323 0 139 0 c 2,8,-1
 -12 0 l 1,9,-1
 -12 147 l 1,10,-1
 139 147 l 2,11,12
 261 147 261 147 344 233 c 0,13,14
 428 322 428 322 428 440 c 0,15,16
 428 560 428 560 344 647 c 0,17,18
 302 691 302 691 250.5 712 c 128,-1,19
 199 733 199 733 139 733 c 2,20,-1
 41 733 l 1,21,-1
 41 881 l 1,22,-1
 139 881 l 2,23,24
 323 881 323 881 449 752 c 0,25,26
 575 621 575 621 575 440 c 0,4,5
EndSplineSet
EndChar

StartChar: afii52306
Encoding: 64401 64401 135
Width: 610
GlyphClass: 2
Flags: W
AnchorPoint: "Anchor-1" 300 -300 basechar 0
AnchorPoint: "Anchor-0" 210 1290 basechar 0
LayerCount: 2
Fore
SplineSet
39 944 m 1,0,-1
 39 1092 l 1,1,-1
 575 1092 l 1,2,-1
 575 944 l 1,3,-1
 39 944 l 1,0,-1
520 0 m 2,4,5
 463 0 463 0 415.5 9.5 c 128,-1,6
 368 19 368 19 330 39 c 1,7,8
 289 19 289 19 242 9.5 c 128,-1,9
 195 0 195 0 139 0 c 2,10,-1
 -12 0 l 1,11,-1
 -12 147 l 1,12,-1
 139 147 l 2,13,14
 259 147 259 147 342 233 c 0,15,16
 426 322 426 322 426 440 c 0,17,18
 426 560 426 560 342 647 c 0,19,20
 260 733 260 733 139 733 c 2,21,-1
 41 733 l 1,22,-1
 41 883 l 1,23,-1
 139 883 l 2,24,25
 230 883 230 883 308 850.5 c 128,-1,26
 386 818 386 818 449 752 c 0,27,28
 575 621 575 621 575 440 c 0,29,30
 575 359 575 359 549 288 c 128,-1,31
 523 217 523 217 469 154 c 1,32,33
 484 151 484 151 496.5 149 c 128,-1,34
 509 147 509 147 520 147 c 2,35,-1
 621 147 l 1,36,-1
 621 0 l 1,37,-1
 520 0 l 2,4,5
EndSplineSet
EndChar

StartChar: afii57509
Encoding: 1711 1711 136
Width: 1149
GlyphClass: 2
Flags: W
AnchorPoint: "Anchor-1" 585 -225 basechar 0
AnchorPoint: "Anchor-0" 390 1290 basechar 0
LayerCount: 2
Fore
SplineSet
612 1141 m 1,0,-1
 612 1196 l 1,1,-1
 1149 1196 l 1,2,-1
 1149 1141 l 1,3,-1
 612 1141 l 1,0,-1
614 944 m 1,4,-1
 614 1092 l 1,5,-1
 1151 1092 l 1,6,-1
 1151 944 l 1,7,-1
 614 944 l 1,4,-1
1149 440 m 0,8,9
 1149 252 1149 252 1024 127 c 0,10,11
 897 0 897 0 715 0 c 2,12,-1
 293 0 l 2,13,14
 253 0 253 0 217 15.5 c 128,-1,15
 181 31 181 31 153.5 57.5 c 128,-1,16
 126 84 126 84 110 119.5 c 128,-1,17
 94 155 94 155 94 195 c 2,18,-1
 94 883 l 1,19,-1
 246 883 l 1,20,-1
 246 195 l 2,21,22
 246 147 246 147 293 147 c 2,23,-1
 715 147 l 2,24,25
 834 147 834 147 918 233 c 0,26,27
 1001 321 1001 321 1001 440 c 0,28,29
 1001 561 1001 561 918 647 c 256,30,31
 835 733 835 733 715 733 c 2,32,-1
 614 733 l 1,33,-1
 614 883 l 1,34,-1
 715 883 l 2,35,36
 897 883 897 883 1022 752 c 0,37,38
 1149 622 1149 622 1149 440 c 0,8,9
EndSplineSet
Substitution2: "'medi' Medial Forms in Arabic lookup 3 subtable" afii62966
Substitution2: "'fina' Terminal Forms in Arabic lookup 2 subtable" afii62967
Substitution2: "'init' Initial Forms in Arabic lookup 1 subtable" afii62965
EndChar

StartChar: afii62967
Encoding: 64403 64403 137
Width: 1186
GlyphClass: 2
Flags: W
AnchorPoint: "Anchor-1" 600 -345 basechar 0
AnchorPoint: "Anchor-0" 435 1290 basechar 0
LayerCount: 2
Fore
SplineSet
612 1151 m 1,0,-1
 612 1206 l 1,1,-1
 1149 1206 l 1,2,-1
 1149 1151 l 1,3,-1
 612 1151 l 1,0,-1
614 944 m 1,4,-1
 614 1092 l 1,5,-1
 1151 1092 l 1,6,-1
 1151 944 l 1,7,-1
 614 944 l 1,4,-1
1096 0 m 2,8,9
 1039 0 1039 0 990 9.5 c 128,-1,10
 941 19 941 19 903 39 c 1,11,12
 863 19 863 19 816 9.5 c 128,-1,13
 769 0 769 0 715 0 c 2,14,-1
 293 0 l 2,15,16
 253 0 253 0 217 15.5 c 128,-1,17
 181 31 181 31 153.5 57.5 c 128,-1,18
 126 84 126 84 110 119.5 c 128,-1,19
 94 155 94 155 94 195 c 2,20,-1
 94 883 l 1,21,-1
 246 883 l 1,22,-1
 246 195 l 2,23,24
 246 147 246 147 293 147 c 2,25,-1
 715 147 l 2,26,27
 834 147 834 147 918 233 c 0,28,29
 1001 321 1001 321 1001 440 c 0,30,31
 1001 561 1001 561 918 647 c 256,32,33
 835 733 835 733 715 733 c 2,34,-1
 614 733 l 1,35,-1
 614 883 l 1,36,-1
 715 883 l 2,37,38
 897 883 897 883 1022 752 c 0,39,40
 1149 622 1149 622 1149 440 c 0,41,42
 1149 279 1149 279 1042 154 c 1,43,44
 1058 151 1058 151 1071.5 149 c 128,-1,45
 1085 147 1085 147 1096 147 c 2,46,-1
 1194 147 l 1,47,-1
 1194 0 l 1,48,-1
 1096 0 l 2,8,9
EndSplineSet
EndChar

StartChar: afii62965
Encoding: 64404 64404 138
Width: 578
GlyphClass: 2
Flags: W
AnchorPoint: "Anchor-1" 165 -330 basechar 0
AnchorPoint: "Anchor-0" 225 1455 basechar 0
LayerCount: 2
Fore
SplineSet
43 1151 m 1,0,-1
 43 1206 l 1,1,-1
 578 1206 l 1,2,-1
 578 1151 l 1,3,-1
 43 1151 l 1,0,-1
41 944 m 1,4,-1
 41 1092 l 1,5,-1
 575 1092 l 1,6,-1
 575 944 l 1,7,-1
 41 944 l 1,4,-1
575 440 m 0,8,9
 575 260 575 260 449 129 c 0,10,11
 323 0 323 0 139 0 c 2,12,-1
 -12 0 l 1,13,-1
 -12 147 l 1,14,-1
 139 147 l 2,15,16
 261 147 261 147 344 233 c 0,17,18
 428 322 428 322 428 440 c 0,19,20
 428 560 428 560 344 647 c 0,21,22
 302 691 302 691 250.5 712 c 128,-1,23
 199 733 199 733 139 733 c 2,24,-1
 41 733 l 1,25,-1
 41 881 l 1,26,-1
 139 881 l 2,27,28
 323 881 323 881 449 752 c 0,29,30
 575 621 575 621 575 440 c 0,8,9
EndSplineSet
EndChar

StartChar: afii62966
Encoding: 64405 64405 139
Width: 610
GlyphClass: 2
Flags: W
AnchorPoint: "Anchor-1" 270 -345 basechar 0
AnchorPoint: "Anchor-0" 255 1425 basechar 0
LayerCount: 2
Fore
SplineSet
43 1151 m 1,0,-1
 43 1206 l 1,1,-1
 578 1206 l 1,2,-1
 578 1151 l 1,3,-1
 43 1151 l 1,0,-1
39 944 m 1,4,-1
 39 1092 l 1,5,-1
 575 1092 l 1,6,-1
 575 944 l 1,7,-1
 39 944 l 1,4,-1
520 0 m 2,8,9
 463 0 463 0 415.5 9.5 c 128,-1,10
 368 19 368 19 330 39 c 1,11,12
 289 19 289 19 242 9.5 c 128,-1,13
 195 0 195 0 139 0 c 2,14,-1
 -12 0 l 1,15,-1
 -12 147 l 1,16,-1
 139 147 l 2,17,18
 259 147 259 147 342 233 c 0,19,20
 426 322 426 322 426 440 c 0,21,22
 426 560 426 560 342 647 c 0,23,24
 260 733 260 733 139 733 c 2,25,-1
 41 733 l 1,26,-1
 41 883 l 1,27,-1
 139 883 l 2,28,29
 230 883 230 883 308 850.5 c 128,-1,30
 386 818 386 818 449 752 c 0,31,32
 575 621 575 621 575 440 c 0,33,34
 575 359 575 359 549 288 c 128,-1,35
 523 217 523 217 469 154 c 1,36,37
 484 151 484 151 496.5 149 c 128,-1,38
 509 147 509 147 520 147 c 2,39,-1
 621 147 l 1,40,-1
 621 0 l 1,41,-1
 520 0 l 2,8,9
EndSplineSet
EndChar

StartChar: afii57555
Encoding: 1740 1740 140
Width: 958
GlyphClass: 2
Flags: W
AnchorPoint: "Anchor-1" 465 -450 basechar 0
AnchorPoint: "Anchor-0" 450 1095 basechar 0
LayerCount: 2
Fore
SplineSet
811 397 m 1,0,-1
 811 623 l 2,1,2
 811 642 811 642 804 660 c 128,-1,3
 797 678 797 678 784.5 691.5 c 128,-1,4
 772 705 772 705 755 713 c 128,-1,5
 738 721 738 721 719 721 c 256,6,7
 700 721 700 721 682 713 c 128,-1,8
 664 705 664 705 650.5 692 c 128,-1,9
 637 679 637 679 629 661.5 c 128,-1,10
 621 644 621 644 621 625 c 2,11,-1
 621 344 l 2,12,13
 621 293 621 293 674 293 c 2,14,-1
 725 293 l 2,15,16
 836 293 836 293 877 270 c 0,17,18
 954 225 954 225 954 141 c 0,19,20
 954 33 954 33 838 -78 c 1,21,22
 705 -199 705 -199 530 -199 c 0,23,24
 438 -199 438 -199 360 -168 c 128,-1,25
 282 -137 282 -137 219 -74 c 0,26,27
 94 51 94 51 94 236 c 2,28,-1
 94 883 l 1,29,-1
 246 883 l 1,30,-1
 246 236 l 2,31,32
 246 176 246 176 266 124.5 c 128,-1,33
 286 73 286 73 328 31 c 0,34,35
 409 -51 409 -51 530 -51 c 0,36,37
 595 -51 595 -51 648 -29.5 c 128,-1,38
 701 -8 701 -8 743 37 c 0,39,40
 803 100 803 100 803 129 c 0,41,42
 803 146 803 146 770 150 c 1,43,44
 795 148 795 148 784 147.5 c 128,-1,45
 773 147 773 147 725 147 c 2,46,-1
 682 147 l 2,47,48
 588 147 588 147 539 184 c 0,49,50
 507 210 507 210 490 260 c 128,-1,51
 473 310 473 310 473 385 c 2,52,-1
 473 637 l 2,53,54
 473 739 473 739 543 809 c 0,55,56
 615 881 615 881 717 881 c 0,57,58
 815 881 815 881 887 809 c 0,59,60
 958 738 958 738 958 637 c 2,61,-1
 958 397 l 1,62,-1
 811 397 l 1,0,-1
EndSplineSet
Substitution2: "'medi' Medial Forms in Arabic lookup 3 subtable" afii62832
Substitution2: "'fina' Terminal Forms in Arabic lookup 2 subtable" afii52364
Substitution2: "'init' Initial Forms in Arabic lookup 1 subtable" uniFBFE
EndChar

StartChar: afii52364
Encoding: 64509 64509 141
Width: 897
GlyphClass: 2
Flags: W
AnchorPoint: "Anchor-1" 465 -540 basechar 0
AnchorPoint: "Anchor-0" 390 975 basechar 0
LayerCount: 2
Fore
SplineSet
897 0 m 1,0,1
 768 -197 768 -197 528 -197 c 0,2,3
 346 -197 346 -197 219 -70 c 0,4,5
 156 -7 156 -7 125 71 c 128,-1,6
 94 149 94 149 94 240 c 2,7,-1
 94 883 l 1,8,-1
 246 883 l 1,9,-1
 246 240 l 2,10,11
 246 118 246 118 330 33 c 0,12,13
 412 -51 412 -51 532 -51 c 0,14,15
 628 -51 628 -51 696 2 c 1,16,17
 515 -4 515 -4 494 147 c 1,18,-1
 909 147 l 1,19,-1
 909 0 l 1,20,-1
 897 0 l 1,0,1
EndSplineSet
EndChar

StartChar: afii62945
Encoding: 65557 -1 147
Width: 1456
GlyphClass: 3
Flags: W
AnchorPoint: "Anchor-3" 1305 -330 baselig 0
AnchorPoint: "Anchor-2" 1425 990 baselig 0
AnchorPoint: "Anchor-3" 1035 -285 baselig 1
AnchorPoint: "Anchor-2" 1185 960 baselig 1
AnchorPoint: "Anchor-3" 450 -330 baselig 2
AnchorPoint: "Anchor-2" 480 1005 baselig 2
LayerCount: 2
Fore
SplineSet
1456 195 m 2,0,1
 1456 155 1456 155 1440 119.5 c 128,-1,2
 1424 84 1424 84 1397 57.5 c 128,-1,3
 1370 31 1370 31 1334 15.5 c 128,-1,4
 1298 0 1298 0 1257 0 c 0,5,6
 1177 0 1177 0 1133 43 c 1,7,8
 1081 0 1081 0 1014 0 c 0,9,10
 813 0 813 0 813 227 c 2,11,-1
 813 434 l 2,12,13
 813 547 813 547 729 637 c 256,14,15
 645 727 645 727 532 727 c 0,16,17
 409 727 409 727 326 641 c 0,18,19
 284 598 284 598 264 546 c 128,-1,20
 244 494 244 494 244 432 c 256,21,22
 244 370 244 370 264 319.5 c 128,-1,23
 284 269 284 269 326 227 c 0,24,25
 409 147 409 147 532 147 c 2,26,-1
 676 147 l 1,27,-1
 676 0 l 1,28,-1
 535 0 l 2,29,30
 351 0 351 0 221 127 c 1,31,32
 94 257 94 257 94 438 c 0,33,34
 94 622 94 622 221 752 c 0,35,36
 350 881 350 881 535 881 c 0,37,38
 686 881 686 881 813 778 c 1,39,-1
 813 883 l 1,40,-1
 965 883 l 1,41,-1
 965 205 l 2,42,43
 965 147 965 147 1014 147 c 0,44,45
 1061 147 1061 147 1061 199 c 2,46,-1
 1061 887 l 1,47,-1
 1210 887 l 1,48,-1
 1210 195 l 2,49,50
 1210 147 1210 147 1257 147 c 0,51,52
 1305 147 1305 147 1305 195 c 2,53,-1
 1305 887 l 1,54,-1
 1456 887 l 1,55,-1
 1456 195 l 2,0,1
EndSplineSet
EndChar

StartChar: afii64184
Encoding: 65010 65010 148
Width: 1456
GlyphClass: 3
Flags: W
AnchorPoint: "Anchor-3" 1410 -270 baselig 0
AnchorPoint: "Anchor-2" 1410 975 baselig 0
AnchorPoint: "Anchor-3" 1125 -285 baselig 1
AnchorPoint: "Anchor-2" 1155 960 baselig 1
AnchorPoint: "Anchor-3" 435 -375 baselig 2
AnchorPoint: "Anchor-2" 555 990 baselig 2
LayerCount: 2
Fore
SplineSet
1110 1165 m 1,0,-1
 1110 1356 l 1,1,-1
 1167 1356 l 1,2,-1
 1167 1165 l 1,3,-1
 1110 1165 l 1,0,-1
1288 1073 m 2,4,5
 1288 956 1288 956 1200 956 c 0,6,7
 1166 956 1166 956 1141 991 c 1,8,9
 1111 956 1111 956 1081 956 c 0,10,11
 993 956 993 956 993 1069 c 2,12,-1
 993 1133 l 1,13,-1
 1047 1133 l 1,14,-1
 1047 1069 l 2,15,16
 1047 1020 1047 1020 1079 1020 c 0,17,18
 1114 1020 1114 1020 1114 1069 c 2,19,-1
 1114 1110 l 1,20,-1
 1167 1110 l 1,21,-1
 1167 1069 l 2,22,23
 1167 1020 1167 1020 1200 1020 c 0,24,25
 1237 1020 1237 1020 1237 1071 c 2,26,-1
 1237 1133 l 1,27,-1
 1288 1133 l 1,28,-1
 1288 1073 l 2,4,5
1456 195 m 2,29,30
 1456 155 1456 155 1440 119.5 c 128,-1,31
 1424 84 1424 84 1397 57.5 c 128,-1,32
 1370 31 1370 31 1334 15.5 c 128,-1,33
 1298 0 1298 0 1257 0 c 0,34,35
 1177 0 1177 0 1133 43 c 1,36,37
 1081 0 1081 0 1014 0 c 0,38,39
 813 0 813 0 813 227 c 2,40,-1
 813 434 l 2,41,42
 813 547 813 547 729 637 c 256,43,44
 645 727 645 727 532 727 c 0,45,46
 409 727 409 727 326 641 c 0,47,48
 284 598 284 598 264 546 c 128,-1,49
 244 494 244 494 244 432 c 256,50,51
 244 370 244 370 264 319.5 c 128,-1,52
 284 269 284 269 326 227 c 0,53,54
 409 147 409 147 532 147 c 2,55,-1
 676 147 l 1,56,-1
 676 0 l 1,57,-1
 535 0 l 2,58,59
 351 0 351 0 221 127 c 1,60,61
 94 257 94 257 94 438 c 0,62,63
 94 622 94 622 221 752 c 0,64,65
 350 881 350 881 535 881 c 0,66,67
 686 881 686 881 813 778 c 1,68,-1
 813 883 l 1,69,-1
 965 883 l 1,70,-1
 965 205 l 2,71,72
 965 147 965 147 1014 147 c 0,73,74
 1061 147 1061 147 1061 199 c 2,75,-1
 1061 887 l 1,76,-1
 1210 887 l 1,77,-1
 1210 195 l 2,78,79
 1210 147 1210 147 1257 147 c 0,80,81
 1305 147 1305 147 1305 195 c 2,82,-1
 1305 887 l 1,83,-1
 1456 887 l 1,84,-1
 1456 195 l 2,29,30
EndSplineSet
Ligature2: "'rlig' Required Ligatures in Arabic lookup 6 subtable" afii62817 afii62818 uniFC63 afii62828
Ligature2: "'rlig' Required Ligatures in Arabic lookup 6 subtable" afii62817 afii62818 afii57457 uni0670 afii62828
EndChar

StartChar: afii57415.001
Encoding: 1575 1575 162
Width: 246
GlyphClass: 2
Flags: W
AnchorPoint: "Anchor-1" 150 -255 basechar 0
AnchorPoint: "Anchor-0" 165 1245 basechar 0
LayerCount: 2
Fore
SplineSet
94 0 m 1,0,-1
 94 1147 l 1,1,-1
 246 1147 l 1,2,-1
 246 0 l 1,3,-1
 94 0 l 1,0,-1
EndSplineSet
Substitution2: "'fina' Terminal Forms in Arabic lookup 2 subtable" afii62760
EndChar

StartChar: afii62760.001
Encoding: 65558 -1 163
Width: 293
GlyphClass: 2
Flags: W
LayerCount: 2
Fore
SplineSet
293 0 m 2,0,1
 253 0 253 0 217 15.5 c 128,-1,2
 181 31 181 31 153.5 57.5 c 128,-1,3
 126 84 126 84 110 119.5 c 128,-1,4
 94 155 94 155 94 195 c 2,5,-1
 94 1147 l 1,6,-1
 246 1147 l 1,7,-1
 246 195 l 2,8,9
 246 147 246 147 293 147 c 2,10,-1
 303 147 l 1,11,-1
 303 0 l 1,12,-1
 293 0 l 2,0,1
EndSplineSet
EndChar

StartChar: afii57421
Encoding: 1581 1581 182
Width: 588
GlyphClass: 2
Flags: W
AnchorPoint: "Anchor-1" 390 -585 basechar 0
AnchorPoint: "Anchor-0" 360 1065 basechar 0
LayerCount: 2
Fore
SplineSet
588 199 m 2,0,1
 588 159 588 159 573 123 c 128,-1,2
 558 87 558 87 531.5 59.5 c 128,-1,3
 505 32 505 32 470 16 c 128,-1,4
 435 0 435 0 395 0 c 2,5,-1
 340 0 l 2,6,7
 319 0 319 0 302 -8 c 128,-1,8
 285 -16 285 -16 272.5 -29 c 128,-1,9
 260 -42 260 -42 253 -59.5 c 128,-1,10
 246 -77 246 -77 246 -96 c 0,11,12
 246 -138 246 -138 273 -166.5 c 128,-1,13
 300 -195 300 -195 342 -195 c 2,14,-1
 395 -195 l 1,15,-1
 395 -344 l 1,16,-1
 340 -344 l 2,17,18
 238 -344 238 -344 166 -272 c 256,19,20
 94 -200 94 -200 94 -98 c 256,21,22
 94 4 94 4 166 76 c 0,23,24
 237 147 237 147 340 147 c 2,25,-1
 387 147 l 2,26,27
 436 147 436 147 436 195 c 2,28,-1
 436 666 l 2,29,30
 436 723 436 723 389 723 c 256,31,32
 342 723 342 723 342 666 c 2,33,-1
 342 195 l 1,34,-1
 190 195 l 1,35,-1
 190 682 l 2,36,37
 190 723 190 723 205.5 759 c 128,-1,38
 221 795 221 795 248 821.5 c 128,-1,39
 275 848 275 848 310.5 863.5 c 128,-1,40
 346 879 346 879 387 879 c 256,41,42
 428 879 428 879 464.5 864 c 128,-1,43
 501 849 501 849 528.5 822.5 c 128,-1,44
 556 796 556 796 572 761 c 128,-1,45
 588 726 588 726 588 686 c 2,46,-1
 588 199 l 2,0,1
EndSplineSet
Substitution2: "'medi' Medial Forms in Arabic lookup 3 subtable" afii62775
Substitution2: "'fina' Terminal Forms in Arabic lookup 2 subtable" afii62776
Substitution2: "'init' Initial Forms in Arabic lookup 1 subtable" afii62774
EndChar

StartChar: afii62776
Encoding: 65186 65186 183
Width: 635
GlyphClass: 2
Flags: W
AnchorPoint: "Anchor-1" 390 -630 basechar 0
AnchorPoint: "Anchor-0" 405 1050 basechar 0
LayerCount: 2
Fore
SplineSet
635 0 m 2,0,1
 563 0 563 0 512 45 c 1,2,3
 461 0 461 0 395 0 c 2,4,-1
 340 0 l 2,5,6
 319 0 319 0 302 -8 c 128,-1,7
 285 -16 285 -16 272.5 -29 c 128,-1,8
 260 -42 260 -42 253 -59.5 c 128,-1,9
 246 -77 246 -77 246 -96 c 0,10,11
 246 -138 246 -138 273 -166.5 c 128,-1,12
 300 -195 300 -195 342 -195 c 2,13,-1
 395 -195 l 1,14,-1
 395 -344 l 1,15,-1
 340 -344 l 2,16,17
 238 -344 238 -344 166 -272 c 256,18,19
 94 -200 94 -200 94 -98 c 256,20,21
 94 4 94 4 166 76 c 0,22,23
 237 147 237 147 340 147 c 2,24,-1
 387 147 l 2,25,26
 436 147 436 147 436 195 c 2,27,-1
 436 666 l 2,28,29
 436 723 436 723 389 723 c 256,30,31
 342 723 342 723 342 666 c 2,32,-1
 342 195 l 1,33,-1
 190 195 l 1,34,-1
 190 682 l 2,35,36
 190 723 190 723 205.5 759 c 128,-1,37
 221 795 221 795 248 821.5 c 128,-1,38
 275 848 275 848 310.5 863.5 c 128,-1,39
 346 879 346 879 387 879 c 256,40,41
 428 879 428 879 464.5 864 c 128,-1,42
 501 849 501 849 528.5 822.5 c 128,-1,43
 556 796 556 796 572 761 c 128,-1,44
 588 726 588 726 588 686 c 2,45,-1
 588 195 l 2,46,47
 588 147 588 147 635 147 c 2,48,-1
 645 147 l 1,49,-1
 645 0 l 1,50,-1
 635 0 l 2,0,1
EndSplineSet
EndChar

StartChar: afii62774
Encoding: 65187 65187 184
Width: 442
GlyphClass: 2
Flags: W
AnchorPoint: "Anchor-1" 165 -315 basechar 0
AnchorPoint: "Anchor-0" 180 1035 basechar 0
LayerCount: 2
Fore
SplineSet
442 199 m 2,0,1
 442 159 442 159 427 123 c 128,-1,2
 412 87 412 87 386 59.5 c 128,-1,3
 360 32 360 32 325 16 c 128,-1,4
 290 0 290 0 250 0 c 2,5,-1
 -10 0 l 1,6,-1
 -10 147 l 1,7,-1
 244 147 l 2,8,9
 293 147 293 147 293 195 c 2,10,-1
 293 666 l 2,11,12
 293 723 293 723 244 723 c 0,13,14
 197 723 197 723 197 666 c 2,15,-1
 197 195 l 1,16,-1
 45 195 l 1,17,-1
 45 682 l 2,18,19
 45 723 45 723 60 759 c 128,-1,20
 75 795 75 795 102 821.5 c 128,-1,21
 129 848 129 848 165.5 863.5 c 128,-1,22
 202 879 202 879 244 879 c 0,23,24
 284 879 284 879 320 864 c 128,-1,25
 356 849 356 849 383 822.5 c 128,-1,26
 410 796 410 796 426 761 c 128,-1,27
 442 726 442 726 442 686 c 2,28,-1
 442 199 l 2,0,1
EndSplineSet
EndChar

StartChar: afii62775
Encoding: 65188 65188 185
Width: 489
GlyphClass: 2
Flags: W
AnchorPoint: "Anchor-1" 165 -315 basechar 0
AnchorPoint: "Anchor-0" 240 1050 basechar 0
LayerCount: 2
Fore
SplineSet
489 0 m 2,0,1
 455 0 455 0 425 11 c 128,-1,2
 395 22 395 22 369 45 c 1,3,4
 346 22 346 22 315.5 11 c 128,-1,5
 285 0 285 0 250 0 c 2,6,-1
 -10 0 l 1,7,-1
 -10 147 l 1,8,-1
 244 147 l 2,9,10
 293 147 293 147 293 195 c 2,11,-1
 293 666 l 2,12,13
 293 723 293 723 244 723 c 0,14,15
 197 723 197 723 197 666 c 2,16,-1
 197 195 l 1,17,-1
 45 195 l 1,18,-1
 45 682 l 2,19,20
 45 723 45 723 60 759 c 128,-1,21
 75 795 75 795 102 821.5 c 128,-1,22
 129 848 129 848 165.5 863.5 c 128,-1,23
 202 879 202 879 244 879 c 0,24,25
 284 879 284 879 320 864 c 128,-1,26
 356 849 356 849 383 822.5 c 128,-1,27
 410 796 410 796 426 761 c 128,-1,28
 442 726 442 726 442 686 c 2,29,-1
 442 195 l 2,30,31
 442 147 442 147 489 147 c 2,32,-1
 500 147 l 1,33,-1
 500 0 l 1,34,-1
 489 0 l 2,0,1
EndSplineSet
EndChar

StartChar: afii57423
Encoding: 1583 1583 190
Width: 524
GlyphClass: 2
Flags: W
AnchorPoint: "Anchor-1" 255 -285 basechar 0
AnchorPoint: "Anchor-0" 195 1065 basechar 0
LayerCount: 2
Fore
SplineSet
524 197 m 2,0,1
 524 157 524 157 509 121 c 128,-1,2
 494 85 494 85 468 58 c 128,-1,3
 442 31 442 31 407 15.5 c 128,-1,4
 372 0 372 0 332 0 c 2,5,-1
 94 0 l 1,6,-1
 94 147 l 1,7,-1
 322 147 l 2,8,9
 373 147 373 147 373 201 c 2,10,-1
 373 440 l 2,11,12
 373 561 373 561 293 647 c 0,13,14
 255 691 255 691 204.5 712 c 128,-1,15
 154 733 154 733 94 733 c 1,16,-1
 94 881 l 1,17,18
 275 881 275 881 401 752 c 0,19,20
 524 623 524 623 524 440 c 2,21,-1
 524 197 l 2,0,1
EndSplineSet
Substitution2: "'fina' Terminal Forms in Arabic lookup 2 subtable" afii62780
EndChar

StartChar: afii62780
Encoding: 65194 65194 191
Width: 571
GlyphClass: 2
Flags: W
AnchorPoint: "Anchor-1" 285 -315 basechar 0
AnchorPoint: "Anchor-0" 210 1050 basechar 0
LayerCount: 2
Fore
SplineSet
571 0 m 2,0,1
 537 0 537 0 507 11 c 128,-1,2
 477 22 477 22 451 45 c 1,3,4
 397 0 397 0 332 0 c 2,5,-1
 94 0 l 1,6,-1
 94 147 l 1,7,-1
 322 147 l 2,8,9
 373 147 373 147 373 201 c 2,10,-1
 373 440 l 2,11,12
 373 561 373 561 293 647 c 0,13,14
 255 691 255 691 204.5 712 c 128,-1,15
 154 733 154 733 94 733 c 1,16,-1
 94 881 l 1,17,18
 275 881 275 881 401 752 c 0,19,20
 524 623 524 623 524 440 c 2,21,-1
 524 197 l 2,22,23
 524 147 524 147 571 147 c 2,24,-1
 582 147 l 1,25,-1
 582 0 l 1,26,-1
 571 0 l 2,0,1
EndSplineSet
EndChar

StartChar: afii57425
Encoding: 1585 1585 194
Width: 303
GlyphClass: 2
Flags: W
AnchorPoint: "Anchor-1" 165 -555 basechar 0
AnchorPoint: "Anchor-0" 195 1050 basechar 0
LayerCount: 2
Fore
SplineSet
305 -20 m 2,0,1
 305 -200 305 -200 178 -319 c 1,2,-1
 66 -219 l 1,3,4
 156 -135 156 -135 156 10 c 2,5,-1
 156 883 l 1,6,-1
 305 883 l 1,7,-1
 305 -20 l 2,0,1
EndSplineSet
Substitution2: "'fina' Terminal Forms in Arabic lookup 2 subtable" afii62782
EndChar

StartChar: afii62782
Encoding: 65198 65198 195
Width: 354
GlyphClass: 2
Flags: W
AnchorPoint: "Anchor-1" 195 -570 basechar 0
AnchorPoint: "Anchor-0" 225 1020 basechar 0
LayerCount: 2
Fore
SplineSet
354 0 m 2,0,1
 308 0 308 0 305 10 c 2,2,-1
 305 -20 l 2,3,4
 305 -200 305 -200 178 -319 c 1,5,-1
 66 -219 l 1,6,7
 156 -135 156 -135 156 10 c 2,8,-1
 156 883 l 1,9,-1
 305 883 l 1,10,-1
 305 197 l 2,11,12
 305 147 305 147 354 147 c 2,13,-1
 365 147 l 1,14,-1
 365 0 l 1,15,-1
 354 0 l 2,0,1
EndSplineSet
EndChar

StartChar: afii57427
Encoding: 1587 1587 198
Width: 1464
GlyphClass: 2
Flags: W
AnchorPoint: "Anchor-1" 930 -465 basechar 0
AnchorPoint: "Anchor-0" 975 1170 basechar 0
LayerCount: 2
Fore
SplineSet
1464 240 m 2,0,1
 1464 137 1464 137 1413 74 c 0,2,3
 1357 0 1357 0 1260 0 c 0,4,5
 1172 0 1172 0 1141 27 c 1,6,7
 1119 13 1119 13 1090 6.5 c 128,-1,8
 1061 0 1061 0 1024 0 c 0,9,10
 945 0 945 0 907 29 c 1,11,12
 777 -197 777 -197 532 -197 c 0,13,14
 350 -197 350 -197 221 -68 c 0,15,16
 94 59 94 59 94 242 c 2,17,-1
 94 883 l 1,18,-1
 246 883 l 1,19,-1
 246 242 l 2,20,21
 246 182 246 182 267 130.5 c 128,-1,22
 288 79 288 79 330 37 c 0,23,24
 412 -45 412 -45 532 -45 c 0,25,26
 660 -45 660 -45 741 45 c 0,27,28
 821 132 821 132 821 262 c 2,29,-1
 821 883 l 1,30,-1
 973 883 l 1,31,-1
 973 227 l 2,32,33
 973 147 973 147 1020 147 c 0,34,35
 1054 147 1054 147 1063 168 c 0,36,37
 1065 174 1065 174 1066 189 c 128,-1,38
 1067 204 1067 204 1067 227 c 2,39,-1
 1067 883 l 1,40,-1
 1219 883 l 1,41,-1
 1219 227 l 2,42,43
 1219 183 1219 183 1225 168 c 0,44,45
 1234 147 1234 147 1264 147 c 0,46,47
 1301 147 1301 147 1311 170 c 0,48,49
 1313 175 1313 175 1313 189 c 128,-1,50
 1313 203 1313 203 1313 227 c 2,51,-1
 1313 883 l 1,52,-1
 1464 883 l 1,53,-1
 1464 240 l 2,0,1
EndSplineSet
Substitution2: "'medi' Medial Forms in Arabic lookup 3 subtable" afii62785
Substitution2: "'fina' Terminal Forms in Arabic lookup 2 subtable" afii62786
Substitution2: "'init' Initial Forms in Arabic lookup 1 subtable" afii62784
EndChar

StartChar: afii62786
Encoding: 65202 65202 199
Width: 1511
GlyphClass: 2
Flags: W
AnchorPoint: "Anchor-1" 765 -435 basechar 0
AnchorPoint: "Anchor-0" 1095 1095 basechar 0
LayerCount: 2
Fore
SplineSet
1511 0 m 2,0,1
 1438 0 1438 0 1389 45 c 1,2,3
 1338 0 1338 0 1260 0 c 0,4,5
 1172 0 1172 0 1141 27 c 1,6,7
 1119 13 1119 13 1090 6.5 c 128,-1,8
 1061 0 1061 0 1024 0 c 0,9,10
 945 0 945 0 907 29 c 1,11,12
 777 -197 777 -197 532 -197 c 0,13,14
 350 -197 350 -197 221 -68 c 0,15,16
 94 59 94 59 94 242 c 2,17,-1
 94 883 l 1,18,-1
 246 883 l 1,19,-1
 246 242 l 2,20,21
 246 182 246 182 267 130.5 c 128,-1,22
 288 79 288 79 330 37 c 0,23,24
 412 -45 412 -45 532 -45 c 0,25,26
 660 -45 660 -45 741 45 c 0,27,28
 821 132 821 132 821 262 c 2,29,-1
 821 883 l 1,30,-1
 973 883 l 1,31,-1
 973 227 l 2,32,33
 973 147 973 147 1020 147 c 0,34,35
 1054 147 1054 147 1063 168 c 0,36,37
 1065 174 1065 174 1066 189 c 128,-1,38
 1067 204 1067 204 1067 227 c 2,39,-1
 1067 883 l 1,40,-1
 1219 883 l 1,41,-1
 1219 227 l 2,42,43
 1219 183 1219 183 1225 168 c 0,44,45
 1234 147 1234 147 1264 147 c 0,46,47
 1301 147 1301 147 1311 170 c 0,48,49
 1313 175 1313 175 1313 189 c 128,-1,50
 1313 203 1313 203 1313 227 c 2,51,-1
 1313 883 l 1,52,-1
 1464 883 l 1,53,-1
 1462 197 l 2,54,55
 1462 147 1462 147 1511 147 c 2,56,-1
 1522 147 l 1,57,-1
 1522 0 l 1,58,-1
 1511 0 l 2,0,1
EndSplineSet
EndChar

StartChar: afii62784
Encoding: 65203 65203 200
Width: 690
GlyphClass: 2
Flags: W
AnchorPoint: "Anchor-1" 345 -285 basechar 0
AnchorPoint: "Anchor-0" 375 1080 basechar 0
LayerCount: 2
Fore
SplineSet
690 240 m 2,0,1
 690 138 690 138 641 74 c 0,2,3
 582 0 582 0 487 0 c 0,4,5
 400 0 400 0 369 27 c 1,6,7
 347 13 347 13 316.5 6.5 c 128,-1,8
 286 0 286 0 246 0 c 0,9,10
 174 0 174 0 123 45 c 1,11,12
 72 0 72 0 0 0 c 2,13,-1
 -10 0 l 1,14,-1
 -10 147 l 1,15,-1
 0 147 l 2,16,17
 47 147 47 147 47 197 c 2,18,-1
 47 883 l 1,19,-1
 199 883 l 1,20,-1
 199 227 l 2,21,22
 199 147 199 147 246 147 c 0,23,24
 295 147 295 147 295 227 c 2,25,-1
 295 883 l 1,26,-1
 444 883 l 1,27,-1
 444 227 l 2,28,29
 444 147 444 147 492 147 c 0,30,31
 541 147 541 147 541 227 c 2,32,-1
 541 883 l 1,33,-1
 690 883 l 1,34,-1
 690 240 l 2,0,1
EndSplineSet
EndChar

StartChar: afii62785
Encoding: 65204 65204 201
Width: 737
GlyphClass: 2
Flags: W
AnchorPoint: "Anchor-1" 345 -345 basechar 0
AnchorPoint: "Anchor-0" 360 1095 basechar 0
LayerCount: 2
Fore
SplineSet
737 0 m 2,0,1
 667 0 667 0 616 45 c 1,2,3
 567 0 567 0 487 0 c 0,4,5
 400 0 400 0 369 27 c 1,6,7
 347 13 347 13 316.5 6.5 c 128,-1,8
 286 0 286 0 246 0 c 0,9,10
 174 0 174 0 123 45 c 1,11,12
 72 0 72 0 0 0 c 2,13,-1
 -10 0 l 1,14,-1
 -10 147 l 1,15,-1
 0 147 l 2,16,17
 47 147 47 147 47 197 c 2,18,-1
 47 883 l 1,19,-1
 199 883 l 1,20,-1
 199 227 l 2,21,22
 199 147 199 147 246 147 c 0,23,24
 295 147 295 147 295 227 c 2,25,-1
 295 883 l 1,26,-1
 444 883 l 1,27,-1
 444 227 l 2,28,29
 444 182 444 182 451 168 c 0,30,31
 460 147 460 147 492 147 c 0,32,33
 510 147 510 147 521 153 c 128,-1,34
 532 159 532 159 537 170 c 0,35,36
 539 175 539 175 540 189 c 128,-1,37
 541 203 541 203 541 227 c 2,38,-1
 541 883 l 1,39,-1
 690 883 l 1,40,-1
 690 197 l 2,41,42
 690 147 690 147 737 147 c 2,43,-1
 748 147 l 1,44,-1
 748 0 l 1,45,-1
 737 0 l 2,0,1
EndSplineSet
EndChar

StartChar: afii57429
Encoding: 1589 1589 206
Width: 1694
GlyphClass: 2
Flags: W
AnchorPoint: "Anchor-1" 915 -510 basechar 0
AnchorPoint: "Anchor-0" 1020 1200 basechar 0
LayerCount: 2
Fore
SplineSet
1694 201 m 2,0,1
 1694 158 1694 158 1678.5 121 c 128,-1,2
 1663 84 1663 84 1636 57 c 128,-1,3
 1609 30 1609 30 1572 15 c 128,-1,4
 1535 0 1535 0 1491 0 c 2,5,-1
 1022 0 l 2,6,7
 939 0 939 0 907 29 c 1,8,9
 777 -197 777 -197 532 -197 c 0,10,11
 350 -197 350 -197 221 -68 c 0,12,13
 94 59 94 59 94 242 c 2,14,-1
 94 883 l 1,15,-1
 246 883 l 1,16,-1
 246 242 l 2,17,18
 246 182 246 182 267 130.5 c 128,-1,19
 288 79 288 79 330 37 c 0,20,21
 412 -45 412 -45 532 -45 c 0,22,23
 660 -45 660 -45 741 45 c 0,24,25
 821 132 821 132 821 262 c 2,26,-1
 821 883 l 1,27,-1
 973 883 l 1,28,-1
 973 528 l 1,29,30
 1126 883 1126 883 1323 883 c 0,31,32
 1503 883 1503 883 1604 752 c 0,33,34
 1694 633 1694 633 1694 449 c 2,35,-1
 1694 201 l 2,0,1
1542 449 m 2,36,37
 1542 568 1542 568 1489 645 c 0,38,39
 1427 735 1427 735 1313 735 c 0,40,41
 1221 735 1221 735 1108 530 c 0,42,43
 1073 465 1073 465 1039.5 393.5 c 128,-1,44
 1006 322 1006 322 977 242 c 0,45,46
 969 222 969 222 969 201 c 0,47,48
 969 147 969 147 1020 147 c 2,49,-1
 1485 147 l 2,50,51
 1542 147 1542 147 1542 211 c 2,52,-1
 1542 449 l 2,36,37
EndSplineSet
Substitution2: "'medi' Medial Forms in Arabic lookup 3 subtable" afii62791
Substitution2: "'fina' Terminal Forms in Arabic lookup 2 subtable" afii62792
Substitution2: "'init' Initial Forms in Arabic lookup 1 subtable" afii62790
EndChar

StartChar: afii62792
Encoding: 65210 65210 207
Width: 1743
GlyphClass: 2
Flags: W
AnchorPoint: "Anchor-1" 900 -495 basechar 0
AnchorPoint: "Anchor-0" 1020 1200 basechar 0
LayerCount: 2
Fore
SplineSet
1743 0 m 2,0,1
 1671 0 1671 0 1620 45 c 1,2,3
 1569 0 1569 0 1491 0 c 2,4,-1
 1022 0 l 2,5,6
 939 0 939 0 907 29 c 1,7,8
 777 -197 777 -197 532 -197 c 0,9,10
 350 -197 350 -197 221 -68 c 0,11,12
 94 59 94 59 94 242 c 2,13,-1
 94 883 l 1,14,-1
 246 883 l 1,15,-1
 246 242 l 2,16,17
 246 182 246 182 267 130.5 c 128,-1,18
 288 79 288 79 330 37 c 0,19,20
 412 -45 412 -45 532 -45 c 0,21,22
 660 -45 660 -45 741 45 c 0,23,24
 821 132 821 132 821 262 c 2,25,-1
 821 883 l 1,26,-1
 973 883 l 1,27,-1
 973 528 l 1,28,29
 1126 883 1126 883 1323 883 c 0,30,31
 1503 883 1503 883 1604 752 c 0,32,33
 1694 633 1694 633 1694 449 c 2,34,-1
 1694 197 l 2,35,36
 1694 147 1694 147 1743 147 c 2,37,-1
 1751 147 l 1,38,-1
 1751 0 l 1,39,-1
 1743 0 l 2,0,1
1542 449 m 2,40,41
 1542 568 1542 568 1489 645 c 0,42,43
 1427 735 1427 735 1313 735 c 0,44,45
 1221 735 1221 735 1108 530 c 0,46,47
 1073 465 1073 465 1039.5 393.5 c 128,-1,48
 1006 322 1006 322 977 242 c 0,49,50
 969 222 969 222 969 201 c 0,51,52
 969 147 969 147 1020 147 c 2,53,-1
 1485 147 l 2,54,55
 1542 147 1542 147 1542 211 c 2,56,-1
 1542 449 l 2,40,41
EndSplineSet
EndChar

StartChar: afii62790
Encoding: 65211 65211 208
Width: 918
GlyphClass: 2
Flags: W
AnchorPoint: "Anchor-1" 420 -330 basechar 0
AnchorPoint: "Anchor-0" 360 1095 basechar 0
LayerCount: 2
Fore
SplineSet
918 197 m 2,0,1
 918 154 918 154 902.5 118 c 128,-1,2
 887 82 887 82 859.5 55.5 c 128,-1,3
 832 29 832 29 795 14.5 c 128,-1,4
 758 0 758 0 715 0 c 2,5,-1
 193 0 l 2,6,7
 147 0 147 0 119 27 c 1,8,9
 92 0 92 0 59 0 c 2,10,-1
 -10 0 l 1,11,-1
 -10 147 l 1,12,-1
 0 147 l 2,13,14
 45 147 45 147 45 207 c 2,15,-1
 45 883 l 1,16,-1
 197 883 l 1,17,-1
 197 528 l 1,18,19
 350 883 350 883 547 883 c 0,20,21
 727 883 727 883 827 752 c 0,22,23
 918 634 918 634 918 449 c 2,24,-1
 918 197 l 2,0,1
768 449 m 2,25,26
 768 569 768 569 713 645 c 0,27,28
 651 735 651 735 537 735 c 0,29,30
 445 735 445 735 332 530 c 0,31,32
 297 465 297 465 263.5 393.5 c 128,-1,33
 230 322 230 322 201 242 c 0,34,35
 193 222 193 222 193 201 c 0,36,37
 193 147 193 147 244 147 c 2,38,-1
 709 147 l 2,39,40
 768 147 768 147 768 211 c 2,41,-1
 768 449 l 2,25,26
EndSplineSet
EndChar

StartChar: afii62791
Encoding: 65212 65212 209
Width: 967
GlyphClass: 2
Flags: W
AnchorPoint: "Anchor-1" 450 -345 basechar 0
AnchorPoint: "Anchor-0" 420 1110 basechar 0
LayerCount: 2
Fore
SplineSet
967 0 m 2,0,1
 895 0 895 0 844 45 c 1,2,3
 793 0 793 0 715 0 c 2,4,-1
 193 0 l 2,5,6
 147 0 147 0 119 27 c 1,7,8
 92 0 92 0 59 0 c 2,9,-1
 -10 0 l 1,10,-1
 -10 147 l 1,11,-1
 0 147 l 2,12,13
 45 147 45 147 45 207 c 2,14,-1
 45 883 l 1,15,-1
 197 883 l 1,16,-1
 197 528 l 1,17,18
 350 883 350 883 547 883 c 0,19,20
 727 883 727 883 827 752 c 0,21,22
 918 634 918 634 918 449 c 2,23,-1
 918 197 l 2,24,25
 918 147 918 147 967 147 c 2,26,-1
 977 147 l 1,27,-1
 977 0 l 1,28,-1
 967 0 l 2,0,1
768 449 m 2,29,30
 768 569 768 569 713 645 c 0,31,32
 651 735 651 735 537 735 c 0,33,34
 445 735 445 735 332 530 c 0,35,36
 297 465 297 465 263.5 393.5 c 128,-1,37
 230 322 230 322 201 242 c 0,38,39
 193 222 193 222 193 201 c 0,40,41
 193 147 193 147 244 147 c 2,42,-1
 709 147 l 2,43,44
 768 147 768 147 768 211 c 2,45,-1
 768 449 l 2,29,30
EndSplineSet
EndChar

StartChar: afii57431
Encoding: 1591 1591 214
Width: 1024
GlyphClass: 2
Flags: W
AnchorPoint: "Anchor-1" 495 -330 basechar 0
AnchorPoint: "Anchor-0" 600 1215 basechar 0
LayerCount: 2
Fore
SplineSet
1024 197 m 2,0,1
 1024 154 1024 154 1008 118 c 128,-1,2
 992 82 992 82 964.5 55.5 c 128,-1,3
 937 29 937 29 899.5 14.5 c 128,-1,4
 862 0 862 0 819 0 c 2,5,-1
 299 0 l 2,6,7
 256 0 256 0 223 27 c 1,8,9
 197 0 197 0 166 0 c 2,10,-1
 94 0 l 1,11,-1
 94 147 l 1,12,-1
 106 147 l 2,13,14
 150 147 150 147 150 207 c 2,15,-1
 150 1147 l 1,16,-1
 301 1147 l 1,17,-1
 301 528 l 1,18,19
 459 883 459 883 651 883 c 0,20,21
 831 883 831 883 932 752 c 0,22,23
 1024 634 1024 634 1024 449 c 2,24,-1
 1024 197 l 2,0,1
872 449 m 2,25,26
 872 569 872 569 817 645 c 0,27,28
 755 735 755 735 641 735 c 0,29,30
 552 735 552 735 436 530 c 0,31,32
 401 465 401 465 367.5 393.5 c 128,-1,33
 334 322 334 322 305 242 c 0,34,35
 302 231 302 231 300.5 221.5 c 128,-1,36
 299 212 299 212 299 201 c 0,37,38
 299 147 299 147 348 147 c 2,39,-1
 813 147 l 2,40,41
 872 147 872 147 872 211 c 2,42,-1
 872 449 l 2,25,26
EndSplineSet
Substitution2: "'medi' Medial Forms in Arabic lookup 3 subtable" afii62797
Substitution2: "'fina' Terminal Forms in Arabic lookup 2 subtable" afii62798
Substitution2: "'init' Initial Forms in Arabic lookup 1 subtable" afii62796
EndChar

StartChar: afii62798
Encoding: 65218 65218 215
Width: 1071
GlyphClass: 2
Flags: W
AnchorPoint: "Anchor-1" 510 -300 basechar 0
AnchorPoint: "Anchor-0" 645 1215 basechar 0
LayerCount: 2
Fore
SplineSet
1071 0 m 2,0,1
 999 0 999 0 948 45 c 1,2,3
 897 0 897 0 819 0 c 2,4,-1
 299 0 l 2,5,6
 256 0 256 0 223 27 c 1,7,8
 197 0 197 0 166 0 c 2,9,-1
 94 0 l 1,10,-1
 94 147 l 1,11,-1
 106 147 l 2,12,13
 150 147 150 147 150 207 c 2,14,-1
 150 1147 l 1,15,-1
 301 1147 l 1,16,-1
 301 528 l 1,17,18
 459 883 459 883 651 883 c 0,19,20
 831 883 831 883 932 752 c 0,21,22
 1024 634 1024 634 1024 449 c 2,23,-1
 1024 197 l 2,24,25
 1024 147 1024 147 1071 147 c 2,26,-1
 1081 147 l 1,27,-1
 1081 0 l 1,28,-1
 1071 0 l 2,0,1
872 449 m 2,29,30
 872 569 872 569 817 645 c 0,31,32
 755 735 755 735 641 735 c 0,33,34
 552 735 552 735 436 530 c 0,35,36
 401 465 401 465 367.5 393.5 c 128,-1,37
 334 322 334 322 305 242 c 0,38,39
 302 231 302 231 300.5 221.5 c 128,-1,40
 299 212 299 212 299 201 c 0,41,42
 299 147 299 147 348 147 c 2,43,-1
 813 147 l 2,44,45
 872 147 872 147 872 211 c 2,46,-1
 872 449 l 2,29,30
EndSplineSet
EndChar

StartChar: afii62796
Encoding: 65219 65219 216
Width: 918
GlyphClass: 2
Flags: W
AnchorPoint: "Anchor-1" 405 -300 basechar 0
AnchorPoint: "Anchor-0" 465 1275 basechar 0
LayerCount: 2
Fore
SplineSet
918 197 m 2,0,1
 918 154 918 154 902.5 118 c 128,-1,2
 887 82 887 82 859.5 55.5 c 128,-1,3
 832 29 832 29 795 14.5 c 128,-1,4
 758 0 758 0 715 0 c 2,5,-1
 193 0 l 2,6,7
 147 0 147 0 119 27 c 1,8,9
 92 0 92 0 59 0 c 2,10,-1
 -10 0 l 1,11,-1
 -10 147 l 1,12,-1
 0 147 l 2,13,14
 45 147 45 147 45 207 c 2,15,-1
 45 1147 l 1,16,-1
 197 1147 l 1,17,-1
 197 528 l 1,18,19
 350 883 350 883 547 883 c 0,20,21
 727 883 727 883 827 752 c 0,22,23
 918 634 918 634 918 449 c 2,24,-1
 918 197 l 2,0,1
768 449 m 2,25,26
 768 569 768 569 713 645 c 0,27,28
 651 735 651 735 537 735 c 0,29,30
 445 735 445 735 332 530 c 0,31,32
 297 465 297 465 263.5 393.5 c 128,-1,33
 230 322 230 322 201 242 c 0,34,35
 193 222 193 222 193 201 c 0,36,37
 193 147 193 147 244 147 c 2,38,-1
 709 147 l 2,39,40
 768 147 768 147 768 211 c 2,41,-1
 768 449 l 2,25,26
EndSplineSet
EndChar

StartChar: afii62797
Encoding: 65220 65220 217
Width: 967
GlyphClass: 2
Flags: W
AnchorPoint: "Anchor-1" 405 -420 basechar 0
AnchorPoint: "Anchor-0" 555 1185 basechar 0
LayerCount: 2
Fore
SplineSet
967 0 m 2,0,1
 895 0 895 0 844 45 c 1,2,3
 793 0 793 0 715 0 c 2,4,-1
 193 0 l 2,5,6
 147 0 147 0 119 27 c 1,7,8
 92 0 92 0 59 0 c 2,9,-1
 -10 0 l 1,10,-1
 -10 147 l 1,11,-1
 0 147 l 2,12,13
 45 147 45 147 45 207 c 2,14,-1
 45 1147 l 1,15,-1
 197 1147 l 1,16,-1
 197 528 l 1,17,18
 350 883 350 883 547 883 c 0,19,20
 727 883 727 883 827 752 c 0,21,22
 918 634 918 634 918 449 c 2,23,-1
 918 197 l 2,24,25
 918 147 918 147 967 147 c 2,26,-1
 977 147 l 1,27,-1
 977 0 l 1,28,-1
 967 0 l 2,0,1
768 449 m 2,29,30
 768 569 768 569 713 645 c 0,31,32
 651 735 651 735 537 735 c 0,33,34
 445 735 445 735 332 530 c 0,35,36
 297 465 297 465 263.5 393.5 c 128,-1,37
 230 322 230 322 201 242 c 0,38,39
 193 222 193 222 193 201 c 0,40,41
 193 147 193 147 244 147 c 2,42,-1
 709 147 l 2,43,44
 768 147 768 147 768 211 c 2,45,-1
 768 449 l 2,29,30
EndSplineSet
EndChar

StartChar: afii57433
Encoding: 1593 1593 222
Width: 629
GlyphClass: 2
Flags: W
AnchorPoint: "Anchor-1" 390 -585 basechar 0
AnchorPoint: "Anchor-0" 465 1065 basechar 0
LayerCount: 2
Fore
SplineSet
342 0 m 2,0,1
 299 0 299 0 272.5 -28 c 128,-1,2
 246 -56 246 -56 246 -98 c 256,3,4
 246 -140 246 -140 273 -167.5 c 128,-1,5
 300 -195 300 -195 342 -195 c 2,6,-1
 395 -195 l 1,7,-1
 395 -344 l 1,8,-1
 340 -344 l 2,9,10
 289 -344 289 -344 245 -327 c 128,-1,11
 201 -310 201 -310 166 -274 c 0,12,13
 94 -202 94 -202 94 -102 c 0,14,15
 94 -62 94 -62 106.5 -25.5 c 128,-1,16
 119 11 119 11 141.5 42 c 128,-1,17
 164 73 164 73 195 96 c 128,-1,18
 226 119 226 119 264 131 c 1,19,20
 137 249 137 249 137 440 c 0,21,22
 137 624 137 624 262 752 c 0,23,24
 325 818 325 818 402.5 850.5 c 128,-1,25
 480 883 480 883 571 883 c 2,26,-1
 629 883 l 1,27,-1
 629 735 l 1,28,-1
 571 735 l 2,29,30
 511 735 511 735 460 714 c 128,-1,31
 409 693 409 693 367 649 c 0,32,33
 325 606 325 606 305 554 c 128,-1,34
 285 502 285 502 285 440 c 0,35,36
 285 320 285 320 369 233 c 0,37,38
 452 147 452 147 571 147 c 2,39,-1
 629 147 l 1,40,-1
 629 0 l 1,41,-1
 342 0 l 2,0,1
EndSplineSet
Substitution2: "'medi' Medial Forms in Arabic lookup 3 subtable" afii62803
Substitution2: "'fina' Terminal Forms in Arabic lookup 2 subtable" afii62804
Substitution2: "'init' Initial Forms in Arabic lookup 1 subtable" afii62802
EndChar

StartChar: afii62804
Encoding: 65226 65226 223
Width: 788
GlyphClass: 2
Flags: W
AnchorPoint: "Anchor-1" 420 -675 basechar 0
AnchorPoint: "Anchor-0" 450 1035 basechar 0
LayerCount: 2
Fore
SplineSet
342 0 m 2,0,1
 321 0 321 0 303.5 -8 c 128,-1,2
 286 -16 286 -16 273.5 -29.5 c 128,-1,3
 261 -43 261 -43 253.5 -61 c 128,-1,4
 246 -79 246 -79 246 -98 c 0,5,6
 246 -140 246 -140 273 -167.5 c 128,-1,7
 300 -195 300 -195 342 -195 c 2,8,-1
 395 -195 l 1,9,-1
 395 -344 l 1,10,-1
 340 -344 l 2,11,12
 289 -344 289 -344 245 -327 c 128,-1,13
 201 -310 201 -310 166 -274 c 0,14,15
 94 -202 94 -202 94 -102 c 0,16,17
 94 -62 94 -62 106.5 -25.5 c 128,-1,18
 119 11 119 11 141.5 42 c 128,-1,19
 164 73 164 73 195 96 c 128,-1,20
 226 119 226 119 264 131 c 1,21,22
 139 244 139 244 139 444 c 2,23,-1
 139 684 l 2,24,25
 139 726 139 726 154 762.5 c 128,-1,26
 169 799 169 799 195 826 c 128,-1,27
 221 853 221 853 257.5 868 c 128,-1,28
 294 883 294 883 336 883 c 2,29,-1
 541 883 l 2,30,31
 581 883 581 883 617 868 c 128,-1,32
 653 853 653 853 680 827 c 128,-1,33
 707 801 707 801 723 766 c 128,-1,34
 739 731 739 731 739 690 c 2,35,-1
 739 444 l 2,36,37
 739 268 739 268 629 147 c 1,38,-1
 799 147 l 1,39,-1
 799 0 l 1,40,-1
 342 0 l 2,0,1
590 672 m 2,41,42
 590 727 590 727 541 727 c 2,43,-1
 342 727 l 2,44,45
 291 727 291 727 291 668 c 2,46,-1
 291 444 l 2,47,48
 291 247 291 247 444 180 c 1,49,50
 513 212 513 212 553 291 c 0,51,52
 590 361 590 361 590 440 c 2,53,-1
 590 672 l 2,41,42
EndSplineSet
EndChar

StartChar: afii62802
Encoding: 65227 65227 224
Width: 557
GlyphClass: 2
Flags: W
AnchorPoint: "Anchor-1" 270 -240 basechar 0
AnchorPoint: "Anchor-0" 420 1065 basechar 0
LayerCount: 2
Fore
SplineSet
-10 0 m 1,0,-1
 -10 147 l 1,1,-1
 166 147 l 1,2,3
 55 273 55 273 55 440 c 0,4,5
 55 624 55 624 180 752 c 0,6,7
 243 818 243 818 320.5 850.5 c 128,-1,8
 398 883 398 883 489 883 c 2,9,-1
 557 883 l 1,10,-1
 557 735 l 1,11,-1
 489 735 l 2,12,13
 429 735 429 735 378 714 c 128,-1,14
 327 693 327 693 285 649 c 0,15,16
 243 606 243 606 223 554 c 128,-1,17
 203 502 203 502 203 440 c 0,18,19
 203 320 203 320 287 233 c 0,20,21
 370 147 370 147 489 147 c 2,22,-1
 557 147 l 1,23,-1
 557 0 l 1,24,-1
 -10 0 l 1,0,-1
EndSplineSet
EndChar

StartChar: afii62803
Encoding: 65228 65228 225
Width: 696
GlyphClass: 2
Flags: W
AnchorPoint: "Anchor-1" 330 -330 basechar 0
AnchorPoint: "Anchor-0" 330 1050 basechar 0
LayerCount: 2
Fore
SplineSet
451 0 m 2,0,1
 437 0 437 0 413 4.5 c 128,-1,2
 389 9 389 9 354 20 c 1,3,4
 319 9 319 9 294.5 4.5 c 128,-1,5
 270 0 270 0 258 0 c 2,6,-1
 -10 0 l 1,7,-1
 -10 147 l 1,8,-1
 166 147 l 1,9,10
 49 255 49 255 49 444 c 2,11,-1
 49 684 l 2,12,13
 49 726 49 726 64 762.5 c 128,-1,14
 79 799 79 799 105 826 c 128,-1,15
 131 853 131 853 167.5 868 c 128,-1,16
 204 883 204 883 246 883 c 2,17,-1
 451 883 l 2,18,19
 491 883 491 883 527 868 c 128,-1,20
 563 853 563 853 590 827 c 128,-1,21
 617 801 617 801 633 766 c 128,-1,22
 649 731 649 731 649 690 c 2,23,-1
 649 444 l 2,24,25
 649 268 649 268 539 147 c 1,26,-1
 709 147 l 1,27,-1
 709 0 l 1,28,-1
 451 0 l 2,0,1
500 672 m 2,29,30
 500 727 500 727 451 727 c 2,31,-1
 252 727 l 2,32,33
 201 727 201 727 201 668 c 2,34,-1
 201 444 l 2,35,36
 201 247 201 247 354 180 c 1,37,38
 423 212 423 212 463 291 c 0,39,40
 500 363 500 363 500 440 c 2,41,-1
 500 672 l 2,29,30
EndSplineSet
EndChar

StartChar: afii57443
Encoding: 1603 1603 238
Width: 1151
GlyphClass: 2
Flags: W
AnchorPoint: "Anchor-1" 570 -300 basechar 0
AnchorPoint: "Anchor-0" 480 1275 basechar 0
LayerCount: 2
Fore
SplineSet
614 944 m 1,0,-1
 614 1092 l 1,1,-1
 1151 1092 l 1,2,-1
 1151 944 l 1,3,-1
 614 944 l 1,0,-1
1149 440 m 0,4,5
 1149 252 1149 252 1024 127 c 0,6,7
 897 0 897 0 715 0 c 2,8,-1
 293 0 l 2,9,10
 253 0 253 0 217 15.5 c 128,-1,11
 181 31 181 31 153.5 57.5 c 128,-1,12
 126 84 126 84 110 119.5 c 128,-1,13
 94 155 94 155 94 195 c 2,14,-1
 94 883 l 1,15,-1
 246 883 l 1,16,-1
 246 195 l 2,17,18
 246 147 246 147 293 147 c 2,19,-1
 715 147 l 2,20,21
 834 147 834 147 918 233 c 0,22,23
 1001 321 1001 321 1001 440 c 0,24,25
 1001 561 1001 561 918 647 c 256,26,27
 835 733 835 733 715 733 c 2,28,-1
 614 733 l 1,29,-1
 614 883 l 1,30,-1
 715 883 l 2,31,32
 897 883 897 883 1022 752 c 0,33,34
 1149 622 1149 622 1149 440 c 0,4,5
EndSplineSet
Substitution2: "'medi' Medial Forms in Arabic lookup 3 subtable" afii52306
Substitution2: "'fina' Terminal Forms in Arabic lookup 2 subtable" afii62816
Substitution2: "'init' Initial Forms in Arabic lookup 1 subtable" afii52305
EndChar

StartChar: afii62816
Encoding: 65242 65242 239
Width: 1182
GlyphClass: 2
Flags: W
AnchorPoint: "Anchor-1" 555 -345 basechar 0
AnchorPoint: "Anchor-0" 450 1305 basechar 0
LayerCount: 2
Fore
SplineSet
614 944 m 1,0,-1
 614 1092 l 1,1,-1
 1151 1092 l 1,2,-1
 1151 944 l 1,3,-1
 614 944 l 1,0,-1
1096 0 m 2,4,5
 1039 0 1039 0 990 9.5 c 128,-1,6
 941 19 941 19 903 39 c 1,7,8
 863 19 863 19 816 9.5 c 128,-1,9
 769 0 769 0 715 0 c 2,10,-1
 293 0 l 2,11,12
 253 0 253 0 217 15.5 c 128,-1,13
 181 31 181 31 153.5 57.5 c 128,-1,14
 126 84 126 84 110 119.5 c 128,-1,15
 94 155 94 155 94 195 c 2,16,-1
 94 883 l 1,17,-1
 246 883 l 1,18,-1
 246 195 l 2,19,20
 246 147 246 147 293 147 c 2,21,-1
 715 147 l 2,22,23
 834 147 834 147 918 233 c 0,24,25
 1001 321 1001 321 1001 440 c 0,26,27
 1001 561 1001 561 918 647 c 256,28,29
 835 733 835 733 715 733 c 2,30,-1
 614 733 l 1,31,-1
 614 883 l 1,32,-1
 715 883 l 2,33,34
 897 883 897 883 1022 752 c 0,35,36
 1149 622 1149 622 1149 440 c 0,37,38
 1149 279 1149 279 1042 154 c 1,39,40
 1058 151 1058 151 1071.5 149 c 128,-1,41
 1085 147 1085 147 1096 147 c 2,42,-1
 1194 147 l 1,43,-1
 1194 0 l 1,44,-1
 1096 0 l 2,4,5
EndSplineSet
EndChar

StartChar: afii57444
Encoding: 1604 1604 242
Width: 973
GlyphClass: 2
Flags: W
AnchorPoint: "Anchor-1" 525 -450 basechar 0
AnchorPoint: "Anchor-0" 750 1335 basechar 0
LayerCount: 2
Fore
SplineSet
973 231 m 2,0,1
 973 44 973 44 831 -82 c 0,2,3
 701 -197 701 -197 535 -197 c 0,4,5
 353 -197 353 -197 223 -70 c 0,6,7
 94 56 94 56 94 240 c 2,8,-1
 94 883 l 1,9,-1
 246 883 l 1,10,-1
 246 240 l 2,11,12
 246 119 246 119 330 37 c 0,13,14
 414 -47 414 -47 535 -47 c 0,15,16
 667 -47 667 -47 745 43 c 0,17,18
 784 85 784 85 802.5 139.5 c 128,-1,19
 821 194 821 194 821 262 c 2,20,-1
 821 1147 l 1,21,-1
 973 1147 l 1,22,-1
 973 231 l 2,0,1
EndSplineSet
Substitution2: "'medi' Medial Forms in Arabic lookup 3 subtable" afii62818
Substitution2: "'fina' Terminal Forms in Arabic lookup 2 subtable" afii62819
Substitution2: "'init' Initial Forms in Arabic lookup 1 subtable" afii62817
EndChar

StartChar: afii62817
Encoding: 65247 65247 243
Width: 199
GlyphClass: 2
Flags: W
AnchorPoint: "Anchor-1" 45 -390 basechar 0
AnchorPoint: "Anchor-0" 135 1260 basechar 0
LayerCount: 2
Fore
SplineSet
199 195 m 2,0,1
 199 155 199 155 183 119.5 c 128,-1,2
 167 84 167 84 140 57.5 c 128,-1,3
 113 31 113 31 77 15.5 c 128,-1,4
 41 0 41 0 0 0 c 2,5,-1
 -10 0 l 1,6,-1
 -10 147 l 1,7,-1
 0 147 l 2,8,9
 47 147 47 147 47 195 c 2,10,-1
 47 1147 l 1,11,-1
 199 1147 l 1,12,-1
 199 195 l 2,0,1
EndSplineSet
EndChar

StartChar: afii62818
Encoding: 65248 65248 244
Width: 246
GlyphClass: 2
Flags: W
AnchorPoint: "Anchor-1" 105 -315 basechar 0
AnchorPoint: "Anchor-0" 135 1320 basechar 0
LayerCount: 2
Fore
SplineSet
246 0 m 2,0,1
 165 0 165 0 119 43 c 1,2,3
 67 0 67 0 0 0 c 2,4,-1
 -10 0 l 1,5,-1
 -10 147 l 1,6,-1
 0 147 l 2,7,8
 47 147 47 147 47 195 c 2,9,-1
 47 1147 l 1,10,-1
 199 1147 l 1,11,-1
 199 195 l 2,12,13
 199 147 199 147 246 147 c 2,14,-1
 256 147 l 1,15,-1
 256 0 l 1,16,-1
 246 0 l 2,0,1
EndSplineSet
EndChar

StartChar: afii57445
Encoding: 1605 1605 245
Width: 694
GlyphClass: 2
Flags: W
AnchorPoint: "Anchor-1" 435 -660 basechar 0
AnchorPoint: "Anchor-0" 480 1035 basechar 0
LayerCount: 2
Fore
SplineSet
694 199 m 2,0,1
 694 158 694 158 678 122 c 128,-1,2
 662 86 662 86 635 59 c 128,-1,3
 608 32 608 32 572 16 c 128,-1,4
 536 0 536 0 496 0 c 2,5,-1
 299 0 l 2,6,7
 248 0 248 0 248 -49 c 2,8,-1
 248 -344 l 1,9,-1
 96 -344 l 1,10,-1
 96 -49 l 2,11,12
 96 147 96 147 299 147 c 1,13,-1
 299 684 l 2,14,15
 299 726 299 726 314 762.5 c 128,-1,16
 329 799 329 799 355 825 c 128,-1,17
 381 851 381 851 417.5 866 c 128,-1,18
 454 881 454 881 496 881 c 0,19,20
 536 881 536 881 572 866 c 128,-1,21
 608 851 608 851 635 825 c 128,-1,22
 662 799 662 799 678 764 c 128,-1,23
 694 729 694 729 694 690 c 2,24,-1
 694 199 l 2,0,1
545 670 m 2,25,26
 545 725 545 725 496 725 c 0,27,28
 449 725 449 725 449 670 c 2,29,-1
 449 147 l 1,30,-1
 496 147 l 2,31,32
 545 147 545 147 545 195 c 2,33,-1
 545 670 l 2,25,26
EndSplineSet
Substitution2: "'medi' Medial Forms in Arabic lookup 3 subtable" afii62821
Substitution2: "'fina' Terminal Forms in Arabic lookup 2 subtable" afii62822
Substitution2: "'init' Initial Forms in Arabic lookup 1 subtable" afii62820
EndChar

StartChar: afii62822
Encoding: 65250 65250 246
Width: 741
GlyphClass: 2
Flags: W
AnchorPoint: "Anchor-1" 480 -480 basechar 0
AnchorPoint: "Anchor-0" 510 990 basechar 0
LayerCount: 2
Fore
SplineSet
741 0 m 2,0,1
 662 0 662 0 616 43 c 1,2,3
 566 0 566 0 496 0 c 2,4,-1
 299 0 l 2,5,6
 248 0 248 0 248 -49 c 2,7,-1
 248 -344 l 1,8,-1
 96 -344 l 1,9,-1
 96 -49 l 2,10,11
 96 147 96 147 299 147 c 1,12,-1
 299 684 l 2,13,14
 299 726 299 726 314 762.5 c 128,-1,15
 329 799 329 799 355 825 c 128,-1,16
 381 851 381 851 417.5 866 c 128,-1,17
 454 881 454 881 496 881 c 0,18,19
 536 881 536 881 572 866 c 128,-1,20
 608 851 608 851 635 825 c 128,-1,21
 662 799 662 799 678 764 c 128,-1,22
 694 729 694 729 694 690 c 2,23,-1
 694 195 l 2,24,25
 694 147 694 147 741 147 c 2,26,-1
 752 147 l 1,27,-1
 752 0 l 1,28,-1
 741 0 l 2,0,1
545 670 m 2,29,30
 545 725 545 725 496 725 c 0,31,32
 449 725 449 725 449 670 c 2,33,-1
 449 147 l 1,34,-1
 496 147 l 2,35,36
 545 147 545 147 545 195 c 2,37,-1
 545 670 l 2,29,30
EndSplineSet
EndChar

StartChar: afii62820
Encoding: 65251 65251 247
Width: 444
GlyphClass: 2
Flags: W
AnchorPoint: "Anchor-1" 195 -375 basechar 0
AnchorPoint: "Anchor-0" 195 1035 basechar 0
LayerCount: 2
Fore
SplineSet
444 195 m 2,0,1
 444 0 444 0 295 0 c 2,2,-1
 199 0 l 1,3,-1
 199 147 l 2,4,5
 199 115 199 115 187.5 88.5 c 128,-1,6
 176 62 176 62 156 42 c 128,-1,7
 136 22 136 22 108 11 c 128,-1,8
 80 0 80 0 47 0 c 2,9,-1
 -12 0 l 1,10,-1
 -12 147 l 1,11,-1
 8 147 l 2,12,13
 47 147 47 147 47 190 c 2,14,-1
 47 684 l 2,15,16
 47 726 47 726 62 762.5 c 128,-1,17
 77 799 77 799 104 825 c 128,-1,18
 131 851 131 851 167.5 866 c 128,-1,19
 204 881 204 881 246 881 c 0,20,21
 286 881 286 881 322 866 c 128,-1,22
 358 851 358 851 385 825 c 128,-1,23
 412 799 412 799 428 764 c 128,-1,24
 444 729 444 729 444 690 c 2,25,-1
 444 195 l 2,0,1
295 670 m 2,26,27
 295 725 295 725 246 725 c 0,28,29
 199 725 199 725 199 670 c 2,30,-1
 199 147 l 1,31,-1
 252 147 l 1,32,33
 295 157 295 157 295 195 c 2,34,-1
 295 670 l 2,26,27
EndSplineSet
EndChar

StartChar: afii57446
Encoding: 1606 1606 248
Width: 973
GlyphClass: 2
Flags: W
AnchorPoint: "Anchor-1" 450 -510 basechar 0
AnchorPoint: "Anchor-0" 555 1200 basechar 0
LayerCount: 2
Fore
SplineSet
973 231 m 2,0,1
 973 44 973 44 831 -82 c 0,2,3
 701 -197 701 -197 535 -197 c 0,4,5
 353 -197 353 -197 223 -70 c 0,6,7
 94 56 94 56 94 240 c 2,8,-1
 94 883 l 1,9,-1
 246 883 l 1,10,-1
 246 240 l 2,11,12
 246 119 246 119 330 37 c 0,13,14
 414 -47 414 -47 535 -47 c 0,15,16
 667 -47 667 -47 745 43 c 0,17,18
 784 85 784 85 802.5 139.5 c 128,-1,19
 821 194 821 194 821 262 c 2,20,-1
 821 883 l 1,21,-1
 973 883 l 1,22,-1
 973 231 l 2,0,1
608 1014 m 0,23,24
 608 984 608 984 586 960.5 c 128,-1,25
 564 937 564 937 532 937 c 0,26,27
 501 937 501 937 479.5 960.5 c 128,-1,28
 458 984 458 984 458 1014 c 0,29,30
 458 1045 458 1045 479.5 1068.5 c 128,-1,31
 501 1092 501 1092 532 1092 c 0,32,33
 564 1092 564 1092 586 1069.5 c 128,-1,34
 608 1047 608 1047 608 1014 c 0,23,24
EndSplineSet
Substitution2: "'medi' Medial Forms in Arabic lookup 3 subtable" afii62824
Substitution2: "'fina' Terminal Forms in Arabic lookup 2 subtable" afii62825
Substitution2: "'init' Initial Forms in Arabic lookup 1 subtable" afii62823
EndChar

StartChar: afii62825
Encoding: 65254 65254 249
Width: 1024
GlyphClass: 2
Flags: W
AnchorPoint: "Anchor-1" 465 -465 basechar 0
AnchorPoint: "Anchor-0" 525 1215 basechar 0
LayerCount: 2
Fore
SplineSet
1024 0 m 2,0,1
 945 0 945 0 907 29 c 1,2,3
 777 -197 777 -197 532 -197 c 0,4,5
 350 -197 350 -197 221 -68 c 0,6,7
 94 59 94 59 94 242 c 2,8,-1
 94 883 l 1,9,-1
 246 883 l 1,10,-1
 246 242 l 2,11,12
 246 182 246 182 267 130.5 c 128,-1,13
 288 79 288 79 330 37 c 0,14,15
 412 -45 412 -45 532 -45 c 0,16,17
 660 -45 660 -45 741 45 c 0,18,19
 821 132 821 132 821 262 c 2,20,-1
 821 883 l 1,21,-1
 973 883 l 1,22,-1
 973 227 l 2,23,24
 973 147 973 147 1020 147 c 2,25,-1
 1034 147 l 1,26,-1
 1034 0 l 1,27,-1
 1024 0 l 2,0,1
608 1014 m 0,28,29
 608 984 608 984 586 960.5 c 128,-1,30
 564 937 564 937 532 937 c 0,31,32
 501 937 501 937 479.5 960.5 c 128,-1,33
 458 984 458 984 458 1014 c 0,34,35
 458 1045 458 1045 479.5 1068.5 c 128,-1,36
 501 1092 501 1092 532 1092 c 0,37,38
 564 1092 564 1092 586 1069.5 c 128,-1,39
 608 1047 608 1047 608 1014 c 0,28,29
EndSplineSet
EndChar

StartChar: afii62828
Encoding: 65258 65258 253
Width: 1014
GlyphClass: 2
Flags: W
AnchorPoint: "Anchor-1" 540 -375 basechar 0
AnchorPoint: "Anchor-0" 510 1110 basechar 0
LayerCount: 2
Fore
SplineSet
1014 0 m 2,0,1
 813 0 813 0 813 227 c 2,2,-1
 813 434 l 2,3,4
 813 547 813 547 729 637 c 256,5,6
 645 727 645 727 532 727 c 0,7,8
 409 727 409 727 326 641 c 0,9,10
 284 598 284 598 264 546 c 128,-1,11
 244 494 244 494 244 432 c 256,12,13
 244 370 244 370 264 319.5 c 128,-1,14
 284 269 284 269 326 227 c 0,15,16
 409 147 409 147 532 147 c 2,17,-1
 676 147 l 1,18,-1
 676 0 l 1,19,-1
 535 0 l 2,20,21
 351 0 351 0 221 127 c 1,22,23
 94 257 94 257 94 438 c 0,24,25
 94 622 94 622 221 752 c 0,26,27
 350 881 350 881 535 881 c 0,28,29
 686 881 686 881 813 778 c 1,30,-1
 813 883 l 1,31,-1
 965 883 l 1,32,-1
 965 213 l 2,33,34
 965 147 965 147 1014 147 c 2,35,-1
 1024 147 l 1,36,-1
 1024 0 l 1,37,-1
 1014 0 l 2,0,1
EndSplineSet
EndChar

StartChar: afii57448
Encoding: 1608 1608 254
Width: 676
GlyphClass: 2
Flags: W
AnchorPoint: "Anchor-1" 450 -600 basechar 0
AnchorPoint: "Anchor-0" 540 1095 basechar 0
LayerCount: 2
Fore
SplineSet
676 -20 m 2,0,1
 676 -199 676 -199 547 -317 c 1,2,-1
 434 -219 l 1,3,4
 524 -134 524 -134 524 0 c 1,5,6
 345 0 345 0 219 129 c 0,7,8
 94 260 94 260 94 440 c 0,9,10
 94 622 94 622 221 752 c 0,11,12
 284 817 284 817 361.5 849 c 128,-1,13
 439 881 439 881 530 881 c 2,14,-1
 674 881 l 1,15,-1
 676 -20 l 2,0,1
522 733 m 1,16,17
 416 733 416 733 330 641 c 0,18,19
 286 595 286 595 265 544.5 c 128,-1,20
 244 494 244 494 244 440 c 0,21,22
 244 380 244 380 263.5 329 c 128,-1,23
 283 278 283 278 324 236 c 0,24,25
 403 147 403 147 522 147 c 1,26,-1
 522 733 l 1,16,17
EndSplineSet
Substitution2: "'fina' Terminal Forms in Arabic lookup 2 subtable" afii62829
EndChar

StartChar: afii62829
Encoding: 65262 65262 255
Width: 731
GlyphClass: 2
Flags: W
AnchorPoint: "Anchor-1" 480 -555 basechar 0
AnchorPoint: "Anchor-0" 450 1110 basechar 0
LayerCount: 2
Fore
SplineSet
676 0 m 1,0,-1
 676 -20 l 2,1,2
 676 -199 676 -199 547 -317 c 1,3,-1
 434 -219 l 1,4,5
 524 -134 524 -134 524 0 c 1,6,7
 345 0 345 0 219 129 c 0,8,9
 94 260 94 260 94 440 c 0,10,11
 94 622 94 622 221 752 c 0,12,13
 284 817 284 817 361.5 849 c 128,-1,14
 439 881 439 881 530 881 c 2,15,-1
 676 881 l 1,16,-1
 676 147 l 1,17,-1
 741 147 l 1,18,-1
 741 0 l 1,19,-1
 676 0 l 1,0,-1
522 733 m 1,20,21
 416 733 416 733 330 641 c 0,22,23
 286 595 286 595 265 544.5 c 128,-1,24
 244 494 244 494 244 440 c 0,25,26
 244 380 244 380 263.5 329 c 128,-1,27
 283 278 283 278 324 236 c 0,28,29
 403 147 403 147 522 147 c 1,30,-1
 522 733 l 1,20,21
EndSplineSet
EndChar

StartChar: afii62840
Encoding: 65275 65275 268
Width: 492
GlyphClass: 3
Flags: W
AnchorPoint: "Anchor-3" 360 -435 baselig 0
AnchorPoint: "Anchor-2" 420 1245 baselig 0
AnchorPoint: "Anchor-3" 135 -450 baselig 1
AnchorPoint: "Anchor-2" 180 1245 baselig 1
LayerCount: 2
Fore
SplineSet
94 70 m 1,0,-1
 94 1147 l 1,1,-1
 246 1147 l 1,2,-1
 246 70 l 1,3,-1
 94 70 l 1,0,-1
492 0 m 2,4,5
 492 -41 492 -41 476 -77 c 128,-1,6
 460 -113 460 -113 432 -139.5 c 128,-1,7
 404 -166 404 -166 367.5 -181.5 c 128,-1,8
 331 -197 331 -197 291 -197 c 0,9,10
 250 -197 250 -197 214 -181.5 c 128,-1,11
 178 -166 178 -166 151.5 -139.5 c 128,-1,12
 125 -113 125 -113 109.5 -77 c 128,-1,13
 94 -41 94 -41 94 0 c 1,14,-1
 248 0 l 1,15,16
 248 -43 248 -43 295 -43 c 256,17,18
 342 -43 342 -43 342 0 c 2,19,-1
 342 1147 l 1,20,-1
 492 1147 l 1,21,-1
 492 0 l 2,4,5
EndSplineSet
Ligature2: "'rlig' Required Ligatures in Arabic lookup 5 subtable" afii62817 afii62760
Substitution2: "'fina' Terminal Forms in Arabic lookup 2 subtable" afii62841
EndChar

StartChar: afii62841
Encoding: 65276 65276 269
Width: 539
GlyphClass: 3
Flags: W
AnchorPoint: "Anchor-3" 360 -465 baselig 0
AnchorPoint: "Anchor-2" 420 1260 baselig 0
AnchorPoint: "Anchor-3" 135 -465 baselig 1
AnchorPoint: "Anchor-2" 165 1275 baselig 1
LayerCount: 2
Fore
SplineSet
539 0 m 2,0,1
 516 0 516 0 492 6 c 1,2,-1
 492 0 l 2,3,4
 492 -41 492 -41 476 -77 c 128,-1,5
 460 -113 460 -113 432 -139.5 c 128,-1,6
 404 -166 404 -166 367.5 -181.5 c 128,-1,7
 331 -197 331 -197 291 -197 c 0,8,9
 250 -197 250 -197 214 -181.5 c 128,-1,10
 178 -166 178 -166 151.5 -139.5 c 128,-1,11
 125 -113 125 -113 109.5 -77 c 128,-1,12
 94 -41 94 -41 94 0 c 1,13,-1
 248 0 l 1,14,15
 248 -43 248 -43 295 -43 c 256,16,17
 342 -43 342 -43 342 0 c 2,18,-1
 342 1147 l 1,19,-1
 492 1147 l 1,20,-1
 492 190 l 2,21,22
 492 147 492 147 537 147 c 2,23,-1
 551 147 l 1,24,-1
 551 0 l 1,25,-1
 539 0 l 2,0,1
94 70 m 1,26,-1
 94 1147 l 1,27,-1
 246 1147 l 1,28,-1
 246 70 l 1,29,-1
 94 70 l 1,26,-1
EndSplineSet
Ligature2: "'rlig' Required Ligatures in Arabic lookup 5 subtable" afii62818 afii62760
EndChar

StartChar: afii59759
Encoding: 3663 3663 276
Width: 1233
GlyphClass: 2
Flags: W
LayerCount: 2
Fore
SplineSet
616 983 m 0,0,1
 823 983 823 983 969.5 836.5 c 128,-1,2
 1116 690 1116 690 1116 483 c 0,3,4
 1116 277 1116 277 969.5 130.5 c 128,-1,5
 823 -16 823 -16 616 -16 c 0,6,7
 410 -16 410 -16 263.5 130.5 c 128,-1,8
 117 277 117 277 117 483 c 0,9,10
 117 690 117 690 263.5 836.5 c 128,-1,11
 410 983 410 983 616 983 c 0,0,1
616 147 m 0,12,13
 758 147 758 147 849 242 c 128,-1,14
 940 337 940 337 940 483 c 256,15,16
 940 629 940 629 849 724 c 128,-1,17
 758 819 758 819 616 819 c 0,18,19
 475 819 475 819 384 724 c 128,-1,20
 293 629 293 629 293 483 c 256,21,22
 293 337 293 337 384 242 c 128,-1,23
 475 147 475 147 616 147 c 0,12,13
616 598 m 0,24,25
 664 598 664 598 697.5 565 c 128,-1,26
 731 532 731 532 731 485 c 256,27,28
 731 438 731 438 697.5 404.5 c 128,-1,29
 664 371 664 371 616 371 c 0,30,31
 569 371 569 371 535.5 404.5 c 128,-1,32
 502 438 502 438 502 485 c 256,33,34
 502 532 502 532 535.5 565 c 128,-1,35
 569 598 569 598 616 598 c 0,24,25
EndSplineSet
EndChar

StartChar: afii59760
Encoding: 3664 3664 277
Width: 1233
GlyphClass: 2
Flags: W
LayerCount: 2
Fore
SplineSet
616 924 m 0,0,1
 834 924 834 924 975 794.5 c 128,-1,2
 1116 665 1116 665 1116 453 c 0,3,4
 1116 242 1116 242 975 113 c 128,-1,5
 834 -16 834 -16 616 -16 c 0,6,7
 399 -16 399 -16 258 113 c 128,-1,8
 117 242 117 242 117 453 c 0,9,10
 117 665 117 665 258 794.5 c 128,-1,11
 399 924 399 924 616 924 c 0,0,1
616 150 m 0,12,13
 765 150 765 150 852.5 231 c 128,-1,14
 940 312 940 312 940 453 c 256,15,16
 940 594 940 594 852 677 c 128,-1,17
 764 760 764 760 616 760 c 0,18,19
 469 760 469 760 381 677 c 128,-1,20
 293 594 293 594 293 453 c 0,21,22
 293 310 293 310 381.5 230 c 128,-1,23
 470 150 470 150 616 150 c 0,12,13
EndSplineSet
EndChar

StartChar: glyph279
Encoding: 65559 -1 279
Width: 0
GlyphClass: 2
Flags: W
LayerCount: 2
Fore
SplineSet
36 1831 m 1,0,-1
 36 863 l 1,1,-1
 -36 863 l 1,2,-1
 -36 1831 l 1,3,-1
 36 1831 l 1,0,-1
36 543 m 1,4,-1
 36 -423 l 1,5,-1
 -36 -423 l 1,6,-1
 -36 543 l 1,7,-1
 36 543 l 1,4,-1
EndSplineSet
EndChar

StartChar: glyph280
Encoding: 65560 -1 280
Width: 0
GlyphClass: 2
Flags: W
LayerCount: 2
Fore
SplineSet
-234 -423 m 1,0,-1
 -234 -352 l 1,1,-1
 -36 -352 l 1,2,-1
 -36 1760 l 1,3,-1
 -234 1760 l 1,4,-1
 -234 1831 l 1,5,-1
 234 1831 l 1,6,-1
 234 1760 l 1,7,-1
 36 1760 l 1,8,-1
 36 -352 l 1,9,-1
 234 -352 l 1,10,-1
 234 -423 l 1,11,-1
 -234 -423 l 1,0,-1
EndSplineSet
EndChar

StartChar: glyph281
Encoding: 65561 -1 281
Width: 0
GlyphClass: 2
Flags: W
LayerCount: 2
Fore
SplineSet
224 1646 m 1,0,-1
 36 1504 l 1,1,-1
 36 -423 l 1,2,-1
 -36 -423 l 1,3,-1
 -36 1831 l 1,4,-1
 224 1646 l 1,0,-1
EndSplineSet
EndChar

StartChar: glyph282
Encoding: 65562 -1 282
Width: 0
GlyphClass: 2
Flags: W
LayerCount: 2
Fore
SplineSet
36 1831 m 1,0,-1
 36 -423 l 1,1,-1
 -36 -423 l 1,2,-1
 -36 1504 l 1,3,-1
 -224 1646 l 1,4,-1
 36 1831 l 1,0,-1
EndSplineSet
EndChar

StartChar: glyph283
Encoding: 65563 -1 283
Width: 0
GlyphClass: 2
Flags: W
LayerCount: 2
Fore
SplineSet
36 1831 m 1,0,-1
 36 -352 l 1,1,-1
 234 -352 l 1,2,-1
 234 -423 l 1,3,-1
 -36 -423 l 1,4,-1
 -36 1831 l 1,5,-1
 36 1831 l 1,0,-1
EndSplineSet
EndChar

StartChar: glyph284
Encoding: 65564 -1 284
Width: 0
GlyphClass: 2
Flags: W
LayerCount: 2
Fore
SplineSet
224 1646 m 1,0,-1
 36 1504 l 1,1,-1
 36 -423 l 1,2,-1
 -36 -423 l 1,3,-1
 -36 1504 l 1,4,-1
 -224 1641 l 1,5,-1
 0 1831 l 1,6,-1
 224 1646 l 1,0,-1
EndSplineSet
EndChar

StartChar: uni0670
Encoding: 1648 1648 297
Width: 0
GlyphClass: 4
Flags: W
AnchorPoint: "Anchor-2" 0 0 mark 0
AnchorPoint: "Anchor-0" 0 0 mark 0
LayerCount: 2
Fore
SplineSet
-30 0 m 1,0,-1
 -30 191 l 1,1,-1
 27 191 l 1,2,-1
 27 0 l 1,3,-1
 -30 0 l 1,0,-1
EndSplineSet
EndChar

StartChar: glyph298
Encoding: 65565 -1 298
Width: 458
GlyphClass: 2
Flags: W
LayerCount: 2
Fore
SplineSet
235 1433 m 2,0,1
 266 1457 266 1457 294 1461.5 c 128,-1,2
 322 1466 322 1466 343 1455 c 128,-1,3
 364 1444 364 1444 377 1419 c 128,-1,4
 390 1394 390 1394 390 1357 c 2,5,-1
 389 1277 l 1,6,-1
 69 1277 l 1,7,-1
 69 1335 l 1,8,-1
 123 1335 l 1,9,-1
 235 1433 l 2,0,1
203 1335 m 1,10,-1
 331 1335 l 1,11,-1
 331 1365 l 2,12,13
 329 1394 329 1394 311 1402 c 128,-1,14
 293 1410 293 1410 263 1388 c 2,15,-1
 203 1335 l 1,10,-1
EndSplineSet
EndChar

StartChar: glyph299
Encoding: 65566 -1 299
Width: 969
GlyphClass: 2
Flags: W
LayerCount: 2
Fore
SplineSet
969 242 m 2,0,1
 969 138 969 138 932.5 56.5 c 128,-1,2
 896 -25 896 -25 821 -88 c 0,3,4
 695 -199 695 -199 530 -199 c 0,5,6
 348 -199 348 -199 221 -72 c 256,7,8
 94 55 94 55 94 236 c 2,9,-1
 94 883 l 1,10,-1
 244 883 l 1,11,-1
 244 236 l 2,12,13
 244 176 244 176 264 124.5 c 128,-1,14
 284 73 284 73 326 31 c 256,15,16
 368 -11 368 -11 419 -31 c 128,-1,17
 470 -51 470 -51 530 -51 c 0,18,19
 632 -51 632 -51 709 10 c 1,20,21
 678 10 678 10 606 47 c 0,22,23
 488 110 488 110 428.5 208.5 c 128,-1,24
 369 307 369 307 369 444 c 0,25,26
 369 631 369 631 500 756 c 0,27,28
 633 883 633 883 817 883 c 2,29,-1
 969 883 l 1,30,-1
 969 242 l 2,0,1
817 737 m 1,31,32
 693 737 693 737 604 651 c 0,33,34
 518 568 518 568 518 442 c 0,35,36
 515 324 515 324 598 238 c 0,37,38
 679 153 679 153 801 145 c 1,39,40
 809 170 809 170 813 197.5 c 128,-1,41
 817 225 817 225 817 256 c 2,42,-1
 817 737 l 1,31,32
EndSplineSet
EndChar

StartChar: uni06DD
Encoding: 1757 1757 388
Width: 2300
GlyphClass: 2
Flags: W
LayerCount: 2
Fore
SplineSet
2250 715 m 256,0,1
 2250 469 2250 469 2146 249 c 0,2,3
 2046 35 2046 35 1867 -119 c 1,4,5
 1870 -133 1870 -133 1870 -148 c 0,6,7
 1870 -203 1870 -203 1831 -241.5 c 128,-1,8
 1792 -280 1792 -280 1737 -280 c 0,9,10
 1697 -280 1697 -280 1664 -258 c 1,11,12
 1424 -385 1424 -385 1149 -385 c 0,13,14
 876 -385 876 -385 636 -258 c 1,15,16
 603 -280 603 -280 563 -280 c 0,17,18
 508 -280 508 -280 469 -241.5 c 128,-1,19
 430 -203 430 -203 430 -148 c 0,20,21
 430 -133 430 -133 433 -119 c 1,22,23
 254 35 254 35 154 249 c 0,24,25
 50 469 50 469 50 715 c 256,26,27
 50 961 50 961 154 1181 c 0,28,29
 254 1394 254 1394 433 1548 c 1,30,31
 430 1562 430 1562 430 1577 c 0,32,33
 430 1632 430 1632 469 1670.5 c 128,-1,34
 508 1709 508 1709 563 1709 c 0,35,36
 603 1709 603 1709 636 1687 c 1,37,38
 876 1814 876 1814 1151 1814 c 0,39,40
 1424 1814 1424 1814 1664 1687 c 1,41,42
 1697 1709 1697 1709 1737 1709 c 0,43,44
 1792 1709 1792 1709 1831 1670.5 c 128,-1,45
 1870 1632 1870 1632 1870 1577 c 0,46,47
 1870 1562 1870 1562 1867 1548 c 1,48,49
 2046 1394 2046 1394 2146 1181 c 0,50,51
 2250 961 2250 961 2250 715 c 256,0,1
1816 1576 m 0,52,53
 1816 1609 1816 1609 1793 1632 c 128,-1,54
 1770 1655 1770 1655 1738 1655 c 256,55,56
 1706 1655 1706 1655 1682.5 1631.5 c 128,-1,57
 1659 1608 1659 1608 1659 1576 c 256,58,59
 1659 1544 1659 1544 1682 1521 c 128,-1,60
 1705 1498 1705 1498 1738 1498 c 0,61,62
 1770 1498 1770 1498 1793 1521 c 128,-1,63
 1816 1544 1816 1544 1816 1576 c 0,52,53
1602 1595 m 1,64,65
 1390 1704 1390 1704 1151 1704 c 0,66,67
 910 1704 910 1704 698 1595 c 1,68,-1
 1602 1595 l 1,64,65
641 1576 m 256,69,70
 641 1608 641 1608 617.5 1631.5 c 128,-1,71
 594 1655 594 1655 562 1655 c 256,72,73
 530 1655 530 1655 507 1632 c 128,-1,74
 484 1609 484 1609 484 1576 c 0,75,76
 484 1544 484 1544 507 1521 c 128,-1,77
 530 1498 530 1498 562 1498 c 0,78,79
 595 1498 595 1498 618 1521 c 128,-1,80
 641 1544 641 1544 641 1576 c 256,69,70
2140 714 m 0,81,82
 2140 933 2140 933 2048 1131 c 0,83,84
 1960 1321 1960 1321 1801 1460 c 1,85,86
 1772 1444 1772 1444 1737 1444 c 0,87,88
 1681 1444 1681 1444 1642 1485 c 1,89,-1
 658 1485 l 1,90,91
 619 1444 619 1444 563 1444 c 0,92,93
 528 1444 528 1444 499 1460 c 1,94,95
 340 1321 340 1321 252 1131 c 0,96,97
 160 933 160 933 160 714 c 0,98,99
 160 265 160 265 499 -31 c 1,100,101
 528 -15 528 -15 563 -15 c 0,102,103
 619 -15 619 -15 658 -56 c 1,104,-1
 1642 -56 l 1,105,106
 1681 -15 1681 -15 1737 -15 c 0,107,108
 1772 -15 1772 -15 1801 -31 c 1,109,110
 2140 265 2140 265 2140 714 c 0,81,82
1816 -147 m 0,111,112
 1816 -115 1816 -115 1793 -92 c 128,-1,113
 1770 -69 1770 -69 1738 -69 c 0,114,115
 1705 -69 1705 -69 1682 -92 c 128,-1,116
 1659 -115 1659 -115 1659 -147 c 256,117,118
 1659 -179 1659 -179 1682.5 -202.5 c 128,-1,119
 1706 -226 1706 -226 1738 -226 c 256,120,121
 1770 -226 1770 -226 1793 -203 c 128,-1,122
 1816 -180 1816 -180 1816 -147 c 0,111,112
1602 -166 m 1,123,-1
 698 -166 l 1,124,125
 910 -275 910 -275 1151 -275 c 0,126,127
 1390 -275 1390 -275 1602 -166 c 1,123,-1
641 -147 m 256,128,129
 641 -115 641 -115 618 -92 c 128,-1,130
 595 -69 595 -69 562 -69 c 0,131,132
 530 -69 530 -69 507 -92 c 128,-1,133
 484 -115 484 -115 484 -147 c 0,134,135
 484 -180 484 -180 507 -203 c 128,-1,136
 530 -226 530 -226 562 -226 c 256,137,138
 594 -226 594 -226 617.5 -202.5 c 128,-1,139
 641 -179 641 -179 641 -147 c 256,128,129
EndSplineSet
EndChar

StartChar: uni06DE
Encoding: 1758 1758 389
Width: 2221
GlyphClass: 2
Flags: W
LayerCount: 2
Fore
SplineSet
2171 750 m 1,0,-1
 1861 439 l 1,1,-1
 1861 0 l 1,2,-1
 1421 0 l 1,3,-1
 1111 -311 l 1,4,-1
 800 0 l 1,5,-1
 361 0 l 1,6,-1
 361 439 l 1,7,-1
 50 750 l 1,8,-1
 361 1061 l 1,9,-1
 361 1500 l 1,10,-1
 800 1500 l 1,11,-1
 1111 1811 l 1,12,-1
 1421 1500 l 1,13,-1
 1861 1500 l 1,14,-1
 1861 1061 l 1,15,-1
 2171 750 l 1,0,-1
436 364 m 1,16,-1
 436 75 l 1,17,-1
 725 75 l 1,18,-1
 436 364 l 1,16,-1
725 1425 m 1,19,-1
 436 1425 l 1,20,-1
 436 1136 l 1,21,-1
 725 1425 l 1,19,-1
1786 1136 m 1,22,-1
 1786 1425 l 1,23,-1
 1496 1425 l 1,24,-1
 1786 1136 l 1,22,-1
1786 75 m 1,25,-1
 1786 364 l 1,26,-1
 1496 75 l 1,27,-1
 1786 75 l 1,25,-1
906 0 m 1,28,-1
 1111 -205 l 1,29,-1
 1315 0 l 1,30,-1
 906 0 l 1,28,-1
361 955 m 1,31,-1
 156 750 l 1,32,-1
 361 545 l 1,33,-1
 361 955 l 1,31,-1
1315 1500 m 1,34,-1
 1111 1705 l 1,35,-1
 906 1500 l 1,36,-1
 1315 1500 l 1,34,-1
1786 1030 m 1,37,-1
 1390 1425 l 1,38,-1
 831 1425 l 1,39,-1
 436 1030 l 1,40,-1
 436 470 l 1,41,-1
 831 75 l 1,42,-1
 1390 75 l 1,43,-1
 1786 470 l 1,44,-1
 1786 1030 l 1,37,-1
2065 750 m 1,45,-1
 1861 955 l 1,46,-1
 1861 545 l 1,47,-1
 2065 750 l 1,45,-1
1328 750 m 256,48,49
 1328 660 1328 660 1264.5 596 c 128,-1,50
 1201 532 1201 532 1111 532 c 256,51,52
 1021 532 1021 532 957 596 c 128,-1,53
 893 660 893 660 893 750 c 256,54,55
 893 840 893 840 957 903.5 c 128,-1,56
 1021 967 1021 967 1111 967 c 256,57,58
 1201 967 1201 967 1264.5 903.5 c 128,-1,59
 1328 840 1328 840 1328 750 c 256,48,49
1253 750 m 256,60,61
 1253 809 1253 809 1211 850.5 c 128,-1,62
 1169 892 1169 892 1110 892 c 256,63,64
 1051 892 1051 892 1009 850.5 c 128,-1,65
 967 809 967 809 967 750 c 256,66,67
 967 691 967 691 1009 649 c 128,-1,68
 1051 607 1051 607 1110 607 c 256,69,70
 1169 607 1169 607 1211 649 c 128,-1,71
 1253 691 1253 691 1253 750 c 256,60,61
EndSplineSet
EndChar

StartChar: uni06DF
Encoding: 1759 1759 390
Width: 0
GlyphClass: 2
Flags: W
LayerCount: 2
Fore
SplineSet
75 1429 m 256,0,1
 75 1398 75 1398 53 1376 c 128,-1,2
 31 1354 31 1354 0 1354 c 256,3,4
 -31 1354 -31 1354 -53 1376 c 128,-1,5
 -75 1398 -75 1398 -75 1429 c 256,6,7
 -75 1460 -75 1460 -53 1482 c 128,-1,8
 -31 1504 -31 1504 0 1504 c 256,9,10
 31 1504 31 1504 53 1482 c 128,-1,11
 75 1460 75 1460 75 1429 c 256,0,1
EndSplineSet
EndChar

StartChar: uni06E9
Encoding: 1769 1769 391
Width: 1229
GlyphClass: 2
Flags: W
LayerCount: 2
Fore
SplineSet
1179 0 m 1,0,-1
 50 0 l 1,1,-1
 278 261 l 1,2,-1
 278 849 l 1,3,-1
 50 1108 l 1,4,-1
 614 1676 l 1,5,-1
 1179 1108 l 1,6,-1
 951 849 l 1,7,-1
 951 261 l 1,8,-1
 1179 0 l 1,0,-1
1101 1108 m 1,9,-1
 614 1598 l 1,10,-1
 128 1108 l 1,11,-1
 338 871 l 1,12,-1
 338 239 l 1,13,-1
 178 56 l 1,14,-1
 1051 56 l 1,15,-1
 891 239 l 1,16,-1
 891 871 l 1,17,-1
 1101 1108 l 1,9,-1
995 1108 m 1,18,-1
 845 937 l 1,19,-1
 845 131 l 1,20,-1
 384 131 l 1,21,-1
 384 937 l 1,22,-1
 234 1108 l 1,23,-1
 614 1489 l 1,24,-1
 995 1108 l 1,18,-1
922 1108 m 1,25,-1
 614 1416 l 1,26,-1
 307 1108 l 1,27,-1
 433 968 l 1,28,-1
 433 186 l 1,29,-1
 796 186 l 1,30,-1
 796 968 l 1,31,-1
 922 1108 l 1,25,-1
833 1108 m 1,32,-1
 745 1011 l 1,33,-1
 745 267 l 1,34,-1
 484 267 l 1,35,-1
 484 1011 l 1,36,-1
 396 1108 l 1,37,-1
 614 1331 l 1,38,-1
 833 1108 l 1,32,-1
780 1108 m 1,39,-1
 614 1278 l 1,40,-1
 449 1108 l 1,41,-1
 523 1027 l 1,42,-1
 523 309 l 1,43,-1
 705 309 l 1,44,-1
 705 1027 l 1,45,-1
 780 1108 l 1,39,-1
EndSplineSet
EndChar

StartChar: uni06EB
Encoding: 1771 1771 393
Width: 0
GlyphClass: 2
Flags: W
LayerCount: 2
Fore
SplineSet
168 1522 m 1,0,-1
 -1 1354 l 1,1,-1
 -168 1521 l 1,2,-1
 1 1689 l 1,3,-1
 168 1522 l 1,0,-1
104 1522 m 1,4,-1
 0 1626 l 1,5,-1
 -104 1521 l 1,6,-1
 0 1417 l 1,7,-1
 104 1522 l 1,4,-1
EndSplineSet
EndChar

StartChar: comma
Encoding: 44 44 402
Width: 455
Flags: W
LayerCount: 2
Fore
SplineSet
146 0 m 1,0,-1
 146 164 l 1,1,-1
 310 164 l 1,2,-1
 310 0 l 2,3,4
 310 -90 310 -90 278 -146 c 128,-1,5
 246 -202 246 -202 176 -232 c 1,6,-1
 136 -170 l 1,7,8
 182 -150 182 -150 203.5 -111.5 c 128,-1,9
 225 -73 225 -73 227 0 c 1,10,-1
 146 0 l 1,0,-1
EndSplineSet
EndChar

StartChar: afii57407
Encoding: 1567 1567 403
Width: 494
GlyphClass: 2
Flags: W
LayerCount: 2
Fore
SplineSet
342 598 m 1,0,-1
 342 934 l 2,1,2
 342 989 342 989 293 989 c 0,3,4
 246 989 246 989 246 934 c 2,5,-1
 246 555 l 2,6,7
 246 504 246 504 299 504 c 2,8,-1
 492 504 l 1,9,-1
 492 209 l 1,10,-1
 342 209 l 1,11,-1
 342 379 l 1,12,-1
 276 379 l 2,13,14
 94 379 94 379 94 616 c 2,15,-1
 94 948 l 2,16,17
 94 990 94 990 109 1026.5 c 128,-1,18
 124 1063 124 1063 151 1090 c 128,-1,19
 178 1117 178 1117 214.5 1132 c 128,-1,20
 251 1147 251 1147 293 1147 c 0,21,22
 333 1147 333 1147 369 1132 c 128,-1,23
 405 1117 405 1117 432.5 1090.5 c 128,-1,24
 460 1064 460 1064 476 1029 c 128,-1,25
 492 994 492 994 492 954 c 2,26,-1
 492 598 l 1,27,-1
 342 598 l 1,0,-1
494 74 m 0,28,29
 494 -2 494 -2 420 -2 c 0,30,31
 388 -2 388 -2 366 20.5 c 128,-1,32
 344 43 344 43 344 74 c 256,33,34
 344 105 344 105 366 126 c 128,-1,35
 388 147 388 147 420 147 c 0,36,37
 451 147 451 147 472.5 126 c 128,-1,38
 494 105 494 105 494 74 c 0,28,29
EndSplineSet
EndChar

StartChar: afii57392
Encoding: 1776 1776 404
Width: 421
Flags: W
LayerCount: 2
Fore
SplineSet
340 310 m 0,0,1
 340 284 340 284 330.5 262.5 c 128,-1,2
 321 241 321 241 304.5 224.5 c 128,-1,3
 288 208 288 208 265.5 199 c 128,-1,4
 243 190 243 190 218 190 c 0,5,6
 192 190 192 190 170.5 199 c 128,-1,7
 149 208 149 208 132.5 224.5 c 128,-1,8
 116 241 116 241 107 262.5 c 128,-1,9
 98 284 98 284 98 310 c 0,10,11
 98 335 98 335 107 357 c 128,-1,12
 116 379 116 379 132.5 395 c 128,-1,13
 149 411 149 411 170.5 420.5 c 128,-1,14
 192 430 192 430 218 430 c 0,15,16
 243 430 243 430 265.5 420.5 c 128,-1,17
 288 411 288 411 304.5 395 c 128,-1,18
 321 379 321 379 330.5 357 c 128,-1,19
 340 335 340 335 340 310 c 0,0,1
EndSplineSet
EndChar

StartChar: afii57393
Encoding: 1777 1777 405
Width: 246
Flags: W
LayerCount: 2
Fore
SplineSet
94 0 m 1,0,-1
 94 1079 l 1,1,-1
 246 1079 l 1,2,-1
 246 0 l 1,3,-1
 94 0 l 1,0,-1
EndSplineSet
EndChar

StartChar: afii57394
Encoding: 1778 1778 406
Width: 492
Flags: W
LayerCount: 2
Fore
SplineSet
492 432 m 2,0,1
 492 181 492 181 283 195 c 0,2,3
 278 195 278 195 269 195 c 128,-1,4
 260 195 260 195 246 197 c 1,5,-1
 246 0 l 1,6,-1
 94 0 l 1,7,-1
 94 1079 l 1,8,-1
 246 1079 l 1,9,-1
 246 422 l 2,10,11
 246 342 246 342 293 342 c 0,12,13
 342 342 342 342 342 422 c 2,14,-1
 342 1077 l 1,15,-1
 492 1077 l 1,16,-1
 492 432 l 2,0,1
EndSplineSet
EndChar

StartChar: afii57395
Encoding: 1779 1779 407
Width: 737
Flags: W
LayerCount: 2
Fore
SplineSet
737 428 m 2,0,1
 737 279 737 279 670 233 c 0,2,3
 623 200 623 200 539 197 c 0,4,5
 532 195 532 195 518.5 195.5 c 128,-1,6
 505 196 505 196 485 201 c 0,7,8
 461 206 461 206 443 212 c 128,-1,9
 425 218 425 218 414 227 c 1,10,11
 368 194 368 194 287 197 c 2,12,-1
 246 199 l 1,13,-1
 246 0 l 1,14,-1
 94 0 l 1,15,-1
 94 1079 l 1,16,-1
 246 1079 l 1,17,-1
 246 422 l 2,18,19
 246 342 246 342 293 342 c 0,20,21
 342 342 342 342 342 422 c 2,22,-1
 342 1079 l 1,23,-1
 492 1079 l 1,24,-1
 492 422 l 2,25,26
 492 342 492 342 539 342 c 0,27,28
 588 342 588 342 588 424 c 2,29,-1
 588 1079 l 1,30,-1
 737 1079 l 1,31,-1
 737 428 l 2,0,1
EndSplineSet
EndChar

StartChar: afii62843
Encoding: 1780 1780 408
Width: 846
Flags: W
LayerCount: 2
Fore
SplineSet
246 197 m 1,0,-1
 246 0 l 1,1,-1
 94 0 l 1,2,-1
 94 1079 l 1,3,-1
 246 1079 l 1,4,-1
 246 412 l 2,5,6
 246 344 246 344 297 344 c 2,7,-1
 416 344 l 1,8,9
 303 469 303 469 303 639 c 0,10,11
 303 820 303 820 428 948 c 0,12,13
 553 1079 553 1079 737 1079 c 2,14,-1
 846 1079 l 1,15,-1
 846 932 l 1,16,-1
 737 932 l 2,17,18
 618 932 618 932 535 846 c 0,19,20
 451 759 451 759 451 639 c 0,21,22
 451 518 451 518 535 430 c 0,23,24
 618 344 618 344 737 344 c 2,25,-1
 846 344 l 1,26,-1
 846 197 l 1,27,-1
 246 197 l 1,0,-1
EndSplineSet
EndChar

StartChar: afii62844
Encoding: 1781 1781 409
Width: 1125
Flags: W
LayerCount: 2
Fore
SplineSet
1071 541 m 0,0,1
 1071 311 1071 311 915 156 c 0,2,3
 763 0 763 0 535 0 c 0,4,5
 455 0 455 0 414 31 c 1,6,7
 371 0 371 0 295 0 c 0,8,9
 94 0 94 0 94 227 c 2,10,-1
 94 883 l 1,11,-1
 246 883 l 1,12,-1
 246 227 l 2,13,14
 246 147 246 147 295 147 c 0,15,16
 342 147 342 147 342 227 c 2,17,-1
 342 342 l 1,18,-1
 492 342 l 1,19,-1
 492 227 l 2,20,21
 492 147 492 147 530 147 c 0,22,23
 612 147 612 147 680 176 c 128,-1,24
 748 205 748 205 805 262 c 0,25,26
 920 377 920 377 920 539 c 0,27,28
 920 704 920 704 807 817 c 256,29,30
 694 930 694 930 528 930 c 2,31,-1
 94 930 l 1,32,-1
 94 1079 l 1,33,-1
 528 1079 l 2,34,35
 758 1079 758 1079 913 924 c 0,36,37
 1071 766 1071 766 1071 541 c 0,0,1
EndSplineSet
EndChar

StartChar: afii62845
Encoding: 1782 1782 410
Width: 684
Flags: W
LayerCount: 2
Fore
SplineSet
543 934 m 2,0,1
 421 934 421 934 332 848 c 0,2,3
 246 766 246 766 246 639 c 0,4,5
 246 579 246 579 265.5 528 c 128,-1,6
 285 477 285 477 324 432 c 0,7,8
 366 387 366 387 415 364.5 c 128,-1,9
 464 342 464 342 524 342 c 2,10,-1
 575 342 l 1,11,-1
 680 240 l 1,12,-1
 438 0 l 1,13,-1
 334 106 l 1,14,-1
 434 207 l 1,15,16
 404 207 404 207 334 244 c 0,17,18
 94 370 94 370 94 641 c 0,19,20
 94 825 94 825 225 950 c 0,21,22
 358 1077 358 1077 543 1077 c 2,23,-1
 684 1077 l 1,24,-1
 684 934 l 1,25,-1
 543 934 l 2,0,1
EndSplineSet
EndChar

StartChar: afii57399
Encoding: 1783 1783 411
Width: 969
Flags: W
LayerCount: 2
Fore
SplineSet
969 406 m 2,0,1
 969 215 969 215 829 92 c 0,2,3
 702 -20 702 -20 532 -20 c 0,4,5
 352 -20 352 -20 221 106 c 0,6,7
 94 233 94 233 94 416 c 2,8,-1
 94 1069 l 1,9,-1
 246 1069 l 1,10,-1
 246 416 l 2,11,12
 246 356 246 356 266 304.5 c 128,-1,13
 286 253 286 253 328 211 c 0,14,15
 412 127 412 127 532 127 c 0,16,17
 669 127 669 127 745 215 c 0,18,19
 819 296 819 296 819 436 c 2,20,-1
 819 1069 l 1,21,-1
 969 1069 l 1,22,-1
 969 406 l 2,0,1
EndSplineSet
EndChar

StartChar: afii57400
Encoding: 1784 1784 412
Width: 969
Flags: W
LayerCount: 2
Fore
SplineSet
819 0 m 1,0,-1
 819 631 l 2,1,2
 819 771 819 771 745 852 c 0,3,4
 669 940 669 940 532 940 c 0,5,6
 412 940 412 940 328 856 c 0,7,8
 246 775 246 775 246 653 c 2,9,-1
 246 0 l 1,10,-1
 94 0 l 1,11,-1
 94 653 l 2,12,13
 94 834 94 834 221 961 c 0,14,15
 352 1087 352 1087 532 1087 c 0,16,17
 617 1087 617 1087 690.5 1059.5 c 128,-1,18
 764 1032 764 1032 829 975 c 0,19,20
 969 852 969 852 969 662 c 2,21,-1
 969 0 l 1,22,-1
 819 0 l 1,0,-1
EndSplineSet
EndChar

StartChar: afii57401
Encoding: 1785 1785 413
Width: 977
Flags: W
LayerCount: 2
Fore
SplineSet
829 0 m 1,0,-1
 829 322 l 1,1,2
 768 265 768 265 694.5 237 c 128,-1,3
 621 209 621 209 535 209 c 0,4,5
 351 209 351 209 221 336 c 1,6,7
 94 466 94 466 94 649 c 0,8,9
 94 833 94 833 221 963 c 0,10,11
 347 1092 347 1092 532 1092 c 0,12,13
 708 1092 708 1092 836 979 c 0,14,15
 977 853 977 853 977 649 c 2,16,-1
 977 0 l 1,17,-1
 829 0 l 1,0,-1
825 647 m 0,18,19
 825 771 825 771 741 854 c 0,20,21
 657 938 657 938 535 938 c 0,22,23
 414 938 414 938 330 854 c 0,24,25
 246 771 246 771 246 649 c 0,26,27
 246 528 246 528 330 444 c 256,28,29
 414 360 414 360 535 360 c 0,30,31
 597 360 597 360 650 381.5 c 128,-1,32
 703 403 703 403 742 441 c 128,-1,33
 781 479 781 479 803 532 c 128,-1,34
 825 585 825 585 825 647 c 0,18,19
EndSplineSet
EndChar

StartChar: afii57392.001
Encoding: 1632 1632 414
Width: 412
Flags: W
LayerCount: 2
Fore
SplineSet
340 310 m 0,0,1
 340 284 340 284 330.5 262.5 c 128,-1,2
 321 241 321 241 304.5 224.5 c 128,-1,3
 288 208 288 208 265.5 199 c 128,-1,4
 243 190 243 190 218 190 c 0,5,6
 192 190 192 190 170.5 199 c 128,-1,7
 149 208 149 208 132.5 224.5 c 128,-1,8
 116 241 116 241 107 262.5 c 128,-1,9
 98 284 98 284 98 310 c 0,10,11
 98 335 98 335 107 357 c 128,-1,12
 116 379 116 379 132.5 395 c 128,-1,13
 149 411 149 411 170.5 420.5 c 128,-1,14
 192 430 192 430 218 430 c 0,15,16
 243 430 243 430 265.5 420.5 c 128,-1,17
 288 411 288 411 304.5 395 c 128,-1,18
 321 379 321 379 330.5 357 c 128,-1,19
 340 335 340 335 340 310 c 0,0,1
EndSplineSet
EndChar

StartChar: afii57393.001
Encoding: 1633 1633 415
Width: 246
Flags: W
LayerCount: 2
Fore
SplineSet
94 0 m 1,0,-1
 94 1079 l 1,1,-1
 246 1079 l 1,2,-1
 246 0 l 1,3,-1
 94 0 l 1,0,-1
EndSplineSet
EndChar

StartChar: afii57394.001
Encoding: 1634 1634 416
Width: 492
Flags: W
LayerCount: 2
Fore
SplineSet
492 432 m 2,0,1
 492 181 492 181 283 195 c 0,2,3
 278 195 278 195 269 195 c 128,-1,4
 260 195 260 195 246 197 c 1,5,-1
 246 0 l 1,6,-1
 94 0 l 1,7,-1
 94 1079 l 1,8,-1
 246 1079 l 1,9,-1
 246 422 l 2,10,11
 246 342 246 342 293 342 c 0,12,13
 342 342 342 342 342 422 c 2,14,-1
 342 1077 l 1,15,-1
 492 1077 l 1,16,-1
 492 432 l 2,0,1
EndSplineSet
EndChar

StartChar: afii57395.001
Encoding: 1635 1635 417
Width: 737
Flags: W
LayerCount: 2
Fore
SplineSet
737 428 m 2,0,1
 737 279 737 279 670 233 c 0,2,3
 623 200 623 200 539 197 c 0,4,5
 532 195 532 195 518.5 195.5 c 128,-1,6
 505 196 505 196 485 201 c 0,7,8
 461 206 461 206 443 212 c 128,-1,9
 425 218 425 218 414 227 c 1,10,11
 368 194 368 194 287 197 c 2,12,-1
 246 199 l 1,13,-1
 246 0 l 1,14,-1
 94 0 l 1,15,-1
 94 1079 l 1,16,-1
 246 1079 l 1,17,-1
 246 422 l 2,18,19
 246 342 246 342 293 342 c 0,20,21
 342 342 342 342 342 422 c 2,22,-1
 342 1079 l 1,23,-1
 492 1079 l 1,24,-1
 492 422 l 2,25,26
 492 342 492 342 539 342 c 0,27,28
 588 342 588 342 588 424 c 2,29,-1
 588 1079 l 1,30,-1
 737 1079 l 1,31,-1
 737 428 l 2,0,1
EndSplineSet
EndChar

StartChar: afii57396
Encoding: 1636 1636 418
Width: 846
Flags: W
LayerCount: 2
Fore
SplineSet
246 197 m 1,0,-1
 246 0 l 1,1,-1
 94 0 l 1,2,-1
 94 1079 l 1,3,-1
 246 1079 l 1,4,-1
 246 412 l 2,5,6
 246 344 246 344 297 344 c 2,7,-1
 416 344 l 1,8,9
 303 469 303 469 303 639 c 0,10,11
 303 820 303 820 428 948 c 0,12,13
 553 1079 553 1079 737 1079 c 2,14,-1
 846 1079 l 1,15,-1
 846 932 l 1,16,-1
 737 932 l 2,17,18
 618 932 618 932 535 846 c 0,19,20
 451 759 451 759 451 639 c 0,21,22
 451 518 451 518 535 430 c 0,23,24
 618 344 618 344 737 344 c 2,25,-1
 846 344 l 1,26,-1
 846 197 l 1,27,-1
 246 197 l 1,0,-1
EndSplineSet
EndChar

StartChar: afii57397
Encoding: 1637 1637 419
Width: 1109
Flags: W
LayerCount: 2
Fore
SplineSet
1071 541 m 0,0,1
 1071 311 1071 311 915 156 c 0,2,3
 763 0 763 0 535 0 c 0,4,5
 455 0 455 0 414 31 c 1,6,7
 371 0 371 0 295 0 c 0,8,9
 94 0 94 0 94 227 c 2,10,-1
 94 883 l 1,11,-1
 246 883 l 1,12,-1
 246 227 l 2,13,14
 246 147 246 147 295 147 c 0,15,16
 342 147 342 147 342 227 c 2,17,-1
 342 342 l 1,18,-1
 492 342 l 1,19,-1
 492 227 l 2,20,21
 492 147 492 147 530 147 c 0,22,23
 612 147 612 147 680 176 c 128,-1,24
 748 205 748 205 805 262 c 0,25,26
 920 377 920 377 920 539 c 0,27,28
 920 704 920 704 807 817 c 256,29,30
 694 930 694 930 528 930 c 2,31,-1
 94 930 l 1,32,-1
 94 1079 l 1,33,-1
 528 1079 l 2,34,35
 758 1079 758 1079 913 924 c 0,36,37
 1071 766 1071 766 1071 541 c 0,0,1
EndSplineSet
EndChar

StartChar: afii57398
Encoding: 1638 1638 420
Width: 684
Flags: W
LayerCount: 2
Fore
SplineSet
543 934 m 2,0,1
 421 934 421 934 332 848 c 0,2,3
 246 766 246 766 246 639 c 0,4,5
 246 579 246 579 265.5 528 c 128,-1,6
 285 477 285 477 324 432 c 0,7,8
 366 387 366 387 415 364.5 c 128,-1,9
 464 342 464 342 524 342 c 2,10,-1
 575 342 l 1,11,-1
 680 240 l 1,12,-1
 438 0 l 1,13,-1
 334 106 l 1,14,-1
 434 207 l 1,15,16
 404 207 404 207 334 244 c 0,17,18
 94 370 94 370 94 641 c 0,19,20
 94 825 94 825 225 950 c 0,21,22
 358 1077 358 1077 543 1077 c 2,23,-1
 684 1077 l 1,24,-1
 684 934 l 1,25,-1
 543 934 l 2,0,1
EndSplineSet
EndChar

StartChar: afii57399.001
Encoding: 1639 1639 421
Width: 969
Flags: W
LayerCount: 2
Fore
SplineSet
969 406 m 2,0,1
 969 215 969 215 829 92 c 0,2,3
 702 -20 702 -20 532 -20 c 0,4,5
 352 -20 352 -20 221 106 c 0,6,7
 94 233 94 233 94 416 c 2,8,-1
 94 1069 l 1,9,-1
 246 1069 l 1,10,-1
 246 416 l 2,11,12
 246 356 246 356 266 304.5 c 128,-1,13
 286 253 286 253 328 211 c 0,14,15
 412 127 412 127 532 127 c 0,16,17
 669 127 669 127 745 215 c 0,18,19
 819 296 819 296 819 436 c 2,20,-1
 819 1069 l 1,21,-1
 969 1069 l 1,22,-1
 969 406 l 2,0,1
EndSplineSet
EndChar

StartChar: afii57400.001
Encoding: 1640 1640 422
Width: 969
Flags: W
LayerCount: 2
Fore
SplineSet
819 0 m 1,0,-1
 819 631 l 2,1,2
 819 771 819 771 745 852 c 0,3,4
 669 940 669 940 532 940 c 0,5,6
 412 940 412 940 328 856 c 0,7,8
 246 775 246 775 246 653 c 2,9,-1
 246 0 l 1,10,-1
 94 0 l 1,11,-1
 94 653 l 2,12,13
 94 834 94 834 221 961 c 0,14,15
 352 1087 352 1087 532 1087 c 0,16,17
 617 1087 617 1087 690.5 1059.5 c 128,-1,18
 764 1032 764 1032 829 975 c 0,19,20
 969 852 969 852 969 662 c 2,21,-1
 969 0 l 1,22,-1
 819 0 l 1,0,-1
EndSplineSet
EndChar

StartChar: afii57401.001
Encoding: 1641 1641 423
Width: 977
Flags: W
LayerCount: 2
Fore
SplineSet
829 0 m 1,0,-1
 829 322 l 1,1,2
 768 265 768 265 694.5 237 c 128,-1,3
 621 209 621 209 535 209 c 0,4,5
 351 209 351 209 221 336 c 1,6,7
 94 466 94 466 94 649 c 0,8,9
 94 833 94 833 221 963 c 0,10,11
 347 1092 347 1092 532 1092 c 0,12,13
 708 1092 708 1092 836 979 c 0,14,15
 977 853 977 853 977 649 c 2,16,-1
 977 0 l 1,17,-1
 829 0 l 1,0,-1
825 647 m 0,18,19
 825 771 825 771 741 854 c 0,20,21
 657 938 657 938 535 938 c 0,22,23
 414 938 414 938 330 854 c 0,24,25
 246 771 246 771 246 649 c 0,26,27
 246 528 246 528 330 444 c 256,28,29
 414 360 414 360 535 360 c 0,30,31
 597 360 597 360 650 381.5 c 128,-1,32
 703 403 703 403 742 441 c 128,-1,33
 781 479 781 479 803 532 c 128,-1,34
 825 585 825 585 825 647 c 0,18,19
EndSplineSet
EndChar

StartChar: guillemotleft
Encoding: 171 171 424
Width: 836
Flags: W
LayerCount: 2
Fore
SplineSet
442 616 m 1,0,1
 387 507 387 507 387 393 c 0,2,3
 387 255 387 255 518 82 c 1,4,-1
 518 83 l 1,5,6
 538 60 538 60 547.5 44 c 128,-1,7
 557 28 557 28 560 20 c 0,8,9
 560 -5 560 -5 534 -5 c 0,10,11
 528 -5 528 -5 513 1 c 0,12,13
 377 71 377 71 294 168 c 1,14,-1
 294 167 l 1,15,16
 202 276 202 276 202 396 c 0,17,18
 203 448 203 448 222.5 500 c 128,-1,19
 242 552 242 552 280 603 c 0,20,21
 307 640 307 640 344.5 676.5 c 128,-1,22
 382 713 382 713 426 745 c 0,23,24
 499 799 499 799 528 799 c 0,25,26
 563 799 563 799 563 775 c 0,27,28
 563 765 563 765 555 757 c 0,29,30
 528 730 528 730 509 708 c 128,-1,31
 490 686 490 686 477 668.5 c 128,-1,32
 464 651 464 651 455.5 638 c 128,-1,33
 447 625 447 625 441 615 c 2,34,-1
 442 616 l 1,0,1
721 616 m 1,35,36
 666 507 666 507 666 393 c 0,37,38
 666 255 666 255 797 82 c 1,39,-1
 797 83 l 1,40,41
 817 60 817 60 826.5 44 c 128,-1,42
 836 28 836 28 839 20 c 0,43,44
 839 -5 839 -5 813 -5 c 0,45,46
 806 -5 806 -5 793 1 c 0,47,48
 725 36 725 36 670 77 c 128,-1,49
 615 118 615 118 573 168 c 1,50,-1
 573 167 l 1,51,52
 481 276 481 276 481 396 c 0,53,54
 482 448 482 448 501.5 500 c 128,-1,55
 521 552 521 552 559 603 c 0,56,57
 586 640 586 640 623.5 676.5 c 128,-1,58
 661 713 661 713 705 745 c 0,59,60
 778 799 778 799 807 799 c 0,61,62
 842 799 842 799 842 775 c 0,63,64
 842 765 842 765 834 757 c 0,65,66
 807 730 807 730 788 708 c 128,-1,67
 769 686 769 686 756 668.5 c 128,-1,68
 743 651 743 651 734.5 638 c 128,-1,69
 726 625 726 625 720 615 c 2,70,-1
 721 616 l 1,35,36
EndSplineSet
EndChar

StartChar: guillemotright
Encoding: 187 187 425
Width: 836
Flags: W
LayerCount: 2
Fore
SplineSet
573 622 m 1,0,1
 561 641 561 641 537.5 674.5 c 128,-1,2
 514 708 514 708 460 762 c 0,3,4
 452 770 452 770 452 780 c 0,5,6
 452 804 452 804 487 804 c 0,7,8
 514 804 514 804 588 751 c 0,9,10
 631 719 631 719 668 683 c 128,-1,11
 705 647 705 647 732 610 c 0,12,13
 769 559 769 559 788.5 508 c 128,-1,14
 808 457 808 457 809 406 c 0,15,16
 809 287 809 287 718 179 c 1,17,-1
 718 180 l 1,18,19
 636 83 636 83 501 15 c 0,20,21
 487 9 487 9 481 9 c 0,22,23
 455 9 455 9 455 34 c 0,24,25
 458 42 458 42 467.5 57.5 c 128,-1,26
 477 73 477 73 497 96 c 1,27,-1
 497 95 l 1,28,29
 626 266 626 266 626 403 c 0,30,31
 626 515 626 515 572 623 c 1,32,-1
 573 622 l 1,0,1
297 622 m 1,33,34
 285 641 285 641 261.5 674.5 c 128,-1,35
 238 708 238 708 184 762 c 0,36,37
 176 770 176 770 176 780 c 0,38,39
 176 804 176 804 211 804 c 0,40,41
 238 804 238 804 312 751 c 0,42,43
 355 719 355 719 392 683 c 128,-1,44
 429 647 429 647 456 610 c 0,45,46
 493 559 493 559 512.5 508 c 128,-1,47
 532 457 532 457 533 406 c 0,48,49
 533 287 533 287 442 179 c 1,50,-1
 442 180 l 1,51,52
 360 83 360 83 225 15 c 0,53,54
 211 9 211 9 205 9 c 0,55,56
 179 9 179 9 179 34 c 0,57,58
 182 42 182 42 191.5 57.5 c 128,-1,59
 201 73 201 73 221 96 c 1,60,-1
 221 95 l 1,61,62
 350 266 350 266 350 403 c 0,63,64
 350 515 350 515 296 623 c 1,65,-1
 297 622 l 1,33,34
EndSplineSet
EndChar

StartChar: quoteleft
Encoding: 8216 8216 426
Width: 425
Flags: W
LayerCount: 2
Fore
SplineSet
121 993 m 0,0,1
 122 1058 122 1058 166 1121.5 c 128,-1,2
 210 1185 210 1185 265 1211 c 1,3,-1
 296 1153 l 1,4,5
 280 1144 280 1144 258 1120 c 128,-1,6
 236 1096 236 1096 226 1058 c 1,7,8
 292 1030 292 1030 289 975 c 0,9,10
 289 959 289 959 282.5 944.5 c 128,-1,11
 276 930 276 930 265 919 c 128,-1,12
 254 908 254 908 239 901.5 c 128,-1,13
 224 895 224 895 208 895 c 0,14,15
 188 895 188 895 171.5 903.5 c 128,-1,16
 155 912 155 912 144 925.5 c 128,-1,17
 133 939 133 939 127 957 c 128,-1,18
 121 975 121 975 121 993 c 0,0,1
EndSplineSet
EndChar

StartChar: quoteright
Encoding: 8217 8217 427
Width: 372
Flags: W
LayerCount: 2
Fore
SplineSet
311 1113 m 0,0,1
 310 1048 310 1048 266 984.5 c 128,-1,2
 222 921 222 921 167 895 c 1,3,-1
 136 953 l 1,4,5
 152 962 152 962 174 986 c 128,-1,6
 196 1010 196 1010 206 1048 c 1,7,8
 140 1076 140 1076 143 1131 c 0,9,10
 143 1147 143 1147 149.5 1161.5 c 128,-1,11
 156 1176 156 1176 167 1187 c 128,-1,12
 178 1198 178 1198 192.5 1204.5 c 128,-1,13
 207 1211 207 1211 224 1211 c 0,14,15
 244 1211 244 1211 260 1202.5 c 128,-1,16
 276 1194 276 1194 287.5 1180.5 c 128,-1,17
 299 1167 299 1167 305 1149 c 128,-1,18
 311 1131 311 1131 311 1113 c 0,0,1
EndSplineSet
EndChar

StartChar: afii57451
Encoding: 1611 1611 428
Width: 0
GlyphClass: 4
Flags: W
AnchorPoint: "Anchor-2" 0 0 mark 0
AnchorPoint: "Anchor-0" 0 0 mark 0
LayerCount: 2
Fore
SplineSet
-137 100 m 1,0,-1
 -137 156 l 1,1,-1
 134 156 l 1,2,-1
 134 100 l 1,3,-1
 -137 100 l 1,0,-1
-137 0 m 1,4,-1
 -137 55 l 1,5,-1
 134 55 l 1,6,-1
 134 0 l 1,7,-1
 -137 0 l 1,4,-1
EndSplineSet
EndChar

StartChar: afii57454
Encoding: 1614 1614 429
Width: 0
GlyphClass: 4
Flags: W
AnchorPoint: "Anchor-2" 0 0 mark 0
AnchorPoint: "Anchor-0" 0 0 mark 0
LayerCount: 2
Fore
SplineSet
-137 0 m 1,0,-1
 -137 56 l 1,1,-1
 134 56 l 1,2,-1
 134 0 l 1,3,-1
 -137 0 l 1,0,-1
EndSplineSet
EndChar

StartChar: afii57455
Encoding: 1615 1615 430
Width: 0
GlyphClass: 4
Flags: W
AnchorPoint: "Anchor-2" 0 0 mark 0
AnchorPoint: "Anchor-0" 0 0 mark 0
LayerCount: 2
Fore
SplineSet
139 78 m 0,0,1
 139 40 139 40 117.5 21 c 128,-1,2
 96 2 96 2 72 0 c 2,3,-1
 -122 0 l 1,4,-1
 -122 40 l 1,5,-1
 4 40 l 1,6,7
 -7 57 -7 57 -7 78 c 0,8,9
 -7 108 -7 108 14.5 129.5 c 128,-1,10
 36 151 36 151 66 151 c 0,11,12
 95 151 95 151 117 129.5 c 128,-1,13
 139 108 139 108 139 78 c 0,0,1
101 76 m 0,14,15
 101 111 101 111 66 111 c 256,16,17
 31 111 31 111 31 76 c 0,18,19
 31 40 31 40 66 40 c 2,20,-1
 71 40 l 2,21,22
 101 42 101 42 101 76 c 0,14,15
EndSplineSet
EndChar

StartChar: afii57452
Encoding: 1612 1612 431
Width: 0
GlyphClass: 4
Flags: W
AnchorPoint: "Anchor-2" 0 0 mark 0
AnchorPoint: "Anchor-0" 0 0 mark 0
LayerCount: 2
Fore
SplineSet
139 78 m 0,0,1
 139 40 139 40 117.5 21 c 128,-1,2
 96 2 96 2 72 0 c 2,3,-1
 -122 0 l 1,4,-1
 -122 40 l 1,5,-1
 -82 40 l 1,6,-1
 -82 99 l 1,7,-1
 -54 99 l 1,8,-1
 -54 40 l 1,9,-1
 4 40 l 1,10,11
 -7 57 -7 57 -7 78 c 0,12,13
 -7 108 -7 108 14.5 129.5 c 128,-1,14
 36 151 36 151 66 151 c 0,15,16
 95 151 95 151 117 129.5 c 128,-1,17
 139 108 139 108 139 78 c 0,0,1
101 76 m 0,18,19
 101 111 101 111 66 111 c 256,20,21
 31 111 31 111 31 76 c 0,22,23
 31 40 31 40 66 40 c 2,24,-1
 71 40 l 2,25,26
 101 42 101 42 101 76 c 0,18,19
EndSplineSet
EndChar

StartChar: afii57456
Encoding: 1616 1616 432
Width: 0
GlyphClass: 4
Flags: W
AnchorPoint: "Anchor-3" 0 0 mark 0
AnchorPoint: "Anchor-1" 0 0 mark 0
LayerCount: 2
Fore
SplineSet
-137 0 m 1,0,-1
 -137 56 l 1,1,-1
 134 56 l 1,2,-1
 134 0 l 1,3,-1
 -137 0 l 1,0,-1
EndSplineSet
EndChar

StartChar: afii57457
Encoding: 1617 1617 433
Width: 0
GlyphClass: 4
Flags: W
AnchorPoint: "Anchor-2" 0 0 mark 0
AnchorPoint: "Anchor-0" 0 0 mark 0
LayerCount: 2
Fore
SplineSet
145 117 m 2,0,1
 145 1 145 1 55 1 c 0,2,3
 38 1 38 1 23.5 9.5 c 128,-1,4
 9 18 9 18 -5 35 c 1,5,6
 -33 1 -33 1 -64 1 c 0,7,8
 -152 1 -152 1 -152 113 c 2,9,-1
 -152 177 l 1,10,-1
 -99 177 l 1,11,-1
 -99 113 l 2,12,13
 -99 62 -99 62 -64 62 c 0,14,15
 -31 62 -31 62 -31 113 c 2,16,-1
 -31 154 l 1,17,-1
 22 154 l 1,18,-1
 22 113 l 2,19,20
 22 62 22 62 57 62 c 0,21,22
 91 62 91 62 91 115 c 2,23,-1
 91 177 l 1,24,-1
 145 177 l 1,25,-1
 145 117 l 2,0,1
EndSplineSet
EndChar

StartChar: afii57458
Encoding: 1618 1618 434
Width: 0
GlyphClass: 4
Flags: W
AnchorPoint: "Anchor-2" 0 0 mark 0
AnchorPoint: "Anchor-0" 0 0 mark 0
LayerCount: 2
Fore
SplineSet
102 101 m 256,0,1
 102 80 102 80 94 62 c 128,-1,2
 86 44 86 44 72 30.5 c 128,-1,3
 58 17 58 17 39.5 9 c 128,-1,4
 21 1 21 1 0 1 c 0,5,6
 -42 1 -42 1 -71 30 c 128,-1,7
 -100 59 -100 59 -100 101 c 256,8,9
 -100 143 -100 143 -71 172 c 128,-1,10
 -42 201 -42 201 0 201 c 0,11,12
 21 201 21 201 39.5 193 c 128,-1,13
 58 185 58 185 72 171.5 c 128,-1,14
 86 158 86 158 94 140 c 128,-1,15
 102 122 102 122 102 101 c 256,0,1
59 97 m 0,16,17
 59 156 59 156 0 156 c 0,18,19
 -57 156 -57 156 -57 97 c 0,20,21
 -57 39 -57 39 0 39 c 0,22,23
 59 39 59 39 59 97 c 0,16,17
EndSplineSet
EndChar

StartChar: exclam
Encoding: 33 33 437
Width: 399
GlyphClass: 2
Flags: W
LayerCount: 2
Fore
SplineSet
127 1150 m 1,0,-1
 288 1150 l 1,1,-1
 288 257 l 1,2,-1
 127 257 l 1,3,-1
 127 1150 l 1,0,-1
110 96 m 256,4,5
 110 137 110 137 138.5 165.5 c 128,-1,6
 167 194 167 194 208 194 c 256,7,8
 249 194 249 194 277.5 165.5 c 128,-1,9
 306 137 306 137 306 96 c 256,10,11
 306 55 306 55 277.5 26.5 c 128,-1,12
 249 -2 249 -2 208 -2 c 256,13,14
 167 -2 167 -2 138.5 26.5 c 128,-1,15
 110 55 110 55 110 96 c 256,4,5
EndSplineSet
EndChar

StartChar: afii64060
Encoding: 64830 64830 438
Width: 634
GlyphClass: 2
Flags: W
LayerCount: 2
Fore
SplineSet
573 -164 m 1,0,-1
 394 -164 l 1,1,2
 335 -85 335 -85 296 13.5 c 128,-1,3
 257 112 257 112 237.5 220.5 c 128,-1,4
 218 329 218 329 218 443 c 128,-1,5
 218 557 218 557 238 666.5 c 128,-1,6
 258 776 258 776 298 877.5 c 128,-1,7
 338 979 338 979 397 1062 c 1,8,-1
 571 1062 l 1,9,10
 485 952 485 952 438 836.5 c 128,-1,11
 391 721 391 721 374.5 607 c 128,-1,12
 358 493 358 493 368.5 383 c 128,-1,13
 379 273 379 273 407.5 174 c 128,-1,14
 436 75 436 75 479.5 -9.5 c 128,-1,15
 523 -94 523 -94 573 -158 c 1,16,-1
 573 -164 l 1,0,-1
EndSplineSet
EndChar

StartChar: afii64061
Encoding: 64831 64831 439
Width: 566
GlyphClass: 2
Flags: W
LayerCount: 2
Fore
SplineSet
77 -158 m 1,0,1
 127 -94 127 -94 170.5 -9.5 c 128,-1,2
 214 75 214 75 242.5 174 c 128,-1,3
 271 273 271 273 281.5 383 c 128,-1,4
 292 493 292 493 275.5 607 c 128,-1,5
 259 721 259 721 212 836.5 c 128,-1,6
 165 952 165 952 79 1062 c 1,7,-1
 253 1062 l 1,8,9
 312 979 312 979 352 877.5 c 128,-1,10
 392 776 392 776 412 666.5 c 128,-1,11
 432 557 432 557 432 443 c 128,-1,12
 432 329 432 329 412.5 220.5 c 128,-1,13
 393 112 393 112 354 13.5 c 128,-1,14
 315 -85 315 -85 256 -164 c 1,15,-1
 77 -164 l 1,16,-1
 77 -158 l 1,0,1
EndSplineSet
EndChar

StartChar: afii62821
Encoding: 65252 65252 440
Width: 492
GlyphClass: 2
Flags: W
AnchorPoint: "Anchor-1" 225 -240 basechar 0
AnchorPoint: "Anchor-0" 240 990 basechar 0
LayerCount: 2
Fore
SplineSet
492 0 m 2,0,1
 411 0 411 0 367 43 c 1,2,3
 315 0 315 0 246 0 c 2,4,-1
 -12 0 l 1,5,-1
 -12 147 l 1,6,-1
 47 147 l 1,7,-1
 47 684 l 2,8,9
 47 726 47 726 62 762.5 c 128,-1,10
 77 799 77 799 104 825 c 128,-1,11
 131 851 131 851 167.5 866 c 128,-1,12
 204 881 204 881 246 881 c 0,13,14
 286 881 286 881 322 866 c 128,-1,15
 358 851 358 851 385 825 c 128,-1,16
 412 799 412 799 428 764 c 128,-1,17
 444 729 444 729 444 690 c 2,18,-1
 444 195 l 2,19,20
 444 147 444 147 492 147 c 2,21,-1
 502 147 l 1,22,-1
 502 0 l 1,23,-1
 492 0 l 2,0,1
295 670 m 2,24,25
 295 725 295 725 246 725 c 0,26,27
 199 725 199 725 199 670 c 2,28,-1
 199 147 l 1,29,-1
 246 147 l 2,30,31
 295 147 295 147 295 195 c 2,32,-1
 295 670 l 2,24,25
EndSplineSet
EndChar

StartChar: uni25CC
Encoding: 9676 9676 441
Width: 911
Flags: W
AnchorPoint: "Anchor-1" 525 -225 basechar 0
AnchorPoint: "Anchor-0" 465 930 basechar 0
LayerCount: 2
Fore
SplineSet
771 629 m 256,0,1
 771 592 771 592 734 592 c 0,2,3
 695 592 695 592 695 629 c 256,4,5
 695 666 695 666 734 666 c 0,6,7
 771 666 771 666 771 629 c 256,0,1
658 703 m 0,8,9
 658 666 658 666 621 666 c 0,10,11
 582 666 582 666 582 703 c 0,12,13
 582 742 582 742 621 742 c 0,14,15
 658 742 658 742 658 703 c 0,8,9
847 516 m 0,16,17
 847 477 847 477 808 477 c 0,18,19
 771 477 771 477 771 516 c 0,20,21
 771 553 771 553 810 553 c 0,22,23
 847 553 847 553 847 516 c 0,16,17
873 384 m 256,24,25
 873 347 873 347 836 347 c 0,26,27
 797 347 797 347 797 384 c 256,28,29
 797 421 797 421 836 421 c 0,30,31
 873 421 873 421 873 384 c 256,24,25
525 731 m 0,32,33
 525 692 525 692 488 692 c 256,34,35
 451 692 451 692 451 731 c 0,36,37
 451 768 451 768 488 768 c 256,38,39
 525 768 525 768 525 731 c 0,32,33
847 251 m 0,40,41
 847 214 847 214 808 214 c 0,42,43
 771 214 771 214 771 251 c 0,44,45
 771 290 771 290 808 290 c 0,46,47
 847 290 847 290 847 251 c 0,40,41
394 703 m 0,48,49
 394 666 394 666 356 666 c 0,50,51
 319 666 319 666 319 703 c 0,52,53
 319 742 319 742 356 742 c 0,54,55
 394 742 394 742 394 703 c 0,48,49
282 629 m 256,56,57
 282 592 282 592 243 592 c 0,58,59
 206 592 206 592 206 627 c 0,60,61
 206 666 206 666 243 666 c 0,62,63
 282 666 282 666 282 629 c 256,56,57
771 138 m 0,64,65
 771 101 771 101 734 101 c 256,66,67
 697 101 697 101 697 138 c 0,68,69
 697 177 697 177 734 177 c 256,70,71
 771 177 771 177 771 138 c 0,64,65
658 64 m 0,72,73
 658 27 658 27 621 27 c 256,74,75
 584 27 584 27 584 64 c 0,76,77
 584 103 584 103 621 103 c 256,78,79
 658 103 658 103 658 64 c 0,72,73
206 516 m 0,80,81
 206 477 206 477 171 477 c 0,82,83
 132 477 132 477 132 516 c 0,84,85
 132 553 132 553 169 553 c 256,86,87
 206 553 206 553 206 516 c 0,80,81
180 384 m 256,88,89
 180 347 180 347 143 347 c 0,90,91
 104 347 104 347 104 384 c 256,92,93
 104 421 104 421 143 421 c 0,94,95
 180 421 180 421 180 384 c 256,88,89
525 38 m 0,96,97
 525 -1 525 -1 488 -1 c 256,98,99
 451 -1 451 -1 451 38 c 0,100,101
 451 75 451 75 488 75 c 256,102,103
 525 75 525 75 525 38 c 0,96,97
394 66 m 0,104,105
 394 27 394 27 356 27 c 0,106,107
 319 27 319 27 319 64 c 0,108,109
 319 103 319 103 356 103 c 0,110,111
 394 103 394 103 394 66 c 0,104,105
206 251 m 0,112,113
 206 214 206 214 169 214 c 256,114,115
 132 214 132 214 132 251 c 0,116,117
 132 290 132 290 169 290 c 256,118,119
 206 290 206 290 206 251 c 0,112,113
282 138 m 0,120,121
 282 101 282 101 245 101 c 0,122,123
 206 101 206 101 206 138 c 0,124,125
 206 177 206 177 243 177 c 0,126,127
 282 177 282 177 282 138 c 0,120,121
EndSplineSet
EndChar

StartChar: afii62819
Encoding: 65246 65246 442
Width: 1024
GlyphClass: 2
Flags: W
AnchorPoint: "Anchor-1" 495 -495 basechar 0
AnchorPoint: "Anchor-0" 780 1365 basechar 0
LayerCount: 2
Fore
SplineSet
1024 0 m 2,0,1
 945 0 945 0 907 29 c 1,2,3
 777 -197 777 -197 532 -197 c 0,4,5
 350 -197 350 -197 221 -68 c 0,6,7
 94 59 94 59 94 242 c 2,8,-1
 94 883 l 1,9,-1
 246 883 l 1,10,-1
 246 242 l 2,11,12
 246 182 246 182 267 130.5 c 128,-1,13
 288 79 288 79 330 37 c 0,14,15
 412 -45 412 -45 532 -45 c 0,16,17
 660 -45 660 -45 741 45 c 0,18,19
 821 132 821 132 821 262 c 2,20,-1
 821 1147 l 1,21,-1
 973 1147 l 1,22,-1
 973 227 l 2,23,24
 973 147 973 147 1020 147 c 2,25,-1
 1034 147 l 1,26,-1
 1034 0 l 1,27,-1
 1024 0 l 2,0,1
EndSplineSet
EndChar

StartChar: braceright
Encoding: 125 125 445
Width: 547
GlyphClass: 2
Flags: W
LayerCount: 2
Fore
SplineSet
501 490 m 1,0,-1
 501 359 l 1,1,2
 439 358 439 358 400.5 326 c 128,-1,3
 362 294 362 294 349 239 c 128,-1,4
 336 184 336 184 335 50.5 c 128,-1,5
 334 -83 334 -83 330 -126 c 0,6,7
 323 -194 323 -194 303.5 -234 c 128,-1,8
 284 -274 284 -274 255 -298.5 c 128,-1,9
 226 -323 226 -323 182 -336 c 0,10,11
 151 -345 151 -345 82 -345 c 2,12,-1
 38 -345 l 1,13,-1
 38 -219 l 1,14,-1
 62 -219 l 2,15,16
 146 -219 146 -219 173 -189 c 128,-1,17
 200 -159 200 -159 200 -54 c 0,18,19
 200 146 200 146 207 199 c 0,20,21
 220 288 220 288 258.5 341 c 128,-1,22
 297 394 297 394 367 424 c 1,23,24
 275 468 275 468 237.5 540.5 c 128,-1,25
 200 613 200 613 200 785 c 0,26,27
 200 941 200 941 196 971 c 0,28,29
 190 1025 190 1025 164 1046 c 128,-1,30
 138 1067 138 1067 62 1067 c 2,31,-1
 38 1067 l 1,32,-1
 38 1193 l 1,33,-1
 82 1193 l 2,34,35
 161 1193 161 1193 196 1180 c 0,36,37
 247 1162 247 1162 280.5 1120.5 c 128,-1,38
 314 1079 314 1079 324 1016 c 128,-1,39
 334 953 334 953 335 809 c 128,-1,40
 336 665 336 665 349 610 c 128,-1,41
 362 555 362 555 400.5 523 c 128,-1,42
 439 491 439 491 501 490 c 1,0,-1
EndSplineSet
EndChar

StartChar: uni0656
Encoding: 1622 1622 452
Width: 0
GlyphClass: 4
Flags: W
AnchorPoint: "Anchor-3" 0 0 mark 0
AnchorPoint: "Anchor-1" 0 0 mark 0
LayerCount: 2
Fore
SplineSet
-30 0 m 1,0,-1
 -30 191 l 1,1,-1
 27 191 l 1,2,-1
 27 0 l 1,3,-1
 -30 0 l 1,0,-1
EndSplineSet
EndChar

StartChar: E005
Encoding: 65578 -1 470
Width: 295
GlyphClass: 3
Flags: W
LayerCount: 2
Fore
SplineSet
-10 0 m 1,0,-1
 -10 147 l 1,1,-1
 305 147 l 1,2,-1
 305 0 l 1,3,-1
 -10 0 l 1,0,-1
EndSplineSet
EndChar

StartChar: afii57470
Encoding: 1726 1726 480
Width: 831
Flags: W
AnchorPoint: "Anchor-1" 330 -345 basechar 0
AnchorPoint: "Anchor-0" 315 1095 basechar 0
LayerCount: 2
Fore
SplineSet
831 442 m 0,0,1
 831 279 831 279 733 147 c 0,2,3
 626 0 626 0 469 0 c 2,4,-1
 199 0 l 2,5,6
 133 0 133 0 86 29 c 1,7,8
 36 0 36 0 0 0 c 2,9,-1
 -10 0 l 1,10,-1
 -10 147 l 1,11,-1
 0 147 l 2,12,13
 47 147 47 147 47 201 c 2,14,-1
 47 541 l 2,15,16
 47 580 47 580 63 614 c 128,-1,17
 79 648 79 648 106 673.5 c 128,-1,18
 133 699 133 699 169 714 c 128,-1,19
 205 729 205 729 244 729 c 0,20,21
 284 729 284 729 320.5 715 c 128,-1,22
 357 701 357 701 384.5 675.5 c 128,-1,23
 412 650 412 650 428 615.5 c 128,-1,24
 444 581 444 581 444 541 c 2,25,-1
 444 227 l 2,26,27
 444 147 444 147 477 147 c 0,28,29
 528 147 528 147 567 173 c 128,-1,30
 606 199 606 199 635 250 c 0,31,32
 682 336 682 336 682 442 c 0,33,34
 682 563 682 563 598 647 c 0,35,36
 516 729 516 729 391 729 c 2,37,-1
 92 729 l 1,38,-1
 92 883 l 1,39,-1
 391 883 l 2,40,41
 578 883 578 883 705 756 c 0,42,43
 831 628 831 628 831 442 c 0,0,1
295 520 m 2,44,45
 295 571 295 571 248 571 c 0,46,47
 199 571 199 571 199 520 c 2,48,-1
 199 195 l 2,49,50
 199 145 199 145 246 145 c 0,51,52
 295 145 295 145 295 197 c 2,53,-1
 295 520 l 2,44,45
EndSplineSet
Substitution2: "'medi' Medial Forms in Arabic lookup 3 subtable" afii62827
Substitution2: "'fina' Terminal Forms in Arabic lookup 2 subtable" afii62827
Substitution2: "'init' Initial Forms in Arabic lookup 1 subtable" afii57470
EndChar

StartChar: at
Encoding: 64 64 489
Width: 1663
Flags: W
LayerCount: 2
Fore
SplineSet
929 130 m 1,0,1
 877 70 877 70 812.5 34 c 128,-1,2
 748 -2 748 -2 683 -2 c 0,3,4
 612 -2 612 -2 545 39.5 c 128,-1,5
 478 81 478 81 436 167.5 c 128,-1,6
 394 254 394 254 394 357 c 0,7,8
 394 484 394 484 459 611.5 c 128,-1,9
 524 739 524 739 621 803 c 128,-1,10
 718 867 718 867 809 867 c 0,11,12
 878 867 878 867 941.5 830.5 c 128,-1,13
 1005 794 1005 794 1050 720 c 1,14,-1
 1078 844 l 1,15,-1
 1221 844 l 1,16,-1
 1106 307 l 2,17,18
 1082 195 1082 195 1082 183 c 0,19,20
 1082 162 1082 162 1098 146 c 128,-1,21
 1114 130 1114 130 1138 130 c 0,22,23
 1180 130 1180 130 1249 179 c 0,24,25
 1340 243 1340 243 1393 350.5 c 128,-1,26
 1446 458 1446 458 1446 573 c 0,27,28
 1446 706 1446 706 1378 822 c 128,-1,29
 1310 938 1310 938 1174 1008 c 128,-1,30
 1038 1078 1038 1078 874 1078 c 0,31,32
 687 1078 687 1078 532.5 990 c 128,-1,33
 378 902 378 902 292.5 738.5 c 128,-1,34
 207 575 207 575 207 388 c 0,35,36
 207 192 207 192 292.5 50.5 c 128,-1,37
 378 -91 378 -91 539 -158.5 c 128,-1,38
 700 -226 700 -226 896 -226 c 0,39,40
 1106 -226 1106 -226 1247.5 -156 c 128,-1,41
 1389 -86 1389 -86 1459 15 c 1,42,-1
 1604 15 l 1,43,44
 1563 -69 1563 -69 1464 -156 c 128,-1,45
 1365 -243 1365 -243 1228 -294 c 128,-1,46
 1091 -345 1091 -345 898 -345 c 0,47,48
 721 -345 721 -345 571 -299.5 c 128,-1,49
 421 -254 421 -254 315.5 -162 c 128,-1,50
 210 -70 210 -70 156 49 c 0,51,52
 89 200 89 200 89 375 c 0,53,54
 89 570 89 570 169 747 c 0,55,56
 266 964 266 964 446 1079 c 128,-1,57
 626 1194 626 1194 882 1194 c 0,58,59
 1080 1194 1080 1194 1238 1113 c 128,-1,60
 1396 1032 1396 1032 1487 871 c 0,61,62
 1565 733 1565 733 1565 570 c 0,63,64
 1565 338 1565 338 1402 158 c 0,65,66
 1256 -3 1256 -3 1083 -3 c 0,67,68
 1028 -3 1028 -3 994 13.5 c 128,-1,69
 960 30 960 30 944 62 c 0,70,71
 934 82 934 82 929 130 c 1,0,1
542 347 m 0,72,73
 542 238 542 238 594 177 c 128,-1,74
 646 116 646 116 713 116 c 0,75,76
 758 116 758 116 807.5 143 c 128,-1,77
 857 170 857 170 902 222.5 c 128,-1,78
 947 275 947 275 976 356.5 c 128,-1,79
 1005 438 1005 438 1005 519 c 0,80,81
 1005 628 1005 628 951 688 c 128,-1,82
 897 748 897 748 819 748 c 0,83,84
 768 748 768 748 723 722 c 128,-1,85
 678 696 678 696 635.5 638.5 c 128,-1,86
 593 581 593 581 567.5 498.5 c 128,-1,87
 542 416 542 416 542 347 c 0,72,73
EndSplineSet
EndChar

StartChar: A
Encoding: 65 65 490
Width: 1093
Flags: W
LayerCount: 2
Fore
SplineSet
-2 0 m 1,0,-1
 448 1173 l 1,1,-1
 615 1173 l 1,2,-1
 1095 0 l 1,3,-1
 918 0 l 1,4,-1
 782 355 l 1,5,-1
 291 355 l 1,6,-1
 162 0 l 1,7,-1
 -2 0 l 1,0,-1
336 482 m 1,8,-1
 734 482 l 1,9,-1
 611 806 l 2,10,11
 555 954 555 954 528 1050 c 1,12,13
 506 937 506 937 465 826 c 2,14,-1
 336 482 l 1,8,-1
EndSplineSet
EndChar

StartChar: B
Encoding: 66 66 491
Width: 1093
Flags: W
LayerCount: 2
Fore
SplineSet
120 0 m 1,0,-1
 120 1173 l 1,1,-1
 560 1173 l 2,2,3
 694 1173 694 1173 775.5 1137.5 c 128,-1,4
 857 1102 857 1102 903 1028 c 128,-1,5
 949 954 949 954 949 873 c 0,6,7
 949 798 949 798 908 731.5 c 128,-1,8
 867 665 867 665 785 624 c 1,9,10
 891 593 891 593 948.5 517.5 c 128,-1,11
 1006 442 1006 442 1006 340 c 0,12,13
 1006 258 1006 258 971 187 c 128,-1,14
 936 116 936 116 885 77.5 c 128,-1,15
 834 39 834 39 756.5 19.5 c 128,-1,16
 679 0 679 0 567 0 c 2,17,-1
 120 0 l 1,0,-1
275 680 m 1,18,-1
 529 680 l 2,19,20
 632 680 632 680 677 694 c 0,21,22
 736 711 736 711 766 752 c 128,-1,23
 796 793 796 793 796 854 c 0,24,25
 796 913 796 913 768 957.5 c 128,-1,26
 740 1002 740 1002 688 1018 c 128,-1,27
 636 1034 636 1034 510 1034 c 2,28,-1
 275 1034 l 1,29,-1
 275 680 l 1,18,-1
275 138 m 1,30,-1
 567 138 l 2,31,32
 642 138 642 138 673 144 c 0,33,34
 726 154 726 154 762 176 c 128,-1,35
 798 198 798 198 821.5 241 c 128,-1,36
 845 284 845 284 845 340 c 0,37,38
 845 406 845 406 811.5 454 c 128,-1,39
 778 502 778 502 718 522 c 128,-1,40
 658 542 658 542 546 542 c 2,41,-1
 275 542 l 1,42,-1
 275 138 l 1,30,-1
EndSplineSet
EndChar

StartChar: C
Encoding: 67 67 492
Width: 1183
Flags: W
LayerCount: 2
Fore
SplineSet
963 411 m 1,0,-1
 1118 372 l 1,1,2
 1070 181 1070 181 943 80.5 c 128,-1,3
 816 -20 816 -20 633 -20 c 0,4,5
 443 -20 443 -20 324.5 57 c 128,-1,6
 206 134 206 134 144 280.5 c 128,-1,7
 82 427 82 427 82 595 c 0,8,9
 82 778 82 778 152 914.5 c 128,-1,10
 222 1051 222 1051 351 1122 c 128,-1,11
 480 1193 480 1193 635 1193 c 0,12,13
 811 1193 811 1193 931 1103.5 c 128,-1,14
 1051 1014 1051 1014 1098 851 c 1,15,-1
 946 815 l 1,16,17
 905 943 905 943 827.5 1001.5 c 128,-1,18
 750 1060 750 1060 632 1060 c 0,19,20
 497 1060 497 1060 406 995 c 128,-1,21
 315 930 315 930 278.5 821 c 128,-1,22
 242 712 242 712 242 596 c 0,23,24
 242 446 242 446 285.5 334.5 c 128,-1,25
 329 223 329 223 421 168 c 128,-1,26
 513 113 513 113 620 113 c 0,27,28
 750 113 750 113 840.5 188 c 128,-1,29
 931 263 931 263 963 411 c 1,0,-1
EndSplineSet
EndChar

StartChar: D
Encoding: 68 68 493
Width: 1183
Flags: W
LayerCount: 2
Fore
SplineSet
126 0 m 1,0,-1
 126 1173 l 1,1,-1
 530 1173 l 2,2,3
 667 1173 667 1173 739 1156 c 0,4,5
 840 1133 840 1133 911 1072 c 0,6,7
 1004 994 1004 994 1050 872 c 128,-1,8
 1096 750 1096 750 1096 593 c 0,9,10
 1096 459 1096 459 1065 356 c 128,-1,11
 1034 253 1034 253 985 185.5 c 128,-1,12
 936 118 936 118 878 79 c 128,-1,13
 820 40 820 40 738 20 c 128,-1,14
 656 0 656 0 550 0 c 2,15,-1
 126 0 l 1,0,-1
282 138 m 1,16,-1
 532 138 l 2,17,18
 648 138 648 138 714 160 c 128,-1,19
 780 182 780 182 819 221 c 0,20,21
 874 276 874 276 905 369 c 128,-1,22
 936 462 936 462 936 595 c 0,23,24
 936 779 936 779 875.5 878 c 128,-1,25
 815 977 815 977 729 1010 c 0,26,27
 666 1034 666 1034 528 1034 c 2,28,-1
 282 1034 l 1,29,-1
 282 138 l 1,16,-1
EndSplineSet
EndChar

StartChar: E
Encoding: 69 69 494
Width: 1093
Flags: W
LayerCount: 2
Fore
SplineSet
130 0 m 1,0,-1
 130 1173 l 1,1,-1
 978 1173 l 1,2,-1
 978 1034 l 1,3,-1
 285 1034 l 1,4,-1
 285 675 l 1,5,-1
 934 675 l 1,6,-1
 934 538 l 1,7,-1
 285 538 l 1,8,-1
 285 138 l 1,9,-1
 1005 138 l 1,10,-1
 1005 0 l 1,11,-1
 130 0 l 1,0,-1
EndSplineSet
EndChar

StartChar: F
Encoding: 70 70 495
Width: 1001
Flags: W
LayerCount: 2
Fore
SplineSet
134 0 m 1,0,-1
 134 1173 l 1,1,-1
 926 1173 l 1,2,-1
 926 1034 l 1,3,-1
 290 1034 l 1,4,-1
 290 671 l 1,5,-1
 840 671 l 1,6,-1
 840 533 l 1,7,-1
 290 533 l 1,8,-1
 290 0 l 1,9,-1
 134 0 l 1,0,-1
EndSplineSet
EndChar

StartChar: G
Encoding: 71 71 496
Width: 1274
Flags: W
LayerCount: 2
Fore
SplineSet
675 460 m 1,0,-1
 675 598 l 1,1,-1
 1172 598 l 1,2,-1
 1172 163 l 1,3,4
 1058 72 1058 72 936 26 c 128,-1,5
 814 -20 814 -20 686 -20 c 0,6,7
 514 -20 514 -20 372.5 54 c 128,-1,8
 231 128 231 128 159 268 c 128,-1,9
 87 408 87 408 87 581 c 0,10,11
 87 752 87 752 158.5 900.5 c 128,-1,12
 230 1049 230 1049 364.5 1121 c 128,-1,13
 499 1193 499 1193 674 1193 c 0,14,15
 802 1193 802 1193 904.5 1151.5 c 128,-1,16
 1007 1110 1007 1110 1065.5 1036.5 c 128,-1,17
 1124 963 1124 963 1154 845 c 1,18,-1
 1014 806 l 1,19,20
 988 896 988 896 949 947 c 128,-1,21
 910 998 910 998 837 1029 c 128,-1,22
 764 1060 764 1060 675 1060 c 0,23,24
 569 1060 569 1060 491.5 1027.5 c 128,-1,25
 414 995 414 995 366 942.5 c 128,-1,26
 318 890 318 890 292 826 c 0,27,28
 247 718 247 718 247 590 c 0,29,30
 247 434 247 434 301 328 c 128,-1,31
 355 222 355 222 458.5 171 c 128,-1,32
 562 120 562 120 678 120 c 0,33,34
 778 120 778 120 874 159 c 128,-1,35
 970 198 970 198 1020 242 c 1,36,-1
 1020 460 l 1,37,-1
 675 460 l 1,0,-1
EndSplineSet
EndChar

StartChar: H
Encoding: 72 72 497
Width: 1183
Flags: W
LayerCount: 2
Fore
SplineSet
131 0 m 1,0,-1
 131 1173 l 1,1,-1
 286 1173 l 1,2,-1
 286 691 l 1,3,-1
 896 691 l 1,4,-1
 896 1173 l 1,5,-1
 1051 1173 l 1,6,-1
 1051 0 l 1,7,-1
 896 0 l 1,8,-1
 896 553 l 1,9,-1
 286 553 l 1,10,-1
 286 0 l 1,11,-1
 131 0 l 1,0,-1
EndSplineSet
EndChar

StartChar: I
Encoding: 73 73 498
Width: 455
Flags: W
LayerCount: 2
Fore
SplineSet
153 0 m 1,0,-1
 153 1173 l 1,1,-1
 308 1173 l 1,2,-1
 308 0 l 1,3,-1
 153 0 l 1,0,-1
EndSplineSet
EndChar

StartChar: J
Encoding: 74 74 499
Width: 819
Flags: W
LayerCount: 2
Fore
SplineSet
47 333 m 1,0,-1
 187 352 l 1,1,2
 193 218 193 218 237.5 168 c 128,-1,3
 282 118 282 118 362 118 c 0,4,5
 420 118 420 118 462.5 145 c 128,-1,6
 505 172 505 172 521 218 c 128,-1,7
 537 264 537 264 537 365 c 2,8,-1
 537 1173 l 1,9,-1
 692 1173 l 1,10,-1
 692 374 l 2,11,12
 692 226 692 226 656.5 145.5 c 128,-1,13
 621 65 621 65 543.5 22.5 c 128,-1,14
 466 -20 466 -20 362 -20 c 0,15,16
 208 -20 208 -20 126 69 c 128,-1,17
 44 158 44 158 47 333 c 1,0,-1
EndSplineSet
EndChar

StartChar: K
Encoding: 75 75 500
Width: 1093
Flags: W
LayerCount: 2
Fore
SplineSet
120 0 m 1,0,-1
 120 1173 l 1,1,-1
 275 1173 l 1,2,-1
 275 591 l 1,3,-1
 858 1173 l 1,4,-1
 1068 1173 l 1,5,-1
 576 698 l 1,6,-1
 1090 0 l 1,7,-1
 885 0 l 1,8,-1
 467 594 l 1,9,-1
 275 406 l 1,10,-1
 275 0 l 1,11,-1
 120 0 l 1,0,-1
EndSplineSet
EndChar

StartChar: L
Encoding: 76 76 501
Width: 911
Flags: W
LayerCount: 2
Fore
SplineSet
120 0 m 1,0,-1
 120 1173 l 1,1,-1
 275 1173 l 1,2,-1
 275 138 l 1,3,-1
 853 138 l 1,4,-1
 853 0 l 1,5,-1
 120 0 l 1,0,-1
EndSplineSet
EndChar

StartChar: M
Encoding: 77 77 502
Width: 1365
Flags: W
LayerCount: 2
Fore
SplineSet
122 0 m 1,0,-1
 122 1173 l 1,1,-1
 355 1173 l 1,2,-1
 633 342 l 2,3,4
 671 226 671 226 689 169 c 1,5,6
 709 233 709 233 751 357 c 2,7,-1
 1032 1173 l 1,8,-1
 1241 1173 l 1,9,-1
 1241 0 l 1,10,-1
 1091 0 l 1,11,-1
 1091 982 l 1,12,-1
 750 0 l 1,13,-1
 610 0 l 1,14,-1
 271 998 l 1,15,-1
 271 0 l 1,16,-1
 122 0 l 1,0,-1
EndSplineSet
EndChar

StartChar: N
Encoding: 78 78 503
Width: 1183
Flags: W
LayerCount: 2
Fore
SplineSet
125 0 m 1,0,-1
 125 1173 l 1,1,-1
 284 1173 l 1,2,-1
 900 252 l 1,3,-1
 900 1173 l 1,4,-1
 1049 1173 l 1,5,-1
 1049 0 l 1,6,-1
 890 0 l 1,7,-1
 274 922 l 1,8,-1
 274 0 l 1,9,-1
 125 0 l 1,0,-1
EndSplineSet
EndChar

StartChar: O
Encoding: 79 79 504
Width: 1274
Flags: W
LayerCount: 2
Fore
SplineSet
79 571 m 0,0,1
 79 863 79 863 236 1028.5 c 128,-1,2
 393 1194 393 1194 641 1194 c 0,3,4
 803 1194 803 1194 933.5 1116 c 128,-1,5
 1064 1038 1064 1038 1132.5 899.5 c 128,-1,6
 1201 761 1201 761 1201 585 c 0,7,8
 1201 406 1201 406 1129 265.5 c 128,-1,9
 1057 125 1057 125 925 52.5 c 128,-1,10
 793 -20 793 -20 640 -20 c 0,11,12
 474 -20 474 -20 344 60 c 128,-1,13
 214 140 214 140 146.5 278.5 c 128,-1,14
 79 417 79 417 79 571 c 0,0,1
239 569 m 0,15,16
 239 357 239 357 353 235 c 128,-1,17
 467 113 467 113 639 113 c 0,18,19
 814 113 814 113 927.5 236 c 128,-1,20
 1041 359 1041 359 1041 586 c 0,21,22
 1041 729 1041 729 992.5 835.5 c 128,-1,23
 944 942 944 942 851 1001 c 128,-1,24
 758 1060 758 1060 642 1060 c 0,25,26
 477 1060 477 1060 358 947 c 128,-1,27
 239 834 239 834 239 569 c 0,15,16
EndSplineSet
EndChar

StartChar: P
Encoding: 80 80 505
Width: 1093
Flags: W
LayerCount: 2
Fore
SplineSet
126 0 m 1,0,-1
 126 1173 l 1,1,-1
 569 1173 l 2,2,3
 686 1173 686 1173 747 1162 c 0,4,5
 834 1147 834 1147 892 1106.5 c 128,-1,6
 950 1066 950 1066 986 993.5 c 128,-1,7
 1022 921 1022 921 1022 834 c 0,8,9
 1022 684 1022 684 926.5 580.5 c 128,-1,10
 831 477 831 477 582 477 c 2,11,-1
 282 477 l 1,12,-1
 282 0 l 1,13,-1
 126 0 l 1,0,-1
282 615 m 1,14,-1
 585 615 l 2,15,16
 735 615 735 615 798.5 671 c 128,-1,17
 862 727 862 727 862 829 c 0,18,19
 862 902 862 902 824.5 954.5 c 128,-1,20
 787 1007 787 1007 726 1024 c 0,21,22
 687 1034 687 1034 582 1034 c 2,23,-1
 282 1034 l 1,24,-1
 282 615 l 1,14,-1
EndSplineSet
EndChar

StartChar: Q
Encoding: 81 81 506
Width: 1274
Flags: W
LayerCount: 2
Fore
SplineSet
1015 126 m 1,0,1
 1123 51 1123 51 1214 17 c 1,2,-1
 1169 -91 l 1,3,4
 1042 -46 1042 -46 917 53 c 1,5,6
 786 -20 786 -20 629 -20 c 0,7,8
 470 -20 470 -20 340 57 c 128,-1,9
 210 134 210 134 140 273 c 128,-1,10
 70 412 70 412 70 586 c 256,11,12
 70 760 70 760 140.5 902.5 c 128,-1,13
 211 1045 211 1045 341 1119.5 c 128,-1,14
 471 1194 471 1194 632 1194 c 0,15,16
 794 1194 794 1194 924.5 1116.5 c 128,-1,17
 1055 1039 1055 1039 1123.5 900.5 c 128,-1,18
 1192 762 1192 762 1192 587 c 0,19,20
 1192 442 1192 442 1148 326.5 c 128,-1,21
 1104 211 1104 211 1015 126 c 1,0,1
674 324 m 1,22,23
 808 286 808 286 895 212 c 1,24,25
 1032 337 1032 337 1032 587 c 0,26,27
 1032 730 1032 730 983.5 836 c 128,-1,28
 935 942 935 942 842 1001 c 128,-1,29
 749 1060 749 1060 633 1060 c 0,30,31
 459 1060 459 1060 344.5 941 c 128,-1,32
 230 822 230 822 230 586 c 0,33,34
 230 358 230 358 343.5 235.5 c 128,-1,35
 457 113 457 113 633 113 c 0,36,37
 716 113 716 113 790 144 c 1,38,39
 717 191 717 191 636 211 c 1,40,-1
 674 324 l 1,22,23
EndSplineSet
EndChar

StartChar: R
Encoding: 82 82 507
Width: 1183
Flags: W
LayerCount: 2
Fore
SplineSet
129 0 m 1,0,-1
 129 1173 l 1,1,-1
 649 1173 l 2,2,3
 806 1173 806 1173 887.5 1141.5 c 128,-1,4
 969 1110 969 1110 1017.5 1030 c 128,-1,5
 1066 950 1066 950 1066 853 c 0,6,7
 1066 728 1066 728 985.5 642.5 c 128,-1,8
 905 557 905 557 736 534 c 1,9,10
 798 504 798 504 830 475 c 0,11,12
 898 413 898 413 958 319 c 2,13,-1
 1162 0 l 1,14,-1
 967 0 l 1,15,-1
 812 244 l 2,16,17
 744 350 744 350 700 406 c 128,-1,18
 656 462 656 462 621 484 c 128,-1,19
 586 506 586 506 550 515 c 0,20,21
 524 521 524 521 464 521 c 2,22,-1
 284 521 l 1,23,-1
 284 0 l 1,24,-1
 129 0 l 1,0,-1
284 655 m 1,25,-1
 618 655 l 2,26,27
 724 655 724 655 784 677 c 128,-1,28
 844 699 844 699 875 747.5 c 128,-1,29
 906 796 906 796 906 853 c 0,30,31
 906 936 906 936 846 989.5 c 128,-1,32
 786 1043 786 1043 655 1043 c 2,33,-1
 284 1043 l 1,34,-1
 284 655 l 1,25,-1
EndSplineSet
EndChar

StartChar: S
Encoding: 83 83 508
Width: 1093
Flags: W
LayerCount: 2
Fore
SplineSet
74 377 m 1,0,-1
 220 390 l 1,1,2
 230 302 230 302 268 245.5 c 128,-1,3
 306 189 306 189 386 154 c 128,-1,4
 466 119 466 119 566 119 c 0,5,6
 655 119 655 119 723 145.5 c 128,-1,7
 791 172 791 172 824.5 218 c 128,-1,8
 858 264 858 264 858 318 c 0,9,10
 858 374 858 374 826 415 c 128,-1,11
 794 456 794 456 720 484 c 0,12,13
 673 502 673 502 511.5 541 c 128,-1,14
 350 580 350 580 285 614 c 0,15,16
 201 658 201 658 159.5 723.5 c 128,-1,17
 118 789 118 789 118 870 c 0,18,19
 118 958 118 958 168.5 1035.5 c 128,-1,20
 219 1113 219 1113 316 1153 c 128,-1,21
 413 1193 413 1193 531 1193 c 0,22,23
 662 1193 662 1193 761.5 1151 c 128,-1,24
 861 1109 861 1109 914.5 1027.5 c 128,-1,25
 968 946 968 946 972 842 c 1,26,-1
 823 831 l 1,27,28
 811 942 811 942 742 999 c 128,-1,29
 673 1056 673 1056 538 1056 c 0,30,31
 397 1056 397 1056 332.5 1004.5 c 128,-1,32
 268 953 268 953 268 880 c 0,33,34
 268 817 268 817 314 776 c 0,35,36
 358 735 358 735 547.5 692.5 c 128,-1,37
 737 650 737 650 807 618 c 0,38,39
 910 570 910 570 958.5 498 c 128,-1,40
 1007 426 1007 426 1007 331 c 0,41,42
 1007 238 1007 238 953.5 155 c 128,-1,43
 900 72 900 72 799.5 26 c 128,-1,44
 699 -20 699 -20 574 -20 c 0,45,46
 414 -20 414 -20 306.5 26.5 c 128,-1,47
 199 73 199 73 138 166 c 128,-1,48
 77 259 77 259 74 377 c 1,0,-1
EndSplineSet
EndChar

StartChar: T
Encoding: 84 84 509
Width: 1001
Flags: W
LayerCount: 2
Fore
SplineSet
425 0 m 1,0,-1
 425 1034 l 1,1,-1
 38 1034 l 1,2,-1
 38 1173 l 1,3,-1
 968 1173 l 1,4,-1
 968 1034 l 1,5,-1
 580 1034 l 1,6,-1
 580 0 l 1,7,-1
 425 0 l 1,0,-1
EndSplineSet
EndChar

StartChar: U
Encoding: 85 85 510
Width: 1183
Flags: W
LayerCount: 2
Fore
SplineSet
896 1173 m 1,0,-1
 1051 1173 l 1,1,-1
 1051 495 l 2,2,3
 1051 318 1051 318 1011 214 c 128,-1,4
 971 110 971 110 866.5 45 c 128,-1,5
 762 -20 762 -20 593 -20 c 0,6,7
 428 -20 428 -20 323 37 c 128,-1,8
 218 94 218 94 173.5 201.5 c 128,-1,9
 129 309 129 309 129 495 c 2,10,-1
 129 1173 l 1,11,-1
 284 1173 l 1,12,-1
 284 496 l 2,13,14
 284 343 284 343 312.5 270.5 c 128,-1,15
 341 198 341 198 410 159 c 128,-1,16
 479 120 479 120 579 120 c 0,17,18
 750 120 750 120 823 197.5 c 128,-1,19
 896 275 896 275 896 496 c 2,20,-1
 896 1173 l 1,0,-1
EndSplineSet
EndChar

StartChar: V
Encoding: 86 86 511
Width: 1093
Flags: W
LayerCount: 2
Fore
SplineSet
462 0 m 1,0,-1
 7 1173 l 1,1,-1
 175 1173 l 1,2,-1
 480 321 l 2,3,4
 517 218 517 218 542 129 c 1,5,6
 569 225 569 225 605 321 c 2,7,-1
 922 1173 l 1,8,-1
 1080 1173 l 1,9,-1
 621 0 l 1,10,-1
 462 0 l 1,0,-1
EndSplineSet
EndChar

StartChar: W
Encoding: 87 87 512
Width: 1546
Flags: W
LayerCount: 2
Fore
SplineSet
331 0 m 1,0,-1
 20 1173 l 1,1,-1
 179 1173 l 1,2,-1
 358 404 l 2,3,4
 386 283 386 283 407 164 c 1,5,6
 452 352 452 352 460 381 c 2,7,-1
 683 1173 l 1,8,-1
 870 1173 l 1,9,-1
 1038 579 l 2,10,11
 1102 358 1102 358 1130 164 c 1,12,13
 1152 275 1152 275 1188 419 c 2,14,-1
 1372 1173 l 1,15,-1
 1528 1173 l 1,16,-1
 1206 0 l 1,17,-1
 1057 0 l 1,18,-1
 810 894 l 2,19,20
 778 1006 778 1006 773 1031 c 1,21,22
 754 950 754 950 738 894 c 2,23,-1
 490 0 l 1,24,-1
 331 0 l 1,0,-1
EndSplineSet
EndChar

StartChar: X
Encoding: 88 88 513
Width: 1093
Flags: W
LayerCount: 2
Fore
SplineSet
7 0 m 1,0,-1
 461 611 l 1,1,-1
 61 1173 l 1,2,-1
 246 1173 l 1,3,-1
 458 872 l 2,4,5
 525 778 525 778 553 728 c 1,6,7
 592 792 592 792 646 862 c 2,8,-1
 882 1173 l 1,9,-1
 1050 1173 l 1,10,-1
 638 620 l 1,11,-1
 1082 0 l 1,12,-1
 890 0 l 1,13,-1
 595 418 l 2,14,15
 570 454 570 454 544 497 c 1,16,17
 505 433 505 433 488 409 c 2,18,-1
 194 0 l 1,19,-1
 7 0 l 1,0,-1
EndSplineSet
EndChar

StartChar: Y
Encoding: 89 89 514
Width: 1093
Flags: W
LayerCount: 2
Fore
SplineSet
457 0 m 1,0,-1
 457 497 l 1,1,-1
 5 1173 l 1,2,-1
 194 1173 l 1,3,-1
 425 819 l 2,4,5
 489 720 489 720 544 621 c 1,6,7
 597 713 597 713 672 828 c 2,8,-1
 899 1173 l 1,9,-1
 1080 1173 l 1,10,-1
 612 497 l 1,11,-1
 612 0 l 1,12,-1
 457 0 l 1,0,-1
EndSplineSet
EndChar

StartChar: Z
Encoding: 90 90 515
Width: 1001
Flags: W
LayerCount: 2
Fore
SplineSet
33 0 m 1,0,-1
 33 144 l 1,1,-1
 634 895 l 2,2,3
 698 975 698 975 755 1034 c 1,4,-1
 101 1034 l 1,5,-1
 101 1173 l 1,6,-1
 941 1173 l 1,7,-1
 941 1034 l 1,8,-1
 282 221 l 1,9,-1
 211 138 l 1,10,-1
 960 138 l 1,11,-1
 960 0 l 1,12,-1
 33 0 l 1,0,-1
EndSplineSet
EndChar

StartChar: a
Encoding: 97 97 516
Width: 911
Flags: W
LayerCount: 2
Fore
SplineSet
662 105 m 1,0,1
 582 37 582 37 508 9 c 128,-1,2
 434 -19 434 -19 350 -19 c 0,3,4
 210 -19 210 -19 134.5 49.5 c 128,-1,5
 59 118 59 118 59 224 c 0,6,7
 59 286 59 286 87.5 338 c 128,-1,8
 116 390 116 390 162 421 c 128,-1,9
 208 452 208 452 266 468 c 0,10,11
 308 479 308 479 394 490 c 0,12,13
 568 510 568 510 650 539 c 1,14,15
 651 569 651 569 651 577 c 0,16,17
 651 665 651 665 610 701 c 0,18,19
 555 750 555 750 446 750 c 0,20,21
 345 750 345 750 296.5 714 c 128,-1,22
 248 678 248 678 225 588 c 1,23,-1
 84 607 l 1,24,25
 103 698 103 698 147 753.5 c 128,-1,26
 191 809 191 809 274.5 839 c 128,-1,27
 358 869 358 869 467 869 c 256,28,29
 576 869 576 869 644 843.5 c 128,-1,30
 712 818 712 818 744 779 c 128,-1,31
 776 740 776 740 789 681 c 0,32,33
 796 644 796 644 796 548 c 2,34,-1
 796 356 l 2,35,36
 796 155 796 155 805 102 c 128,-1,37
 814 49 814 49 842 0 c 1,38,-1
 691 0 l 1,39,40
 669 45 669 45 662 105 c 1,0,1
650 426 m 1,41,42
 572 394 572 394 415 372 c 0,43,44
 326 359 326 359 289.5 343 c 128,-1,45
 253 327 253 327 233 296.5 c 128,-1,46
 213 266 213 266 213 228 c 0,47,48
 213 170 213 170 256.5 132 c 128,-1,49
 300 94 300 94 384 94 c 0,50,51
 467 94 467 94 532 130 c 128,-1,52
 597 166 597 166 627 230 c 0,53,54
 650 278 650 278 650 374 c 2,55,-1
 650 426 l 1,41,42
EndSplineSet
EndChar

StartChar: b
Encoding: 98 98 517
Width: 911
Flags: W
LayerCount: 2
Fore
SplineSet
241 0 m 1,0,-1
 107 0 l 1,1,-1
 107 1173 l 1,2,-1
 251 1173 l 1,3,-1
 251 754 l 1,4,5
 342 869 342 869 484 869 c 0,6,7
 562 869 562 869 632 837.5 c 128,-1,8
 702 806 702 806 747.5 748.5 c 128,-1,9
 793 691 793 691 818.5 610.5 c 128,-1,10
 844 530 844 530 844 438 c 0,11,12
 844 219 844 219 736 100 c 128,-1,13
 628 -19 628 -19 477 -19 c 256,14,15
 326 -19 326 -19 241 106 c 1,16,-1
 241 0 l 1,0,-1
239 431 m 0,17,18
 239 278 239 278 281 210 c 0,19,20
 349 99 349 99 465 99 c 0,21,22
 559 99 559 99 628 181 c 128,-1,23
 697 263 697 263 697 426 c 0,24,25
 697 592 697 592 631 671 c 128,-1,26
 565 750 565 750 471 750 c 256,27,28
 377 750 377 750 308 668 c 128,-1,29
 239 586 239 586 239 431 c 0,17,18
EndSplineSet
EndChar

StartChar: c
Encoding: 99 99 518
Width: 819
Flags: W
LayerCount: 2
Fore
SplineSet
662 311 m 1,0,-1
 804 293 l 1,1,2
 781 146 781 146 685.5 63.5 c 128,-1,3
 590 -19 590 -19 450 -19 c 0,4,5
 276 -19 276 -19 170 95 c 128,-1,6
 64 209 64 209 64 422 c 0,7,8
 64 559 64 559 109.5 662.5 c 128,-1,9
 155 766 155 766 248.5 817.5 c 128,-1,10
 342 869 342 869 451 869 c 0,11,12
 590 869 590 869 678 799 c 128,-1,13
 766 729 766 729 790 600 c 1,14,-1
 650 578 l 1,15,16
 630 664 630 664 579.5 707 c 128,-1,17
 529 750 529 750 457 750 c 0,18,19
 348 750 348 750 280 672 c 128,-1,20
 212 594 212 594 212 426 c 0,21,22
 212 254 212 254 277.5 176.5 c 128,-1,23
 343 99 343 99 449 99 c 0,24,25
 534 99 534 99 590.5 151 c 128,-1,26
 647 203 647 203 662 311 c 1,0,-1
EndSplineSet
EndChar

StartChar: d
Encoding: 100 100 519
Width: 911
Flags: W
LayerCount: 2
Fore
SplineSet
659 0 m 1,0,-1
 659 107 l 1,1,2
 578 -19 578 -19 422 -19 c 0,3,4
 320 -19 320 -19 235 37 c 128,-1,5
 150 93 150 93 103 193.5 c 128,-1,6
 56 294 56 294 56 424 c 0,7,8
 56 551 56 551 98.5 654.5 c 128,-1,9
 141 758 141 758 225.5 813.5 c 128,-1,10
 310 869 310 869 415 869 c 0,11,12
 492 869 492 869 552 836.5 c 128,-1,13
 612 804 612 804 650 752 c 1,14,-1
 650 1173 l 1,15,-1
 793 1173 l 1,16,-1
 793 0 l 1,17,-1
 659 0 l 1,0,-1
204 424 m 0,18,19
 204 261 204 261 273 180 c 128,-1,20
 342 99 342 99 435 99 c 0,21,22
 530 99 530 99 596 176.5 c 128,-1,23
 662 254 662 254 662 412 c 0,24,25
 662 586 662 586 594.5 668 c 128,-1,26
 527 750 527 750 429 750 c 0,27,28
 333 750 333 750 268.5 671.5 c 128,-1,29
 204 593 204 593 204 424 c 0,18,19
EndSplineSet
EndChar

StartChar: e
Encoding: 101 101 520
Width: 911
Flags: W
LayerCount: 2
Fore
SplineSet
690 274 m 1,0,-1
 838 255 l 1,1,2
 803 125 803 125 708 53 c 128,-1,3
 613 -19 613 -19 465 -19 c 0,4,5
 278 -19 278 -19 169 95.5 c 128,-1,6
 60 210 60 210 60 418 c 0,7,8
 60 632 60 632 170.5 750.5 c 128,-1,9
 281 869 281 869 457 869 c 0,10,11
 627 869 627 869 735 753 c 128,-1,12
 843 637 843 637 843 426 c 0,13,14
 843 414 843 414 842 388 c 1,15,-1
 209 388 l 1,16,17
 217 248 217 248 288 173.5 c 128,-1,18
 359 99 359 99 466 99 c 0,19,20
 545 99 545 99 601 140.5 c 128,-1,21
 657 182 657 182 690 274 c 1,0,-1
217 506 m 1,22,-1
 691 506 l 1,23,24
 682 614 682 614 637 667 c 0,25,26
 568 750 568 750 458 750 c 0,27,28
 359 750 359 750 291.5 684 c 128,-1,29
 224 618 224 618 217 506 c 1,22,-1
EndSplineSet
EndChar

StartChar: f
Encoding: 102 102 521
Width: 455
Flags: W
LayerCount: 2
Fore
SplineSet
142 0 m 1,0,-1
 142 738 l 1,1,-1
 15 738 l 1,2,-1
 15 850 l 1,3,-1
 142 850 l 1,4,-1
 142 940 l 2,5,6
 142 1026 142 1026 158 1067 c 0,7,8
 178 1123 178 1123 230.5 1158 c 128,-1,9
 283 1193 283 1193 378 1193 c 0,10,11
 438 1193 438 1193 512 1178 c 1,12,-1
 490 1053 l 1,13,14
 446 1061 446 1061 406 1061 c 0,15,16
 340 1061 340 1061 313 1033 c 128,-1,17
 286 1005 286 1005 286 928 c 2,18,-1
 286 850 l 1,19,-1
 451 850 l 1,20,-1
 451 738 l 1,21,-1
 286 738 l 1,22,-1
 286 0 l 1,23,-1
 142 0 l 1,0,-1
EndSplineSet
EndChar

StartChar: g
Encoding: 103 103 522
Width: 911
Flags: W
LayerCount: 2
Fore
SplineSet
82 -70 m 1,0,-1
 222 -91 l 1,1,2
 230 -156 230 -156 270 -186 c 0,3,4
 324 -226 324 -226 417 -226 c 0,5,6
 517 -226 517 -226 571.5 -186 c 128,-1,7
 626 -146 626 -146 645 -74 c 0,8,9
 656 -30 656 -30 655 111 c 1,10,11
 561 0 561 0 420 0 c 0,12,13
 245 0 245 0 149 126.5 c 128,-1,14
 53 253 53 253 53 430 c 0,15,16
 53 551 53 551 97 654 c 128,-1,17
 141 757 141 757 224.5 813 c 128,-1,18
 308 869 308 869 421 869 c 0,19,20
 571 869 571 869 669 747 c 1,21,-1
 669 850 l 1,22,-1
 802 850 l 1,23,-1
 802 115 l 2,24,25
 802 -83 802 -83 761.5 -166 c 128,-1,26
 721 -249 721 -249 633.5 -297 c 128,-1,27
 546 -345 546 -345 418 -345 c 0,28,29
 266 -345 266 -345 172 -276.5 c 128,-1,30
 78 -208 78 -208 82 -70 c 1,0,-1
201 440 m 0,31,32
 201 273 201 273 267.5 196 c 128,-1,33
 334 119 334 119 434 119 c 0,34,35
 533 119 533 119 600 195.5 c 128,-1,36
 667 272 667 272 667 435 c 0,37,38
 667 591 667 591 598 670.5 c 128,-1,39
 529 750 529 750 431 750 c 0,40,41
 335 750 335 750 268 672 c 128,-1,42
 201 594 201 594 201 440 c 0,31,32
EndSplineSet
EndChar

StartChar: h
Encoding: 104 104 523
Width: 911
Flags: W
LayerCount: 2
Fore
SplineSet
108 0 m 1,0,-1
 108 1173 l 1,1,-1
 252 1173 l 1,2,-1
 252 752 l 1,3,4
 353 869 353 869 506 869 c 0,5,6
 601 869 601 869 670.5 831.5 c 128,-1,7
 740 794 740 794 770 728.5 c 128,-1,8
 800 663 800 663 800 538 c 2,9,-1
 800 0 l 1,10,-1
 656 0 l 1,11,-1
 656 538 l 2,12,13
 656 646 656 646 609 695.5 c 128,-1,14
 562 745 562 745 477 745 c 0,15,16
 413 745 413 745 356.5 711.5 c 128,-1,17
 300 678 300 678 276 621.5 c 128,-1,18
 252 565 252 565 252 465 c 2,19,-1
 252 0 l 1,20,-1
 108 0 l 1,0,-1
EndSplineSet
EndChar

StartChar: i
Encoding: 105 105 524
Width: 364
Flags: W
LayerCount: 2
Fore
SplineSet
109 1007 m 1,0,-1
 109 1173 l 1,1,-1
 253 1173 l 1,2,-1
 253 1007 l 1,3,-1
 109 1007 l 1,0,-1
109 0 m 1,4,-1
 109 850 l 1,5,-1
 253 850 l 1,6,-1
 253 0 l 1,7,-1
 109 0 l 1,4,-1
EndSplineSet
EndChar

StartChar: j
Encoding: 106 106 525
Width: 364
Flags: W
LayerCount: 2
Fore
SplineSet
107 1006 m 1,0,-1
 107 1173 l 1,1,-1
 251 1173 l 1,2,-1
 251 1006 l 1,3,-1
 107 1006 l 1,0,-1
-75 -330 m 1,4,-1
 -48 -207 l 1,5,6
 -5 -218 -5 -218 20 -218 c 0,7,8
 64 -218 64 -218 85.5 -189 c 128,-1,9
 107 -160 107 -160 107 -43 c 2,10,-1
 107 850 l 1,11,-1
 251 850 l 1,12,-1
 251 -46 l 2,13,14
 251 -203 251 -203 210 -265 c 0,15,16
 158 -345 158 -345 38 -345 c 0,17,18
 -21 -345 -21 -345 -75 -330 c 1,4,-1
EndSplineSet
EndChar

StartChar: k
Encoding: 107 107 526
Width: 819
Flags: W
LayerCount: 2
Fore
SplineSet
109 0 m 1,0,-1
 109 1173 l 1,1,-1
 253 1173 l 1,2,-1
 253 504 l 1,3,-1
 594 850 l 1,4,-1
 780 850 l 1,5,-1
 455 534 l 1,6,-1
 813 0 l 1,7,-1
 635 0 l 1,8,-1
 354 434 l 1,9,-1
 253 337 l 1,10,-1
 253 0 l 1,11,-1
 109 0 l 1,0,-1
EndSplineSet
EndChar

StartChar: l
Encoding: 108 108 527
Width: 364
Flags: W
LayerCount: 2
Fore
SplineSet
105 0 m 1,0,-1
 105 1173 l 1,1,-1
 249 1173 l 1,2,-1
 249 0 l 1,3,-1
 105 0 l 1,0,-1
EndSplineSet
EndChar

StartChar: m
Encoding: 109 109 528
Width: 1365
Flags: W
LayerCount: 2
Fore
SplineSet
108 0 m 1,0,-1
 108 850 l 1,1,-1
 237 850 l 1,2,-1
 237 730 l 1,3,4
 277 793 277 793 343.5 831 c 128,-1,5
 410 869 410 869 494 869 c 0,6,7
 589 869 589 869 649.5 829.5 c 128,-1,8
 710 790 710 790 734 720 c 1,9,10
 835 869 835 869 997 869 c 0,11,12
 1123 869 1123 869 1191 799 c 128,-1,13
 1259 729 1259 729 1259 583 c 2,14,-1
 1259 0 l 1,15,-1
 1116 0 l 1,16,-1
 1116 535 l 2,17,18
 1116 622 1116 622 1102 660 c 128,-1,19
 1088 698 1088 698 1051 721 c 128,-1,20
 1014 744 1014 744 965 744 c 0,21,22
 875 744 875 744 816 684.5 c 128,-1,23
 757 625 757 625 757 494 c 2,24,-1
 757 0 l 1,25,-1
 613 0 l 1,26,-1
 613 552 l 2,27,28
 613 648 613 648 577.5 696 c 128,-1,29
 542 744 542 744 462 744 c 0,30,31
 402 744 402 744 350 712 c 128,-1,32
 298 680 298 680 275 618.5 c 128,-1,33
 252 557 252 557 252 441 c 2,34,-1
 252 0 l 1,35,-1
 108 0 l 1,0,-1
EndSplineSet
EndChar

StartChar: n
Encoding: 110 110 529
Width: 911
Flags: W
LayerCount: 2
Fore
SplineSet
108 0 m 1,0,-1
 108 850 l 1,1,-1
 238 850 l 1,2,-1
 238 729 l 1,3,4
 331 869 331 869 508 869 c 0,5,6
 585 869 585 869 649.5 841.5 c 128,-1,7
 714 814 714 814 746 769 c 128,-1,8
 778 724 778 724 790 662 c 0,9,10
 798 622 798 622 798 522 c 2,11,-1
 798 0 l 1,12,-1
 654 0 l 1,13,-1
 654 517 l 2,14,15
 654 605 654 605 637.5 648.5 c 128,-1,16
 621 692 621 692 578 718 c 128,-1,17
 535 744 535 744 478 744 c 0,18,19
 386 744 386 744 319 685.5 c 128,-1,20
 252 627 252 627 252 464 c 2,21,-1
 252 0 l 1,22,-1
 108 0 l 1,0,-1
EndSplineSet
EndChar

StartChar: o
Encoding: 111 111 530
Width: 911
Flags: W
LayerCount: 2
Fore
SplineSet
54 425 m 0,0,1
 54 661 54 661 186 774 c 0,2,3
 295 869 295 869 453 869 c 0,4,5
 628 869 628 869 739 754 c 128,-1,6
 850 639 850 639 850 437 c 0,7,8
 850 273 850 273 801 179 c 128,-1,9
 752 85 752 85 658 33 c 128,-1,10
 564 -19 564 -19 453 -19 c 0,11,12
 274 -19 274 -19 164 95.5 c 128,-1,13
 54 210 54 210 54 425 c 0,0,1
202 425 m 256,14,15
 202 262 202 262 273.5 180.5 c 128,-1,16
 345 99 345 99 453 99 c 0,17,18
 560 99 560 99 631 180.5 c 128,-1,19
 702 262 702 262 702 430 c 0,20,21
 702 587 702 587 630.5 668.5 c 128,-1,22
 559 750 559 750 453 750 c 0,23,24
 345 750 345 750 273.5 669 c 128,-1,25
 202 588 202 588 202 425 c 256,14,15
EndSplineSet
EndChar

StartChar: p
Encoding: 112 112 531
Width: 911
Flags: W
LayerCount: 2
Fore
SplineSet
108 -326 m 1,0,-1
 108 850 l 1,1,-1
 239 850 l 1,2,-1
 239 739 l 1,3,4
 286 804 286 804 344 836.5 c 128,-1,5
 402 869 402 869 486 869 c 0,6,7
 594 869 594 869 677.5 813 c 128,-1,8
 761 757 761 757 803.5 655 c 128,-1,9
 846 553 846 553 846 431 c 0,10,11
 846 301 846 301 799 196.5 c 128,-1,12
 752 92 752 92 663 36.5 c 128,-1,13
 574 -19 574 -19 475 -19 c 0,14,15
 403 -19 403 -19 346 11.5 c 128,-1,16
 289 42 289 42 252 88 c 1,17,-1
 252 -326 l 1,18,-1
 108 -326 l 1,0,-1
238 420 m 256,19,20
 238 256 238 256 304.5 177.5 c 128,-1,21
 371 99 371 99 466 99 c 0,22,23
 562 99 562 99 630 180.5 c 128,-1,24
 698 262 698 262 698 432 c 0,25,26
 698 594 698 594 631.5 675 c 128,-1,27
 565 756 565 756 472 756 c 0,28,29
 380 756 380 756 309 670 c 128,-1,30
 238 584 238 584 238 420 c 256,19,20
EndSplineSet
EndChar

StartChar: q
Encoding: 113 113 532
Width: 911
Flags: W
LayerCount: 2
Fore
SplineSet
650 -326 m 1,0,-1
 650 90 l 1,1,2
 616 43 616 43 555.5 12 c 128,-1,3
 495 -19 495 -19 427 -19 c 0,4,5
 276 -19 276 -19 167 101.5 c 128,-1,6
 58 222 58 222 58 433 c 0,7,8
 58 561 58 561 102 662.5 c 128,-1,9
 146 764 146 764 230.5 816.5 c 128,-1,10
 315 869 315 869 416 869 c 0,11,12
 574 869 574 869 664 736 c 1,13,-1
 664 850 l 1,14,-1
 794 850 l 1,15,-1
 794 -326 l 1,16,-1
 650 -326 l 1,0,-1
206 427 m 0,17,18
 206 263 206 263 274.5 181 c 128,-1,19
 343 99 343 99 439 99 c 0,20,21
 531 99 531 99 597.5 177 c 128,-1,22
 664 255 664 255 664 414 c 0,23,24
 664 584 664 584 594 669.5 c 128,-1,25
 524 755 524 755 430 755 c 256,26,27
 336 755 336 755 271 675.5 c 128,-1,28
 206 596 206 596 206 427 c 0,17,18
EndSplineSet
EndChar

StartChar: r
Encoding: 114 114 533
Width: 546
Flags: W
LayerCount: 2
Fore
SplineSet
106 0 m 1,0,-1
 106 850 l 1,1,-1
 236 850 l 1,2,-1
 236 721 l 1,3,4
 286 811 286 811 328 840 c 128,-1,5
 370 869 370 869 420 869 c 0,6,7
 493 869 493 869 568 822 c 1,8,-1
 518 689 l 1,9,10
 466 720 466 720 413 720 c 0,11,12
 366 720 366 720 328 691.5 c 128,-1,13
 290 663 290 663 274 613 c 0,14,15
 250 536 250 536 250 445 c 2,16,-1
 250 0 l 1,17,-1
 106 0 l 1,0,-1
EndSplineSet
EndChar

StartChar: s
Encoding: 115 115 534
Width: 819
Flags: W
LayerCount: 2
Fore
SplineSet
50 254 m 1,0,-1
 193 276 l 1,1,2
 205 190 205 190 259.5 144.5 c 128,-1,3
 314 99 314 99 413 99 c 256,4,5
 512 99 512 99 560 139.5 c 128,-1,6
 608 180 608 180 608 234 c 0,7,8
 608 283 608 283 566 311 c 0,9,10
 536 330 536 330 418 360 c 0,11,12
 260 400 260 400 199 429 c 128,-1,13
 138 458 138 458 106 510 c 128,-1,14
 74 562 74 562 74 624 c 0,15,16
 74 681 74 681 100 729.5 c 128,-1,17
 126 778 126 778 171 810 c 0,18,19
 205 834 205 834 263 851.5 c 128,-1,20
 321 869 321 869 387 869 c 0,21,22
 487 869 487 869 562.5 840 c 128,-1,23
 638 811 638 811 674 762 c 128,-1,24
 710 713 710 713 724 630 c 1,25,-1
 583 611 l 1,26,27
 574 677 574 677 528 713.5 c 128,-1,28
 482 750 482 750 398 750 c 0,29,30
 298 750 298 750 256 717.5 c 128,-1,31
 214 685 214 685 214 641 c 0,32,33
 214 613 214 613 231 590 c 0,34,35
 249 567 249 567 286 552 c 0,36,37
 308 544 308 544 414 515 c 0,38,39
 566 474 566 474 626.5 448 c 128,-1,40
 687 422 687 422 721.5 372.5 c 128,-1,41
 756 323 756 323 756 250 c 0,42,43
 756 178 756 178 714 114 c 128,-1,44
 672 50 672 50 593 15.5 c 128,-1,45
 514 -19 514 -19 414 -19 c 0,46,47
 248 -19 248 -19 161 49.5 c 128,-1,48
 74 118 74 118 50 254 c 1,0,-1
EndSplineSet
EndChar

StartChar: t
Encoding: 116 116 535
Width: 455
Flags: W
LayerCount: 2
Fore
SplineSet
422 129 m 1,0,-1
 443 2 l 1,1,2
 382 -11 382 -11 334 -11 c 0,3,4
 256 -11 256 -11 213 13.5 c 128,-1,5
 170 38 170 38 152 78.5 c 128,-1,6
 134 119 134 119 134 249 c 2,7,-1
 134 738 l 1,8,-1
 29 738 l 1,9,-1
 29 850 l 1,10,-1
 134 850 l 1,11,-1
 134 1060 l 1,12,-1
 278 1146 l 1,13,-1
 278 850 l 1,14,-1
 422 850 l 1,15,-1
 422 738 l 1,16,-1
 278 738 l 1,17,-1
 278 241 l 2,18,19
 278 179 278 179 285.5 161.5 c 128,-1,20
 293 144 293 144 310 133.5 c 128,-1,21
 327 123 327 123 359 123 c 0,22,23
 383 123 383 123 422 129 c 1,0,-1
EndSplineSet
EndChar

StartChar: u
Encoding: 117 117 536
Width: 911
Flags: W
LayerCount: 2
Fore
SplineSet
665 0 m 1,0,-1
 665 125 l 1,1,2
 566 -19 566 -19 395 -19 c 0,3,4
 320 -19 320 -19 255 9.5 c 128,-1,5
 190 38 190 38 158 82 c 128,-1,6
 126 126 126 126 114 189 c 0,7,8
 105 231 105 231 105 323 c 2,9,-1
 105 850 l 1,10,-1
 249 850 l 1,11,-1
 249 378 l 2,12,13
 249 266 249 266 258 226 c 0,14,15
 271 170 271 170 315 137.5 c 128,-1,16
 359 105 359 105 424 105 c 256,17,18
 489 105 489 105 545.5 138 c 128,-1,19
 602 171 602 171 626 228.5 c 128,-1,20
 650 286 650 286 650 394 c 2,21,-1
 650 850 l 1,22,-1
 794 850 l 1,23,-1
 794 0 l 1,24,-1
 665 0 l 1,0,-1
EndSplineSet
EndChar

StartChar: v
Encoding: 118 118 537
Width: 819
Flags: W
LayerCount: 2
Fore
SplineSet
344 0 m 1,0,-1
 21 850 l 1,1,-1
 173 850 l 1,2,-1
 355 341 l 2,3,4
 385 258 385 258 410 170 c 1,5,6
 429 237 429 237 463 331 c 2,7,-1
 652 850 l 1,8,-1
 800 850 l 1,9,-1
 478 0 l 1,10,-1
 344 0 l 1,0,-1
EndSplineSet
EndChar

StartChar: w
Encoding: 119 119 538
Width: 1183
Flags: W
LayerCount: 2
Fore
SplineSet
265 0 m 1,0,-1
 5 850 l 1,1,-1
 154 850 l 1,2,-1
 289 359 l 1,3,-1
 339 177 l 1,4,5
 342 190 342 190 383 352 c 2,6,-1
 518 850 l 1,7,-1
 666 850 l 1,8,-1
 794 357 l 1,9,-1
 836 194 l 1,10,-1
 885 358 l 1,11,-1
 1030 850 l 1,12,-1
 1170 850 l 1,13,-1
 905 0 l 1,14,-1
 755 0 l 1,15,-1
 620 509 l 1,16,-1
 587 654 l 1,17,-1
 415 0 l 1,18,-1
 265 0 l 1,0,-1
EndSplineSet
EndChar

StartChar: x
Encoding: 120 120 539
Width: 819
Flags: W
LayerCount: 2
Fore
SplineSet
12 0 m 1,0,-1
 322 442 l 1,1,-1
 35 850 l 1,2,-1
 215 850 l 1,3,-1
 346 650 l 2,4,5
 382 594 382 594 405 555 c 1,6,7
 440 608 440 608 470 649 c 2,8,-1
 613 850 l 1,9,-1
 785 850 l 1,10,-1
 491 450 l 1,11,-1
 807 0 l 1,12,-1
 630 0 l 1,13,-1
 456 264 l 1,14,-1
 410 335 l 1,15,-1
 186 0 l 1,16,-1
 12 0 l 1,0,-1
EndSplineSet
EndChar

StartChar: y
Encoding: 121 121 540
Width: 819
Flags: W
LayerCount: 2
Fore
SplineSet
102 -327 m 1,0,-1
 86 -192 l 1,1,2
 133 -205 133 -205 168 -205 c 0,3,4
 216 -205 216 -205 245 -189 c 128,-1,5
 274 -173 274 -173 292 -144 c 0,6,7
 306 -122 306 -122 336 -37 c 0,8,9
 340 -25 340 -25 349 -2 c 1,10,-1
 26 850 l 1,11,-1
 182 850 l 1,12,-1
 358 358 l 2,13,14
 393 264 393 264 420 161 c 1,15,16
 445 260 445 260 479 354 c 2,17,-1
 661 850 l 1,18,-1
 805 850 l 1,19,-1
 482 -14 l 2,20,21
 430 -154 430 -154 401 -207 c 0,22,23
 362 -278 362 -278 312.5 -311.5 c 128,-1,24
 263 -345 263 -345 194 -345 c 0,25,26
 153 -345 153 -345 102 -327 c 1,0,-1
EndSplineSet
EndChar

StartChar: z
Encoding: 122 122 541
Width: 819
Flags: W
LayerCount: 2
Fore
SplineSet
32 0 m 1,0,-1
 32 117 l 1,1,-1
 573 738 l 1,2,3
 481 733 481 733 410 733 c 2,4,-1
 64 733 l 1,5,-1
 64 850 l 1,6,-1
 758 850 l 1,7,-1
 758 754 l 1,8,-1
 298 215 l 1,9,-1
 210 117 l 1,10,11
 306 124 306 124 391 124 c 2,12,-1
 784 124 l 1,13,-1
 784 0 l 1,14,-1
 32 0 l 1,0,-1
EndSplineSet
EndChar

StartChar: two
Encoding: 50 50 542
Width: 911
Flags: W
LayerCount: 2
Fore
SplineSet
825 138 m 1,0,-1
 825 0 l 1,1,-1
 50 0 l 1,2,3
 48 52 48 52 66 100 c 0,4,5
 96 179 96 179 161 256 c 128,-1,6
 226 333 226 333 350 434 c 0,7,8
 541 590 541 590 608 682 c 128,-1,9
 675 774 675 774 675 855 c 0,10,11
 675 941 675 941 614 999.5 c 128,-1,12
 553 1058 553 1058 454 1058 c 0,13,14
 350 1058 350 1058 288 996 c 128,-1,15
 226 934 226 934 225 823 c 1,16,-1
 77 838 l 1,17,18
 92 1004 92 1004 191 1091 c 128,-1,19
 290 1178 290 1178 458 1178 c 256,20,21
 626 1178 626 1178 724.5 1084 c 128,-1,22
 823 990 823 990 823 852 c 0,23,24
 823 782 823 782 794.5 714 c 128,-1,25
 766 646 766 646 699 570.5 c 128,-1,26
 632 495 632 495 477 364 c 0,27,28
 347 255 347 255 310.5 216.5 c 128,-1,29
 274 178 274 178 250 138 c 1,30,-1
 825 138 l 1,0,-1
EndSplineSet
EndChar

StartChar: three
Encoding: 51 51 543
Width: 911
Flags: W
LayerCount: 2
Fore
SplineSet
69 310 m 1,0,-1
 213 329 l 1,1,2
 238 206 238 206 297.5 152 c 128,-1,3
 357 98 357 98 442 98 c 0,4,5
 544 98 544 98 614 168.5 c 128,-1,6
 684 239 684 239 684 343 c 0,7,8
 684 442 684 442 619 506.5 c 128,-1,9
 554 571 554 571 454 571 c 0,10,11
 414 571 414 571 353 555 c 1,12,-1
 369 682 l 1,13,14
 383 680 383 680 392 680 c 0,15,16
 484 680 484 680 557.5 728 c 128,-1,17
 631 776 631 776 631 876 c 0,18,19
 631 955 631 955 577.5 1007 c 128,-1,20
 524 1059 524 1059 439 1059 c 0,21,22
 355 1059 355 1059 299 1006.5 c 128,-1,23
 243 954 243 954 227 848 c 1,24,-1
 83 874 l 1,25,26
 110 1018 110 1018 203.5 1098 c 128,-1,27
 297 1178 297 1178 436 1178 c 0,28,29
 532 1178 532 1178 613 1136.5 c 128,-1,30
 694 1095 694 1095 736.5 1024 c 128,-1,31
 779 953 779 953 779 873 c 0,32,33
 779 797 779 797 738.5 734.5 c 128,-1,34
 698 672 698 672 618 635 c 1,35,36
 722 611 722 611 779.5 535.5 c 128,-1,37
 837 460 837 460 837 346 c 0,38,39
 837 193 837 193 725 86 c 128,-1,40
 613 -21 613 -21 442 -21 c 0,41,42
 287 -21 287 -21 185 71 c 128,-1,43
 83 163 83 163 69 310 c 1,0,-1
EndSplineSet
EndChar

StartChar: four
Encoding: 52 52 544
Width: 911
Flags: W
LayerCount: 2
Fore
SplineSet
530 0 m 1,0,-1
 530 281 l 1,1,-1
 21 281 l 1,2,-1
 21 413 l 1,3,-1
 556 1173 l 1,4,-1
 674 1173 l 1,5,-1
 674 413 l 1,6,-1
 832 413 l 1,7,-1
 832 281 l 1,8,-1
 674 281 l 1,9,-1
 674 0 l 1,10,-1
 530 0 l 1,0,-1
530 413 m 1,11,-1
 530 942 l 1,12,-1
 162 413 l 1,13,-1
 530 413 l 1,11,-1
EndSplineSet
EndChar

StartChar: five
Encoding: 53 53 545
Width: 911
Flags: W
LayerCount: 2
Fore
SplineSet
68 307 m 1,0,-1
 219 320 l 1,1,2
 236 210 236 210 297 154 c 128,-1,3
 358 98 358 98 445 98 c 0,4,5
 549 98 549 98 621 176.5 c 128,-1,6
 693 255 693 255 693 385 c 0,7,8
 693 508 693 508 623.5 579 c 128,-1,9
 554 650 554 650 442 650 c 0,10,11
 373 650 373 650 317 618.5 c 128,-1,12
 261 587 261 587 229 537 c 1,13,-1
 94 554 l 1,14,-1
 207 1157 l 1,15,-1
 790 1157 l 1,16,-1
 790 1019 l 1,17,-1
 322 1019 l 1,18,-1
 259 704 l 1,19,20
 365 778 365 778 481 778 c 0,21,22
 634 778 634 778 740 671.5 c 128,-1,23
 846 565 846 565 846 398 c 0,24,25
 846 238 846 238 753 122 c 0,26,27
 640 -20 640 -20 445 -20 c 0,28,29
 285 -20 285 -20 183.5 69.5 c 128,-1,30
 82 159 82 159 68 307 c 1,0,-1
EndSplineSet
EndChar

StartChar: six
Encoding: 54 54 546
Width: 911
Flags: W
LayerCount: 2
Fore
SplineSet
815 886 m 1,0,-1
 672 874 l 1,1,2
 653 959 653 959 618 998 c 0,3,4
 559 1059 559 1059 474 1059 c 0,5,6
 405 1059 405 1059 353 1021 c 0,7,8
 285 971 285 971 245.5 876 c 128,-1,9
 206 781 206 781 205 605 c 1,10,11
 257 684 257 684 332 722.5 c 128,-1,12
 407 761 407 761 490 761 c 0,13,14
 634 761 634 761 735 655 c 128,-1,15
 836 549 836 549 836 381 c 0,16,17
 836 270 836 270 788.5 175.5 c 128,-1,18
 741 81 741 81 657.5 30.5 c 128,-1,19
 574 -20 574 -20 469 -20 c 0,20,21
 289 -20 289 -20 175.5 112.5 c 128,-1,22
 62 245 62 245 62 549 c 0,23,24
 62 889 62 889 187 1043 c 0,25,26
 297 1178 297 1178 482 1178 c 0,27,28
 621 1178 621 1178 709.5 1100 c 128,-1,29
 798 1022 798 1022 815 886 c 1,0,-1
227 380 m 0,30,31
 227 306 227 306 258.5 238 c 128,-1,32
 290 170 290 170 347 134 c 128,-1,33
 404 98 404 98 466 98 c 0,34,35
 558 98 558 98 623.5 172 c 128,-1,36
 689 246 689 246 689 372 c 0,37,38
 689 494 689 494 624 564 c 128,-1,39
 559 634 559 634 461 634 c 256,40,41
 363 634 363 634 295 564 c 128,-1,42
 227 494 227 494 227 380 c 0,30,31
EndSplineSet
EndChar

StartChar: seven
Encoding: 55 55 547
Width: 911
Flags: W
LayerCount: 2
Fore
SplineSet
78 1019 m 1,0,-1
 78 1158 l 1,1,-1
 837 1158 l 1,2,-1
 837 1046 l 1,3,4
 725 926 725 926 615 728.5 c 128,-1,5
 505 531 505 531 445 322 c 0,6,7
 402 175 402 175 390 0 c 1,8,-1
 242 0 l 1,9,10
 244 138 244 138 296 334 c 128,-1,11
 348 530 348 530 445 712 c 128,-1,12
 542 894 542 894 652 1019 c 1,13,-1
 78 1019 l 1,0,-1
EndSplineSet
EndChar

StartChar: eight
Encoding: 56 56 548
Width: 911
Flags: W
LayerCount: 2
Fore
SplineSet
290 636 m 1,0,1
 200 669 200 669 157 729.5 c 128,-1,2
 114 790 114 790 114 875 c 0,3,4
 114 1003 114 1003 206 1090.5 c 128,-1,5
 298 1178 298 1178 450 1178 c 0,6,7
 604 1178 604 1178 697.5 1088.5 c 128,-1,8
 791 999 791 999 791 871 c 0,9,10
 791 790 791 790 748.5 729.5 c 128,-1,11
 706 669 706 669 618 636 c 1,12,13
 726 601 726 601 782.5 522.5 c 128,-1,14
 839 444 839 444 839 335 c 0,15,16
 839 185 839 185 732.5 82.5 c 128,-1,17
 626 -20 626 -20 453 -20 c 0,18,19
 279 -20 279 -20 172.5 83 c 128,-1,20
 66 186 66 186 66 339 c 0,21,22
 66 454 66 454 124 531 c 128,-1,23
 182 608 182 608 290 636 c 1,0,1
261 880 m 0,24,25
 261 797 261 797 314.5 744 c 128,-1,26
 368 691 368 691 454 691 c 0,27,28
 537 691 537 691 590 743.5 c 128,-1,29
 643 796 643 796 643 872 c 0,30,31
 643 951 643 951 588.5 1005 c 128,-1,32
 534 1059 534 1059 452 1059 c 256,33,34
 370 1059 370 1059 315.5 1006.5 c 128,-1,35
 261 954 261 954 261 880 c 0,24,25
214 338 m 0,36,37
 214 277 214 277 243.5 219.5 c 128,-1,38
 273 162 273 162 330.5 130 c 128,-1,39
 388 98 388 98 454 98 c 0,40,41
 558 98 558 98 625 164.5 c 128,-1,42
 692 231 692 231 692 334 c 0,43,44
 692 438 692 438 623 506 c 128,-1,45
 554 574 554 574 450 574 c 0,46,47
 348 574 348 574 281 506.5 c 128,-1,48
 214 439 214 439 214 338 c 0,36,37
EndSplineSet
EndChar

StartChar: nine
Encoding: 57 57 549
Width: 911
Flags: W
LayerCount: 2
Fore
SplineSet
90 271 m 1,0,-1
 228 284 l 1,1,2
 246 186 246 186 295.5 142 c 128,-1,3
 345 98 345 98 422 98 c 0,4,5
 489 98 489 98 539 128.5 c 128,-1,6
 589 159 589 159 621 210 c 128,-1,7
 653 261 653 261 674.5 347.5 c 128,-1,8
 696 434 696 434 696 523 c 0,9,10
 696 533 696 533 695 552 c 1,11,12
 652 483 652 483 577 440.5 c 128,-1,13
 502 398 502 398 415 398 c 0,14,15
 270 398 270 398 169 503.5 c 128,-1,16
 68 609 68 609 68 782 c 0,17,18
 68 960 68 960 173 1069 c 128,-1,19
 278 1178 278 1178 437 1178 c 0,20,21
 551 1178 551 1178 646 1116 c 128,-1,22
 741 1054 741 1054 790 940 c 128,-1,23
 839 826 839 826 839 610 c 0,24,25
 839 386 839 386 790.5 252.5 c 128,-1,26
 742 119 742 119 645.5 49.5 c 128,-1,27
 549 -20 549 -20 419 -20 c 0,28,29
 282 -20 282 -20 194.5 56.5 c 128,-1,30
 107 133 107 133 90 271 c 1,0,-1
679 789 m 256,31,32
 679 913 679 913 613 985.5 c 128,-1,33
 547 1058 547 1058 454 1058 c 0,34,35
 358 1058 358 1058 287 980 c 128,-1,36
 216 902 216 902 216 777 c 0,37,38
 216 665 216 665 283.5 595 c 128,-1,39
 351 525 351 525 450 525 c 0,40,41
 550 525 550 525 614.5 595 c 128,-1,42
 679 665 679 665 679 789 c 256,31,32
EndSplineSet
EndChar

StartChar: numbersign
Encoding: 35 35 550
Width: 911
Flags: W
LayerCount: 2
Fore
SplineSet
82 -20 m 1,0,-1
 152 321 l 1,1,-1
 17 321 l 1,2,-1
 17 440 l 1,3,-1
 176 440 l 1,4,-1
 235 730 l 1,5,-1
 17 730 l 1,6,-1
 17 850 l 1,7,-1
 259 850 l 1,8,-1
 329 1193 l 1,9,-1
 449 1193 l 1,10,-1
 379 850 l 1,11,-1
 631 850 l 1,12,-1
 701 1193 l 1,13,-1
 822 1193 l 1,14,-1
 752 850 l 1,15,-1
 890 850 l 1,16,-1
 890 730 l 1,17,-1
 728 730 l 1,18,-1
 668 440 l 1,19,-1
 890 440 l 1,20,-1
 890 321 l 1,21,-1
 644 321 l 1,22,-1
 574 -20 l 1,23,-1
 454 -20 l 1,24,-1
 523 321 l 1,25,-1
 272 321 l 1,26,-1
 202 -20 l 1,27,-1
 82 -20 l 1,0,-1
296 440 m 1,28,-1
 547 440 l 1,29,-1
 607 730 l 1,30,-1
 355 730 l 1,31,-1
 296 440 l 1,28,-1
EndSplineSet
EndChar

StartChar: dollar
Encoding: 36 36 551
Width: 911
Flags: W
LayerCount: 2
Fore
SplineSet
408 -169 m 1,0,-1
 408 -25 l 1,1,2
 300 -11 300 -11 232.5 23.5 c 128,-1,3
 165 58 165 58 115.5 136 c 128,-1,4
 66 214 66 214 58 326 c 1,5,-1
 203 353 l 1,6,7
 220 237 220 237 262 182 c 0,8,9
 323 106 323 106 408 97 c 1,10,-1
 408 555 l 1,11,12
 319 572 319 572 226 624 c 0,13,14
 158 662 158 662 120.5 730 c 128,-1,15
 83 798 83 798 83 885 c 0,16,17
 83 1038 83 1038 192 1134 c 0,18,19
 265 1198 265 1198 408 1212 c 1,20,-1
 408 1281 l 1,21,-1
 493 1281 l 1,22,-1
 493 1212 l 1,23,24
 618 1200 618 1200 692 1138 c 0,25,26
 786 1060 786 1060 806 923 c 1,27,-1
 657 901 l 1,28,29
 644 986 644 986 603.5 1031 c 128,-1,30
 563 1076 563 1076 493 1090 c 1,31,-1
 493 675 l 1,32,33
 602 648 602 648 637 633 c 0,34,35
 704 603 704 603 746.5 560.5 c 128,-1,36
 789 518 789 518 811.5 460 c 128,-1,37
 834 402 834 402 834 334 c 0,38,39
 834 184 834 184 739 84 c 128,-1,40
 644 -16 644 -16 493 -23 c 1,41,-1
 493 -169 l 1,42,-1
 408 -169 l 1,0,-1
408 1092 m 1,43,44
 324 1079 324 1079 275.5 1024.5 c 128,-1,45
 227 970 227 970 227 896 c 256,46,47
 227 822 227 822 268.5 772.5 c 128,-1,48
 310 723 310 723 408 694 c 1,49,-1
 408 1092 l 1,43,44
493 97 m 1,50,51
 577 107 577 107 631.5 169.5 c 128,-1,52
 686 232 686 232 686 324 c 0,53,54
 686 402 686 402 647.5 450 c 128,-1,55
 609 498 609 498 493 535 c 1,56,-1
 493 97 l 1,50,51
EndSplineSet
EndChar

StartChar: percent
Encoding: 37 37 552
Width: 1457
Flags: W
LayerCount: 2
Fore
SplineSet
95 891 m 0,0,1
 95 1017 95 1017 158.5 1105 c 128,-1,2
 222 1193 222 1193 342 1193 c 0,3,4
 452 1193 452 1193 524.5 1114 c 128,-1,5
 597 1035 597 1035 597 882 c 0,6,7
 597 734 597 734 523.5 653.5 c 128,-1,8
 450 573 450 573 343 573 c 0,9,10
 237 573 237 573 166 652 c 128,-1,11
 95 731 95 731 95 891 c 0,0,1
346 1094 m 0,12,13
 292 1094 292 1094 256.5 1047.5 c 128,-1,14
 221 1001 221 1001 221 877 c 0,15,16
 221 764 221 764 257 718 c 128,-1,17
 293 672 293 672 346 672 c 0,18,19
 400 672 400 672 435.5 718.5 c 128,-1,20
 471 765 471 765 471 888 c 0,21,22
 471 1002 471 1002 435 1048 c 128,-1,23
 399 1094 399 1094 346 1094 c 0,12,13
346 -43 m 1,24,-1
 988 1193 l 1,25,-1
 1105 1193 l 1,26,-1
 466 -43 l 1,27,-1
 346 -43 l 1,24,-1
854 275 m 0,28,29
 854 402 854 402 917 489.5 c 128,-1,30
 980 577 980 577 1101 577 c 0,31,32
 1211 577 1211 577 1283.5 498 c 128,-1,33
 1356 419 1356 419 1356 266 c 0,34,35
 1356 118 1356 118 1283 37.5 c 128,-1,36
 1210 -43 1210 -43 1102 -43 c 0,37,38
 995 -43 995 -43 924.5 36.5 c 128,-1,39
 854 116 854 116 854 275 c 0,28,29
1105 478 m 0,40,41
 1050 478 1050 478 1014.5 431.5 c 128,-1,42
 979 385 979 385 979 261 c 0,43,44
 979 149 979 149 1015 102.5 c 128,-1,45
 1051 56 1051 56 1104 56 c 0,46,47
 1159 56 1159 56 1194.5 102.5 c 128,-1,48
 1230 149 1230 149 1230 272 c 0,49,50
 1230 386 1230 386 1194 432 c 128,-1,51
 1158 478 1158 478 1105 478 c 0,40,41
EndSplineSet
EndChar

StartChar: ampersand
Encoding: 38 38 553
Width: 1093
Flags: W
LayerCount: 2
Fore
SplineSet
778 138 m 1,0,1
 707 59 707 59 623 19.5 c 128,-1,2
 539 -20 539 -20 442 -20 c 0,3,4
 262 -20 262 -20 156 102 c 0,5,6
 70 201 70 201 70 323 c 0,7,8
 70 432 70 432 140 519.5 c 128,-1,9
 210 607 210 607 350 674 c 1,10,11
 270 765 270 765 244 821.5 c 128,-1,12
 218 878 218 878 218 931 c 0,13,14
 218 1037 218 1037 300.5 1115 c 128,-1,15
 383 1193 383 1193 509 1193 c 0,16,17
 629 1193 629 1193 705.5 1119.5 c 128,-1,18
 782 1046 782 1046 782 942 c 0,19,20
 782 775 782 775 560 657 c 1,21,-1
 770 389 l 1,22,23
 806 459 806 459 826 552 c 1,24,-1
 976 520 l 1,25,26
 938 366 938 366 872 267 c 1,27,28
 953 160 953 160 1055 87 c 1,29,-1
 958 -27 l 1,30,31
 871 29 871 29 778 138 c 1,0,1
486 750 m 1,32,33
 579 805 579 805 606.5 846.5 c 128,-1,34
 634 888 634 888 634 938 c 0,35,36
 634 998 634 998 596 1036 c 128,-1,37
 558 1074 558 1074 502 1074 c 0,38,39
 443 1074 443 1074 404.5 1036.5 c 128,-1,40
 366 999 366 999 366 945 c 0,41,42
 366 918 366 918 380 888 c 128,-1,43
 394 858 394 858 422 824 c 2,44,-1
 486 750 l 1,32,33
688 252 m 1,45,-1
 424 579 l 1,46,47
 307 510 307 510 266.5 450 c 128,-1,48
 226 390 226 390 226 332 c 0,49,50
 226 261 226 261 282.5 184 c 128,-1,51
 339 107 339 107 443 107 c 0,52,53
 508 107 508 107 577 147.5 c 128,-1,54
 646 188 646 188 688 252 c 1,45,-1
EndSplineSet
EndChar

StartChar: zero
Encoding: 48 48 554
Width: 911
Flags: W
LayerCount: 2
Fore
SplineSet
68 578 m 0,0,1
 68 786 68 786 111 913 c 128,-1,2
 154 1040 154 1040 238 1109 c 128,-1,3
 322 1178 322 1178 450 1178 c 0,4,5
 545 1178 545 1178 616 1140 c 128,-1,6
 687 1102 687 1102 733.5 1030 c 128,-1,7
 780 958 780 958 806.5 855.5 c 128,-1,8
 833 753 833 753 833 578 c 0,9,10
 833 372 833 372 790.5 245 c 128,-1,11
 748 118 748 118 663.5 49 c 128,-1,12
 579 -20 579 -20 450 -20 c 0,13,14
 281 -20 281 -20 184 102 c 0,15,16
 68 248 68 248 68 578 c 0,0,1
216 578 m 0,17,18
 216 290 216 290 283.5 194 c 128,-1,19
 351 98 351 98 450 98 c 0,20,21
 550 98 550 98 617.5 194 c 128,-1,22
 685 290 685 290 685 578 c 0,23,24
 685 868 685 868 617.5 963 c 128,-1,25
 550 1058 550 1058 449 1058 c 0,26,27
 350 1058 350 1058 290 974 c 0,28,29
 216 867 216 867 216 578 c 0,17,18
EndSplineSet
EndChar

StartChar: one
Encoding: 49 49 555
Width: 911
Flags: W
LayerCount: 2
Fore
SplineSet
610 0 m 1,0,-1
 466 0 l 1,1,-1
 466 918 l 1,2,3
 414 868 414 868 330 818.5 c 128,-1,4
 246 769 246 769 178 744 c 1,5,-1
 178 883 l 1,6,7
 299 940 299 940 389.5 1021 c 128,-1,8
 480 1102 480 1102 518 1178 c 1,9,-1
 610 1178 l 1,10,-1
 610 0 l 1,0,-1
EndSplineSet
EndChar

